<svg width="261" height="261" viewBox="0 0 261 261" fill="none" xmlns="http://www.w3.org/2000/svg">
<rect x="10" y="10" width="241" height="241" rx="35" stroke="black" stroke-width="20"/>
<path fill-rule="evenodd" clip-rule="evenodd" d="M130.58 33.2749C76.9773 33.2749 33.6445 77.8362 33.6445 132.965C33.6445 177.032 61.4093 214.334 99.9264 227.536C104.742 228.528 106.506 225.391 106.506 222.752C106.506 220.441 106.347 212.519 106.347 204.265C79.3821 210.208 73.7668 192.381 73.7668 192.381C69.4334 180.828 63.0125 177.858 63.0125 177.858C54.1868 171.751 63.6554 171.751 63.6554 171.751C73.4454 172.412 78.5825 181.984 78.5825 181.984C87.2474 197.167 101.21 192.877 106.827 190.236C107.629 183.799 110.199 179.343 112.927 176.868C91.4202 174.557 68.7925 165.974 68.7925 127.682C68.7925 116.789 72.6418 107.877 78.7412 100.945C77.7789 98.4701 74.4077 88.2352 79.7055 74.5367C79.7055 74.5367 87.8903 71.8954 106.345 84.7696C114.246 82.5874 122.395 81.4773 130.58 81.468C138.765 81.468 147.108 82.6245 154.813 84.7696C173.27 71.8954 181.455 74.5367 181.455 74.5367C186.753 88.2352 183.379 98.4701 182.417 100.945C188.677 107.877 192.368 116.789 192.368 127.682C192.368 165.974 169.74 174.39 148.073 176.868C151.605 180.003 154.652 185.944 154.652 195.353C154.652 208.721 154.494 219.45 154.494 222.75C154.494 225.391 156.26 228.528 161.073 227.538C199.59 214.332 227.355 177.032 227.355 132.965C227.514 77.8362 184.022 33.2749 130.58 33.2749Z" fill="#948D54"/>
</svg>
