<svg width="261" height="261" viewBox="0 0 261 261" fill="none" xmlns="http://www.w3.org/2000/svg">
<rect x="10" y="10" width="241" height="241" rx="35" fill="#FFF59A"/>
<rect x="10" y="10" width="241" height="241" rx="35" stroke="black" stroke-width="20"/>
<path d="M65.0761 43.0946C57.3555 48.1905 42.1443 67.6158 42 72.7101V81.1425C42 91.8315 50.9881 101.226 59.1487 101.226C68.9476 101.226 77.1119 92.1987 77.1126 81.4841C77.1126 92.1987 84.997 101.226 94.7966 101.226C104.597 101.226 112.228 92.1987 112.228 81.4841C112.228 92.1987 120.612 101.226 130.411 101.226H130.589C140.389 101.226 148.773 92.1987 148.773 81.4841C148.773 92.1987 156.405 101.226 166.203 101.226C176.003 101.226 183.887 92.1987 183.887 81.4841C183.887 92.1987 192.053 101.226 201.851 101.226C210.012 101.226 219 91.8331 219 81.1425V72.7101C218.856 67.615 203.645 48.1889 195.925 43.0946C171.929 42.158 155.293 41.9961 130.499 42.0001C105.706 42.0025 71.9052 42.4331 65.0747 43.0946H65.0761ZM112.104 96.192C111.167 98.0077 110.006 99.6689 108.656 101.128C104.957 105.148 99.8865 107.64 94.2967 107.64C88.9178 107.646 83.7514 105.306 79.9071 101.124C78.5669 99.6649 77.5483 98.1045 76.6156 96.2875L76.6113 96.2907C75.6793 98.1109 74.3808 99.6705 73.0377 101.132C69.1919 105.311 64.0261 107.648 58.6481 107.643C57.9744 107.643 57.2732 107.436 56.7062 107.219C55.9185 116.338 55.586 125.053 55.4684 131.407L55.467 131.443C55.4525 134.67 55.4381 137.323 55.4237 141.009C55.5752 160.142 53.7191 203.021 63.0123 213.557C77.4134 217.29 103.913 218.99 130.499 219H130.503C157.088 218.99 183.587 217.29 197.988 213.557C207.282 203.02 205.426 160.141 205.577 141.009C205.561 137.323 205.548 134.67 205.534 131.442L205.532 131.406C205.415 125.051 205.082 116.337 204.294 107.218C203.727 107.434 203.027 107.641 202.353 107.641C196.975 107.646 191.809 105.309 187.963 101.13C186.62 99.6689 185.321 98.1101 184.389 96.2891L184.384 96.2859C183.451 98.1029 182.433 99.6641 181.093 101.123C177.249 105.305 172.083 107.644 166.704 107.638C161.115 107.638 156.044 105.144 152.345 101.124C150.994 99.6657 149.834 98.0045 148.897 96.1888C147.97 98.0025 146.82 99.6636 145.48 101.124C141.635 105.306 136.468 107.645 131.089 107.639C130.895 107.639 130.7 107.629 130.505 107.623H130.5C130.305 107.629 130.11 107.639 129.914 107.639C124.535 107.645 119.368 105.306 115.523 101.125C114.183 99.6644 113.033 98.0033 112.106 96.1896L112.104 96.192ZM97.3264 117.434L97.3249 117.442H97.3358C103.188 117.455 108.387 117.442 114.829 125.257C119.898 124.666 125.196 124.371 130.498 124.379H130.502C135.804 124.371 141.102 124.666 146.172 125.257C152.614 117.441 157.813 117.454 163.665 117.442H163.675L163.674 117.434C166.439 117.434 177.499 117.434 185.206 141.495L193.484 174.504C199.619 199.061 191.52 199.661 181.418 199.683C166.437 199.063 158.142 186.969 158.142 174.877C149.85 176.388 140.176 177.143 130.501 177.144H130.497C120.822 177.144 111.148 176.388 102.856 174.877C102.856 186.969 94.5607 199.063 79.5804 199.683C69.4785 199.661 61.3806 199.062 67.515 174.504L75.7954 141.496C83.5024 117.434 94.5629 117.434 97.3278 117.434L97.3264 117.434ZM130.498 136.343V136.348C130.483 136.364 114.727 152.45 111.894 158.171L122.212 157.711V167.714C122.212 168.182 126.353 167.991 130.498 167.778H130.502C134.646 167.991 138.787 168.182 138.787 167.714V157.711L149.105 158.171C146.272 152.45 130.501 136.348 130.501 136.348V136.343L130.499 136.345L130.498 136.343Z" fill="#948D54"/>
</svg>
