<svg width="261" height="261" viewBox="0 0 261 261" fill="none" xmlns="http://www.w3.org/2000/svg">
<g clip-path="url(#clip0_30_6)">
<path d="M221.85 0H39.15C17.5281 0 0 17.5281 0 39.15V221.85C0 243.472 17.5281 261 39.15 261H221.85C243.472 261 261 243.472 261 221.85V39.15C261 17.5281 243.472 0 221.85 0Z" fill="#FFF59A"/>
<path d="M30.0762 140.67L28.5469 151.885L30.0762 163.1C30.0762 164.119 31.6055 164.119 31.6055 163.1L33.1348 151.885L31.6055 140.67C31.6055 139.141 30.0762 139.141 30.0762 140.67ZM39.252 133.534C39.252 132.004 37.7227 132.004 37.7227 133.534L35.1738 151.885L37.2129 169.727C37.2129 171.256 39.252 171.256 39.252 169.727L41.291 151.885L39.252 133.534ZM69.3281 118.241L67.7988 151.885L68.8184 172.276C68.8184 176.354 72.3867 176.354 72.3867 172.276L74.4258 151.885L72.3867 118.241C72.3867 115.692 69.3281 115.692 69.3281 118.241ZM53.5254 129.455L51.4863 151.885L53.0156 172.276C53.0156 175.334 55.5645 175.334 55.5645 172.276L57.6035 151.885L55.5645 129.455C55.5645 127.926 53.5254 127.926 53.5254 129.455ZM89.209 172.276L90.7383 151.885L89.209 107.026C89.209 103.967 85.6406 103.967 85.6406 107.026L84.1113 151.885L85.1309 172.276C85.1309 176.354 89.209 176.354 89.209 172.276ZM123.873 172.276L124.893 151.885L123.873 99.889C123.873 96.3207 118.775 96.3207 118.775 99.889L117.756 151.885L118.775 172.276C118.775 176.354 123.873 176.354 123.873 172.276ZM106.541 172.276L108.07 151.885L106.541 106.516C106.541 103.457 101.953 103.457 101.953 106.516L100.934 151.885L101.953 172.276C101.953 176.354 106.541 176.354 106.541 172.276ZM64.2305 172.276L65.7598 151.885L64.2305 130.985C64.2305 129.455 61.1719 129.455 61.1719 130.985L59.6426 151.885L61.1719 172.276C61.1719 175.844 64.2305 175.844 64.2305 172.276ZM47.4082 172.276L49.4473 151.885L47.4082 129.965C47.4082 128.436 45.3691 128.436 45.3691 129.965L43.3301 151.885L45.3691 172.276C45.3691 174.315 47.4082 174.315 47.4082 172.276ZM110.619 108.555L109.6 151.885L110.109 172.276C110.109 176.354 115.207 176.354 115.207 172.276L116.227 151.885L115.207 108.555C115.207 104.987 110.619 104.987 110.619 108.555ZM81.0527 172.276L82.582 151.885L81.0527 110.594C81.0527 107.536 77.4844 107.536 77.4844 110.594L75.9551 151.885L76.9746 172.276C76.9746 176.354 81.0527 176.354 81.0527 172.276ZM97.875 172.276L99.4043 151.885L97.875 105.496C97.875 102.438 93.7969 102.438 93.7969 105.496L92.2676 151.885L93.7969 172.276C93.7969 176.354 97.875 176.354 97.875 172.276ZM197.789 126.907C195.24 97.85 165.164 78.9886 137.637 89.6937C135.598 90.7132 135.088 91.223 135.088 92.7523V172.276C135.088 173.805 136.107 175.334 137.637 175.334H207.475C221.238 175.334 232.453 164.119 232.453 150.356C232.453 131.494 214.611 121.299 197.789 126.907ZM127.441 95.3011L125.912 151.885L127.441 172.276C127.441 176.354 132.539 176.354 132.539 172.276L134.068 151.885L132.539 95.3011C132.539 91.7328 127.441 91.7328 127.441 95.3011Z" fill="#948D54"/>
</g>
<rect x="10" y="10" width="241" height="241" rx="35" stroke="black" stroke-width="20"/>
<defs>
<clipPath id="clip0_30_6">
<rect width="261" height="261" rx="45" fill="white"/>
</clipPath>
</defs>
</svg>
