<svg width="261" height="261" viewBox="0 0 261 261" fill="none" xmlns="http://www.w3.org/2000/svg">
<rect x="10" y="10" width="241" height="241" rx="35" fill="#FFF59A"/>
<rect x="10" y="10" width="241" height="241" rx="35" stroke="black" stroke-width="20"/>
<path d="M185.162 65H75.8375C54.3881 65 37 82.3881 37 103.838V158.488C37 179.938 54.3881 197.326 75.8375 197.326H185.162C206.612 197.326 224 179.938 224 158.488V103.838C224 82.3881 206.612 65 185.162 65ZM158.897 133.822L107.762 158.21C106.4 158.86 104.826 157.867 104.826 156.357V106.056C104.826 104.525 106.441 103.533 107.806 104.225L158.941 130.138C160.462 130.908 160.435 133.089 158.897 133.822Z" fill="#948D54"/>
</svg>
