<?xml version="1.0" encoding="utf-8"?>
<svg width="898" height="898" viewBox="0 0 898 898" fill="none" stroke="none" version="1.1" xmlns:xlink="http://www.w3.org/1999/xlink" xmlns="http://www.w3.org/2000/svg">
  <defs>
    <path id="path_1" d="M898 0L898 0L898 898L0 898L0 0L898 0Z" />
    <rect id="rect_2" x="0" y="0" width="898" height="898" />
    <clipPath id="clip_path_3">
      <use xlink:href="#rect_2" />
    </clipPath>
  </defs>
  <g id="Frame" opacity="1" clip-path="url(#clip_path_3)">
    <g>
      <use xlink:href="#path_1" style="fill:#F88922;fill-rule:evenodd;mix-blend-mode:normal;" />
      <g>
        <g style="mix-blend-mode:normal;" transform="matrix(0 1 -1 0 601 383)">
          <path d="M61.3125 141.713Q61.3125 151.768 54.5625 158.096Q47.8125 164.424 38.3203 164.424Q28.5469 164.424 21.8672 158.096Q15.2578 151.768 15.2578 141.713Q15.2578 131.588 21.8672 125.119Q28.5469 118.65 38.3203 118.65Q47.8125 118.65 54.5625 125.119Q61.3125 131.588 61.3125 141.713ZM61.3125 249.432Q61.3125 259.486 54.5625 265.814Q47.8125 272.143 38.3203 272.143Q28.5469 272.143 21.8672 265.814Q15.2578 259.486 15.2578 249.432Q15.2578 239.307 21.8672 232.838Q28.5469 226.369 38.3203 226.369Q47.8125 226.369 54.5625 232.838Q61.3125 239.307 61.3125 249.432ZM103.397 42.9238L136.233 42.9238L136.233 321.713L103.397 321.713L103.397 42.9238Z" style="fill:#000000;" />
        </g>
      </g>
    </g>
  </g>
</svg>