<svg width="80" height="80" viewBox="0 0 80 80" fill="none" xmlns="http://www.w3.org/2000/svg">
<g clip-path="url(#clip0_88_45)">
<path fill-rule="evenodd" clip-rule="evenodd" d="M39.8808 0C17.8278 0 0 18.3333 0 41.0142C0 59.1442 11.4229 74.4908 27.2694 79.9225C29.2506 80.3308 29.9763 79.04 29.9763 77.9542C29.9763 77.0033 29.911 73.7442 29.911 70.3483C18.8171 72.7933 16.5069 65.4592 16.5069 65.4592C14.7241 60.7058 12.0824 59.4842 12.0824 59.4842C8.45143 56.9717 12.3469 56.9717 12.3469 56.9717C16.3747 57.2433 18.4882 61.1817 18.4882 61.1817C22.0531 67.4283 27.7976 65.6633 30.1086 64.5767C30.4384 61.9283 31.4955 60.095 32.618 59.0767C23.7698 58.1258 14.4604 54.595 14.4604 38.8408C14.4604 34.3592 16.0441 30.6925 18.5535 27.8408C18.1576 26.8225 16.7706 22.6117 18.9502 16.9758C18.9502 16.9758 22.3176 15.8892 29.9102 21.1858C33.1609 20.2881 36.5133 19.8313 39.8808 19.8275C43.2482 19.8275 46.6808 20.3033 49.8506 21.1858C57.4441 15.8892 60.8114 16.9758 60.8114 16.9758C62.991 22.6117 61.6033 26.8225 61.2073 27.8408C63.7829 30.6925 65.3012 34.3592 65.3012 38.8408C65.3012 54.595 55.9918 58.0575 47.0776 59.0767C48.5306 60.3667 49.7845 62.8108 49.7845 66.6817C49.7845 72.1817 49.7192 76.5958 49.7192 77.9533C49.7192 79.04 50.4457 80.3308 52.4261 79.9233C68.2727 74.49 79.6955 59.1442 79.6955 41.0142C79.7608 18.3333 61.8678 0 39.8808 0Z" fill="#E5B6B6"/>
</g>
<defs>
<clipPath id="clip0_88_45">
<rect width="80" height="80" fill="white"/>
</clipPath>
</defs>
</svg>
