<svg width="80" height="80" viewBox="0 0 80 80" fill="none" xmlns="http://www.w3.org/2000/svg">
<g clip-path="url(#clip0_88_15)">
<path d="M68 0H12C5.37258 0 0 5.37258 0 12V68C0 74.6274 5.37258 80 12 80H68C74.6274 80 80 74.6274 80 68V12C80 5.37258 74.6274 0 68 0Z" fill="#B6E5B8"/>
<path d="M9.21875 42.1874L8.75 45.6249L9.21875 49.0624C9.21875 49.3749 9.6875 49.3749 9.6875 49.0624L10.1562 45.6249L9.6875 42.1874C9.6875 41.7186 9.21875 41.7186 9.21875 42.1874ZM12.0312 39.9999C12.0312 39.5311 11.5625 39.5311 11.5625 39.9999L10.7812 45.6249L11.4062 51.0936C11.4062 51.5624 12.0312 51.5624 12.0312 51.0936L12.6562 45.6249L12.0312 39.9999ZM21.25 35.3124L20.7812 45.6249L21.0938 51.8749C21.0938 53.1249 22.1875 53.1249 22.1875 51.8749L22.8125 45.6249L22.1875 35.3124C22.1875 34.5311 21.25 34.5311 21.25 35.3124ZM16.4062 38.7499L15.7812 45.6249L16.25 51.8749C16.25 52.8124 17.0312 52.8124 17.0312 51.8749L17.6562 45.6249L17.0312 38.7499C17.0312 38.2811 16.4062 38.2811 16.4062 38.7499ZM27.3438 51.8749L27.8125 45.6249L27.3438 31.8749C27.3438 30.9374 26.25 30.9374 26.25 31.8749L25.7812 45.6249L26.0938 51.8749C26.0938 53.1249 27.3438 53.1249 27.3438 51.8749ZM37.9688 51.8749L38.2812 45.6249L37.9688 29.6874C37.9688 28.5936 36.4062 28.5936 36.4062 29.6874L36.0938 45.6249L36.4062 51.8749C36.4062 53.1249 37.9688 53.1249 37.9688 51.8749ZM32.6562 51.8749L33.125 45.6249L32.6562 31.7186C32.6562 30.7811 31.25 30.7811 31.25 31.7186L30.9375 45.6249L31.25 51.8749C31.25 53.1249 32.6562 53.1249 32.6562 51.8749ZM19.6875 51.8749L20.1562 45.6249L19.6875 39.2186C19.6875 38.7499 18.75 38.7499 18.75 39.2186L18.2812 45.6249L18.75 51.8749C18.75 52.9686 19.6875 52.9686 19.6875 51.8749ZM14.5312 51.8749L15.1562 45.6249L14.5312 38.9061C14.5312 38.4374 13.9062 38.4374 13.9062 38.9061L13.2812 45.6249L13.9062 51.8749C13.9062 52.4999 14.5312 52.4999 14.5312 51.8749ZM33.9062 32.3436L33.5938 45.6249L33.75 51.8749C33.75 53.1249 35.3125 53.1249 35.3125 51.8749L35.625 45.6249L35.3125 32.3436C35.3125 31.2499 33.9062 31.2499 33.9062 32.3436ZM24.8438 51.8749L25.3125 45.6249L24.8438 32.9686C24.8438 32.0311 23.75 32.0311 23.75 32.9686L23.2812 45.6249L23.5938 51.8749C23.5938 53.1249 24.8438 53.1249 24.8438 51.8749ZM30 51.8749L30.4688 45.6249L30 31.4061C30 30.4686 28.75 30.4686 28.75 31.4061L28.2812 45.6249L28.75 51.8749C28.75 53.1249 30 53.1249 30 51.8749ZM60.625 37.9686C59.8438 29.0624 50.625 23.2811 42.1875 26.5624C41.5625 26.8749 41.4062 27.0311 41.4062 27.4999V51.8749C41.4062 52.3436 41.7188 52.8124 42.1875 52.8124H63.5938C67.8125 52.8124 71.25 49.3749 71.25 45.1561C71.25 39.3749 65.7812 36.2499 60.625 37.9686ZM39.0625 28.2811L38.5938 45.6249L39.0625 51.8749C39.0625 53.1249 40.625 53.1249 40.625 51.8749L41.0938 45.6249L40.625 28.2811C40.625 27.1874 39.0625 27.1874 39.0625 28.2811Z" fill="#E2FFE2"/>
</g>
<defs>
<clipPath id="clip0_88_15">
<rect width="80" height="80" fill="white"/>
</clipPath>
</defs>
</svg>
