<svg width="126" height="126" viewBox="0 0 126 126" fill="none" xmlns="http://www.w3.org/2000/svg">
<rect x="5" y="5" width="116" height="116" rx="58" fill="#302E30"/>
<rect x="5" y="5" width="116" height="116" rx="58" stroke="#C27E53" stroke-width="10"/>
<path fill-rule="evenodd" clip-rule="evenodd" d="M62.9106 33C46.3708 33 33 46.75 33 63.7606C33 77.3581 41.5671 88.8681 53.452 92.9419C54.938 93.2481 55.4822 92.28 55.4822 91.4656C55.4822 90.7525 55.4333 88.3081 55.4333 85.7612C47.1129 87.595 45.3802 82.0944 45.3802 82.0944C44.0431 78.5294 42.0618 77.6131 42.0618 77.6131C39.3386 75.7287 42.2602 75.7287 42.2602 75.7287C45.281 75.9325 46.8661 78.8862 46.8661 78.8862C49.5398 83.5712 53.8482 82.2475 55.5814 81.4325C55.8288 79.4462 56.6216 78.0712 57.4635 77.3075C50.8273 76.5944 43.8453 73.9462 43.8453 62.1306C43.8453 58.7694 45.0331 56.0194 46.9151 53.8806C46.6182 53.1169 45.578 49.9587 47.2127 45.7319C47.2127 45.7319 49.7382 44.9169 55.4327 48.8894C57.8707 48.216 60.385 47.8735 62.9106 47.8706C65.4361 47.8706 68.0106 48.2275 70.388 48.8894C76.0831 44.9169 78.6086 45.7319 78.6086 45.7319C80.2433 49.9587 79.2024 53.1169 78.9055 53.8806C80.8371 56.0194 81.9759 58.7694 81.9759 62.1306C81.9759 73.9462 74.9939 76.5431 68.3082 77.3075C69.398 78.275 70.3384 80.1081 70.3384 83.0112C70.3384 87.1362 70.2894 90.4469 70.2894 91.465C70.2894 92.28 70.8343 93.2481 72.3196 92.9425C84.2045 88.8675 92.7716 77.3581 92.7716 63.7606C92.8206 46.75 79.4008 33 62.9106 33Z" fill="#C27E53"/>
</svg>
