<svg width="126" height="126" viewBox="0 0 126 126" fill="none" xmlns="http://www.w3.org/2000/svg">
<rect x="5" y="5" width="116" height="116" rx="58" fill="#302E30"/>
<rect x="5" y="5" width="116" height="116" rx="58" stroke="#C27E53" stroke-width="10"/>
<g clip-path="url(#clip0_136_44)">
<path d="M40.8224 33.3713C38.2053 35.0987 33.0489 41.6834 33 43.4103V46.2687C33 49.892 36.0468 53.0766 38.8132 53.0766C42.1348 53.0766 44.9024 50.0165 44.9026 46.3845C44.9026 50.0165 47.5753 53.0766 50.8972 53.0766C54.2194 53.0766 56.8062 50.0165 56.8062 46.3845C56.8062 50.0165 59.6481 53.0766 62.97 53.0766H63.0302C66.3524 53.0766 69.1943 50.0165 69.1943 46.3845C69.1943 50.0165 71.7814 53.0766 75.103 53.0766C78.4249 53.0766 81.0976 50.0165 81.0976 46.3845C81.0976 50.0165 83.8657 53.0766 87.1871 53.0766C89.9534 53.0766 93.0002 49.8926 93.0002 46.2687V43.4103C92.9513 41.6832 87.795 35.0981 85.1783 33.3713C77.0438 33.0538 71.4045 32.9989 62.9999 33.0003C54.5955 33.0011 43.1374 33.147 40.822 33.3713H40.8224ZM56.7642 51.3702C56.4466 51.9856 56.0531 52.5488 55.5953 53.0432C54.3414 54.4061 52.6226 55.2509 50.7278 55.2509C48.9044 55.2528 47.1531 54.4598 45.8499 53.0421C45.3956 52.5474 45.0503 52.0185 44.7341 51.4025L44.7327 51.4036C44.4168 52.0206 43.9766 52.5493 43.5213 53.0446C42.2176 54.4612 40.4665 55.2535 38.6435 55.2517C38.4151 55.2517 38.1774 55.1816 37.9852 55.1082C37.7182 58.1993 37.6054 61.1534 37.5656 63.3073L37.5651 63.3195C37.5602 64.4133 37.5553 65.3127 37.5504 66.5623C37.6018 73.0478 36.9726 87.5829 40.1228 91.1543C45.0046 92.4196 53.9876 92.9959 62.9996 92.9994H63.0011C72.0129 92.9959 80.9959 92.4196 85.8776 91.1543C89.0279 87.5827 88.3987 73.0475 88.4501 66.562C88.4447 65.3127 88.4403 64.4133 88.4354 63.3192L88.4347 63.307C88.3951 61.1526 88.2823 58.1987 88.0153 55.1077C87.8231 55.181 87.5857 55.2512 87.357 55.2512C85.534 55.253 83.7828 54.4606 82.4792 53.044C82.0239 52.5488 81.5837 52.0204 81.2676 51.4031L81.2661 51.402C80.9497 52.0179 80.6047 52.5471 80.1503 53.0416C78.8472 54.4591 77.096 55.252 75.2727 55.2501C73.3781 55.2501 71.6591 54.4047 70.4052 53.0421C69.9473 52.5477 69.5539 51.9846 69.2363 51.3691C68.9221 51.9839 68.5323 52.547 68.0782 53.0421C66.7748 54.4595 65.0233 55.2523 63.1999 55.2504C63.1339 55.2504 63.0679 55.2471 63.0018 55.2449H63.0001C62.9341 55.2471 62.8681 55.2504 62.8013 55.2504C60.9779 55.2524 59.2265 54.4597 57.923 53.0424C57.4689 52.5472 57.0791 51.9841 56.7649 51.3694L56.7642 51.3702ZM51.7548 58.5706L51.7543 58.5733H51.758C53.7418 58.5779 55.5041 58.5733 57.6878 61.2224C59.4063 61.0221 61.2021 60.9221 62.9994 60.9251H63.0009C64.7981 60.9223 66.5939 61.0221 68.3127 61.2224C70.4964 58.573 72.2587 58.5777 74.2425 58.5733H74.2459L74.2455 58.5706C75.1827 58.5706 78.9321 58.5706 81.5446 66.727L84.3508 77.9163C86.4303 86.2404 83.685 86.444 80.2606 86.4514C75.1822 86.2412 72.3704 82.1417 72.3704 78.0427C69.5593 78.5548 66.28 78.8109 63.0006 78.8111H62.9991C59.7195 78.8111 56.4402 78.5548 53.6293 78.0427C53.6293 82.1417 50.8173 86.2412 45.7392 86.4514C42.3148 86.444 39.5697 86.2407 41.6492 77.9163L44.4561 66.7273C47.0687 58.5709 50.818 58.5709 51.7553 58.5709L51.7548 58.5706ZM62.9994 64.9806V64.9822C62.9945 64.9876 57.6533 70.4403 56.693 72.3797L60.1907 72.2239V75.6146C60.1907 75.7733 61.5943 75.7086 62.9994 75.6363H63.0009C64.4054 75.7086 65.8093 75.7733 65.8093 75.6146V72.2239L69.307 72.3797C68.3465 70.4403 63.0006 64.9822 63.0006 64.9822V64.9806L62.9999 64.9811L62.9994 64.9806Z" fill="#C27E53"/>
</g>
<defs>
<clipPath id="clip0_136_44">
<rect width="60" height="60" fill="white" transform="translate(33 33)"/>
</clipPath>
</defs>
</svg>
