<svg width="126" height="126" viewBox="0 0 126 126" fill="none" xmlns="http://www.w3.org/2000/svg">
<rect x="5" y="5" width="116" height="116" rx="58" fill="#302E30"/>
<rect x="5" y="5" width="116" height="116" rx="58" stroke="#C27E53" stroke-width="10"/>
<g clip-path="url(#clip0_136_43)">
<path d="M84 33H42C37.0294 33 33 37.0294 33 42V84C33 88.9706 37.0294 93 42 93H84C88.9706 93 93 88.9706 93 84V42C93 37.0294 88.9706 33 84 33Z" fill="#C27E53"/>
<path d="M39.9141 64.6407L39.5625 67.2189L39.9141 69.797C39.9141 70.0314 40.2656 70.0314 40.2656 69.797L40.6172 67.2189L40.2656 64.6407C40.2656 64.2892 39.9141 64.2892 39.9141 64.6407ZM42.0234 63.0001C42.0234 62.6485 41.6719 62.6485 41.6719 63.0001L41.0859 67.2189L41.5547 71.3204C41.5547 71.672 42.0234 71.672 42.0234 71.3204L42.4922 67.2189L42.0234 63.0001ZM48.9375 59.4845L48.5859 67.2189L48.8203 71.9064C48.8203 72.8439 49.6406 72.8439 49.6406 71.9064L50.1094 67.2189L49.6406 59.4845C49.6406 58.8985 48.9375 58.8985 48.9375 59.4845ZM45.3047 62.0626L44.8359 67.2189L45.1875 71.9064C45.1875 72.6095 45.7734 72.6095 45.7734 71.9064L46.2422 67.2189L45.7734 62.0626C45.7734 61.711 45.3047 61.711 45.3047 62.0626ZM53.5078 71.9064L53.8594 67.2189L53.5078 56.9064C53.5078 56.2032 52.6875 56.2032 52.6875 56.9064L52.3359 67.2189L52.5703 71.9064C52.5703 72.8439 53.5078 72.8439 53.5078 71.9064ZM61.4766 71.9064L61.7109 67.2189L61.4766 55.2657C61.4766 54.4454 60.3047 54.4454 60.3047 55.2657L60.0703 67.2189L60.3047 71.9064C60.3047 72.8439 61.4766 72.8439 61.4766 71.9064ZM57.4922 71.9064L57.8438 67.2189L57.4922 56.7892C57.4922 56.086 56.4375 56.086 56.4375 56.7892L56.2031 67.2189L56.4375 71.9064C56.4375 72.8439 57.4922 72.8439 57.4922 71.9064ZM47.7656 71.9064L48.1172 67.2189L47.7656 62.4142C47.7656 62.0626 47.0625 62.0626 47.0625 62.4142L46.7109 67.2189L47.0625 71.9064C47.0625 72.7267 47.7656 72.7267 47.7656 71.9064ZM43.8984 71.9064L44.3672 67.2189L43.8984 62.1798C43.8984 61.8282 43.4297 61.8282 43.4297 62.1798L42.9609 67.2189L43.4297 71.9064C43.4297 72.3751 43.8984 72.3751 43.8984 71.9064ZM58.4297 57.2579L58.1953 67.2189L58.3125 71.9064C58.3125 72.8439 59.4844 72.8439 59.4844 71.9064L59.7188 67.2189L59.4844 57.2579C59.4844 56.4376 58.4297 56.4376 58.4297 57.2579ZM51.6328 71.9064L51.9844 67.2189L51.6328 57.7267C51.6328 57.0235 50.8125 57.0235 50.8125 57.7267L50.4609 67.2189L50.6953 71.9064C50.6953 72.8439 51.6328 72.8439 51.6328 71.9064ZM55.5 71.9064L55.8516 67.2189L55.5 56.5548C55.5 55.8517 54.5625 55.8517 54.5625 56.5548L54.2109 67.2189L54.5625 71.9064C54.5625 72.8439 55.5 72.8439 55.5 71.9064ZM78.4688 61.4767C77.8828 54.797 70.9688 50.461 64.6406 52.922C64.1719 53.1564 64.0547 53.2735 64.0547 53.6251V71.9064C64.0547 72.2579 64.2891 72.6095 64.6406 72.6095H80.6953C83.8594 72.6095 86.4375 70.0314 86.4375 66.8673C86.4375 62.5314 82.3359 60.1876 78.4688 61.4767ZM62.2969 54.211L61.9453 67.2189L62.2969 71.9064C62.2969 72.8439 63.4688 72.8439 63.4688 71.9064L63.8203 67.2189L63.4688 54.211C63.4688 53.3907 62.2969 53.3907 62.2969 54.211Z" fill="#302E30"/>
</g>
<defs>
<clipPath id="clip0_136_43">
<rect width="60" height="60" fill="white" transform="translate(33 33)"/>
</clipPath>
</defs>
</svg>
