<svg width="126" height="126" viewBox="0 0 126 126" fill="none" xmlns="http://www.w3.org/2000/svg">
<rect x="5" y="5" width="116" height="116" rx="58" fill="#302E30"/>
<rect x="5" y="5" width="116" height="116" rx="58" stroke="#C27E53" stroke-width="10"/>
<g clip-path="url(#clip0_136_52)">
<path d="M80.5388 41.7712H45.4612C38.5791 41.7712 33 47.3503 33 54.2325V71.7675C33 78.6497 38.5791 84.2288 45.4612 84.2288H80.5388C87.4209 84.2288 93 78.6497 93 71.7675V54.2325C93 47.3503 87.4209 41.7712 80.5388 41.7712ZM72.1113 63.8531L55.7044 71.6782C55.2672 71.8867 54.7623 71.568 54.7623 71.0837V54.9444C54.7623 54.4532 55.2805 54.1349 55.7186 54.3569L72.1255 62.6711C72.6133 62.9183 72.6049 63.6178 72.1113 63.8531Z" fill="#C27E53"/>
</g>
<defs>
<clipPath id="clip0_136_52">
<rect width="60" height="60" fill="white" transform="translate(33 33)"/>
</clipPath>
</defs>
</svg>
