<svg width="500" height="500" viewBox="0 0 500 500" fill="none" xmlns="http://www.w3.org/2000/svg">
<rect x="10" y="10" width="480" height="480" fill="#FFF59A"/>
<rect x="10" y="10" width="480" height="480" stroke="black" stroke-width="20"/>
<path d="M131.75 235V200H136.65L149 224.45L161.4 200H166.35V235H162.15V207.5L150.6 230.1H147.45L135.95 207.6V235H131.75ZM181.741 235.6C179.708 235.6 178.008 235.25 176.641 234.55C175.274 233.817 174.258 232.867 173.591 231.7C172.924 230.5 172.591 229.2 172.591 227.8C172.591 226.1 173.024 224.667 173.891 223.5C174.791 222.3 176.041 221.4 177.641 220.8C179.274 220.167 181.191 219.85 183.391 219.85H190.041C190.041 218.283 189.791 216.983 189.291 215.95C188.824 214.883 188.124 214.083 187.191 213.55C186.291 213.017 185.158 212.75 183.791 212.75C182.191 212.75 180.808 213.15 179.641 213.95C178.474 214.75 177.758 215.933 177.491 217.5H173.191C173.391 215.7 173.991 214.2 174.991 213C176.024 211.767 177.324 210.833 178.891 210.2C180.458 209.533 182.091 209.2 183.791 209.2C186.124 209.2 188.058 209.633 189.591 210.5C191.158 211.333 192.324 212.517 193.091 214.05C193.858 215.55 194.241 217.333 194.241 219.4V235H190.491L190.241 230.55C189.908 231.25 189.474 231.917 188.941 232.55C188.441 233.15 187.841 233.683 187.141 234.15C186.441 234.583 185.641 234.933 184.741 235.2C183.874 235.467 182.874 235.6 181.741 235.6ZM182.391 232.05C183.558 232.05 184.608 231.817 185.541 231.35C186.508 230.85 187.324 230.183 187.991 229.35C188.658 228.483 189.158 227.533 189.491 226.5C189.858 225.467 190.041 224.383 190.041 223.25V223.1H183.741C182.108 223.1 180.791 223.3 179.791 223.7C178.791 224.067 178.074 224.6 177.641 225.3C177.208 225.967 176.991 226.733 176.991 227.6C176.991 228.5 177.191 229.283 177.591 229.95C178.024 230.617 178.641 231.133 179.441 231.5C180.274 231.867 181.258 232.05 182.391 232.05ZM209.955 235C208.455 235 207.155 234.767 206.055 234.3C204.955 233.833 204.105 233.05 203.505 231.95C202.938 230.817 202.655 229.3 202.655 227.4V213.35H198.255V209.8H202.655L203.205 203.7H206.855V209.8H214.155V213.35H206.855V227.4C206.855 228.967 207.171 230.033 207.805 230.6C208.438 231.133 209.555 231.4 211.155 231.4H213.855V235H209.955ZM220.035 235V209.8H224.235V235H220.035ZM222.135 204.45C221.301 204.45 220.601 204.183 220.035 203.65C219.501 203.083 219.235 202.383 219.235 201.55C219.235 200.717 219.501 200.05 220.035 199.55C220.601 199.017 221.301 198.75 222.135 198.75C222.935 198.75 223.618 199.017 224.185 199.55C224.751 200.05 225.035 200.717 225.035 201.55C225.035 202.383 224.751 203.083 224.185 203.65C223.618 204.183 222.935 204.45 222.135 204.45ZM241.146 235.6C239.046 235.6 237.213 235.25 235.646 234.55C234.113 233.85 232.88 232.883 231.946 231.65C231.046 230.383 230.496 228.9 230.296 227.2H234.596C234.763 228.067 235.113 228.867 235.646 229.6C236.18 230.333 236.896 230.933 237.796 231.4C238.73 231.833 239.863 232.05 241.196 232.05C242.363 232.05 243.33 231.883 244.096 231.55C244.863 231.183 245.43 230.7 245.796 230.1C246.196 229.5 246.396 228.85 246.396 228.15C246.396 227.117 246.146 226.333 245.646 225.8C245.18 225.267 244.48 224.85 243.546 224.55C242.613 224.217 241.48 223.933 240.146 223.7C239.046 223.5 237.963 223.233 236.896 222.9C235.83 222.567 234.88 222.133 234.046 221.6C233.213 221.033 232.546 220.35 232.046 219.55C231.58 218.75 231.346 217.767 231.346 216.6C231.346 215.167 231.713 213.9 232.446 212.8C233.18 211.667 234.23 210.783 235.596 210.15C236.996 209.517 238.613 209.2 240.446 209.2C243.146 209.2 245.33 209.85 246.996 211.15C248.663 212.45 249.646 214.333 249.946 216.8H245.796C245.63 215.533 245.08 214.55 244.146 213.85C243.246 213.117 241.996 212.75 240.396 212.75C238.83 212.75 237.63 213.067 236.796 213.7C235.996 214.333 235.596 215.167 235.596 216.2C235.596 216.867 235.813 217.467 236.246 218C236.713 218.5 237.38 218.933 238.246 219.3C239.146 219.667 240.246 219.967 241.546 220.2C243.213 220.5 244.73 220.9 246.096 221.4C247.463 221.9 248.563 222.65 249.396 223.65C250.263 224.617 250.696 226 250.696 227.8C250.696 229.367 250.296 230.733 249.496 231.9C248.73 233.067 247.63 233.983 246.196 234.65C244.763 235.283 243.08 235.6 241.146 235.6ZM266.244 235.6C264.144 235.6 262.311 235.25 260.744 234.55C259.211 233.85 257.977 232.883 257.044 231.65C256.144 230.383 255.594 228.9 255.394 227.2H259.694C259.861 228.067 260.211 228.867 260.744 229.6C261.277 230.333 261.994 230.933 262.894 231.4C263.827 231.833 264.961 232.05 266.294 232.05C267.461 232.05 268.427 231.883 269.194 231.55C269.961 231.183 270.527 230.7 270.894 230.1C271.294 229.5 271.494 228.85 271.494 228.15C271.494 227.117 271.244 226.333 270.744 225.8C270.277 225.267 269.577 224.85 268.644 224.55C267.711 224.217 266.577 223.933 265.244 223.7C264.144 223.5 263.061 223.233 261.994 222.9C260.927 222.567 259.977 222.133 259.144 221.6C258.311 221.033 257.644 220.35 257.144 219.55C256.677 218.75 256.444 217.767 256.444 216.6C256.444 215.167 256.811 213.9 257.544 212.8C258.277 211.667 259.327 210.783 260.694 210.15C262.094 209.517 263.711 209.2 265.544 209.2C268.244 209.2 270.427 209.85 272.094 211.15C273.761 212.45 274.744 214.333 275.044 216.8H270.894C270.727 215.533 270.177 214.55 269.244 213.85C268.344 213.117 267.094 212.75 265.494 212.75C263.927 212.75 262.727 213.067 261.894 213.7C261.094 214.333 260.694 215.167 260.694 216.2C260.694 216.867 260.911 217.467 261.344 218C261.811 218.5 262.477 218.933 263.344 219.3C264.244 219.667 265.344 219.967 266.644 220.2C268.311 220.5 269.827 220.9 271.194 221.4C272.561 221.9 273.661 222.65 274.494 223.65C275.361 224.617 275.794 226 275.794 227.8C275.794 229.367 275.394 230.733 274.594 231.9C273.827 233.067 272.727 233.983 271.294 234.65C269.861 235.283 268.177 235.6 266.244 235.6ZM293.092 235.6C290.758 235.6 288.658 235.067 286.792 234C284.925 232.9 283.458 231.367 282.392 229.4C281.325 227.4 280.792 225.083 280.792 222.45C280.792 219.75 281.325 217.417 282.392 215.45C283.492 213.45 284.975 211.917 286.842 210.85C288.742 209.75 290.858 209.2 293.192 209.2C295.592 209.2 297.708 209.75 299.542 210.85C301.408 211.917 302.875 213.45 303.942 215.45C305.042 217.417 305.592 219.733 305.592 222.4C305.592 225.067 305.042 227.4 303.942 229.4C302.842 231.367 301.358 232.9 299.492 234C297.625 235.067 295.492 235.6 293.092 235.6ZM293.142 232C294.575 232 295.908 231.65 297.142 230.95C298.375 230.217 299.375 229.133 300.142 227.7C300.908 226.267 301.292 224.5 301.292 222.4C301.292 220.267 300.908 218.5 300.142 217.1C299.408 215.667 298.425 214.6 297.192 213.9C295.992 213.167 294.658 212.8 293.192 212.8C291.792 212.8 290.458 213.167 289.192 213.9C287.958 214.6 286.958 215.667 286.192 217.1C285.458 218.5 285.092 220.267 285.092 222.4C285.092 224.5 285.458 226.267 286.192 227.7C286.958 229.133 287.942 230.217 289.142 230.95C290.375 231.65 291.708 232 293.142 232ZM320.98 235.6C318.88 235.6 317.047 235.25 315.48 234.55C313.947 233.85 312.714 232.883 311.78 231.65C310.88 230.383 310.33 228.9 310.13 227.2H314.43C314.597 228.067 314.947 228.867 315.48 229.6C316.014 230.333 316.73 230.933 317.63 231.4C318.564 231.833 319.697 232.05 321.03 232.05C322.197 232.05 323.164 231.883 323.93 231.55C324.697 231.183 325.264 230.7 325.63 230.1C326.03 229.5 326.23 228.85 326.23 228.15C326.23 227.117 325.98 226.333 325.48 225.8C325.014 225.267 324.314 224.85 323.38 224.55C322.447 224.217 321.314 223.933 319.98 223.7C318.88 223.5 317.797 223.233 316.73 222.9C315.664 222.567 314.714 222.133 313.88 221.6C313.047 221.033 312.38 220.35 311.88 219.55C311.414 218.75 311.18 217.767 311.18 216.6C311.18 215.167 311.547 213.9 312.28 212.8C313.014 211.667 314.064 210.783 315.43 210.15C316.83 209.517 318.447 209.2 320.28 209.2C322.98 209.2 325.164 209.85 326.83 211.15C328.497 212.45 329.48 214.333 329.78 216.8H325.63C325.464 215.533 324.914 214.55 323.98 213.85C323.08 213.117 321.83 212.75 320.23 212.75C318.664 212.75 317.464 213.067 316.63 213.7C315.83 214.333 315.43 215.167 315.43 216.2C315.43 216.867 315.647 217.467 316.08 218C316.547 218.5 317.214 218.933 318.08 219.3C318.98 219.667 320.08 219.967 321.38 220.2C323.047 220.5 324.564 220.9 325.93 221.4C327.297 221.9 328.397 222.65 329.23 223.65C330.097 224.617 330.53 226 330.53 227.8C330.53 229.367 330.13 230.733 329.33 231.9C328.564 233.067 327.464 233.983 326.03 234.65C324.597 235.283 322.914 235.6 320.98 235.6ZM346.078 235.6C343.978 235.6 342.145 235.25 340.578 234.55C339.045 233.85 337.811 232.883 336.878 231.65C335.978 230.383 335.428 228.9 335.228 227.2H339.528C339.695 228.067 340.045 228.867 340.578 229.6C341.111 230.333 341.828 230.933 342.728 231.4C343.661 231.833 344.795 232.05 346.128 232.05C347.295 232.05 348.261 231.883 349.028 231.55C349.795 231.183 350.361 230.7 350.728 230.1C351.128 229.5 351.328 228.85 351.328 228.15C351.328 227.117 351.078 226.333 350.578 225.8C350.111 225.267 349.411 224.85 348.478 224.55C347.545 224.217 346.411 223.933 345.078 223.7C343.978 223.5 342.895 223.233 341.828 222.9C340.761 222.567 339.811 222.133 338.978 221.6C338.145 221.033 337.478 220.35 336.978 219.55C336.511 218.75 336.278 217.767 336.278 216.6C336.278 215.167 336.645 213.9 337.378 212.8C338.111 211.667 339.161 210.783 340.528 210.15C341.928 209.517 343.545 209.2 345.378 209.2C348.078 209.2 350.261 209.85 351.928 211.15C353.595 212.45 354.578 214.333 354.878 216.8H350.728C350.561 215.533 350.011 214.55 349.078 213.85C348.178 213.117 346.928 212.75 345.328 212.75C343.761 212.75 342.561 213.067 341.728 213.7C340.928 214.333 340.528 215.167 340.528 216.2C340.528 216.867 340.745 217.467 341.178 218C341.645 218.5 342.311 218.933 343.178 219.3C344.078 219.667 345.178 219.967 346.478 220.2C348.145 220.5 349.661 220.9 351.028 221.4C352.395 221.9 353.495 222.65 354.328 223.65C355.195 224.617 355.628 226 355.628 227.8C355.628 229.367 355.228 230.733 354.428 231.9C353.661 233.067 352.561 233.983 351.128 234.65C349.695 235.283 348.011 235.6 346.078 235.6ZM146.8 300.6C143.533 300.6 140.667 299.85 138.2 298.35C135.733 296.817 133.817 294.7 132.45 292C131.083 289.3 130.4 286.15 130.4 282.55C130.4 278.983 131.083 275.833 132.45 273.1C133.85 270.367 135.817 268.233 138.35 266.7C140.917 265.167 143.933 264.4 147.4 264.4C151.333 264.4 154.617 265.35 157.25 267.25C159.883 269.117 161.567 271.733 162.3 275.1H157.45C156.983 273 155.883 271.333 154.15 270.1C152.417 268.867 150.167 268.25 147.4 268.25C144.833 268.25 142.583 268.833 140.65 270C138.75 271.133 137.283 272.767 136.25 274.9C135.217 277.033 134.7 279.583 134.7 282.55C134.7 285.517 135.217 288.083 136.25 290.25C137.283 292.383 138.717 294.017 140.55 295.15C142.417 296.283 144.55 296.85 146.95 296.85C150.683 296.85 153.5 295.75 155.4 293.55C157.3 291.35 158.383 288.367 158.65 284.6H148.55V281.3H162.95V300H159.1L158.75 294.25C157.917 295.617 156.95 296.783 155.85 297.75C154.783 298.683 153.517 299.4 152.05 299.9C150.583 300.367 148.833 300.6 146.8 300.6ZM177.591 300.6C175.557 300.6 173.857 300.25 172.491 299.55C171.124 298.817 170.107 297.867 169.441 296.7C168.774 295.5 168.441 294.2 168.441 292.8C168.441 291.1 168.874 289.667 169.741 288.5C170.641 287.3 171.891 286.4 173.491 285.8C175.124 285.167 177.041 284.85 179.241 284.85H185.891C185.891 283.283 185.641 281.983 185.141 280.95C184.674 279.883 183.974 279.083 183.041 278.55C182.141 278.017 181.007 277.75 179.641 277.75C178.041 277.75 176.657 278.15 175.491 278.95C174.324 279.75 173.607 280.933 173.341 282.5H169.041C169.241 280.7 169.841 279.2 170.841 278C171.874 276.767 173.174 275.833 174.741 275.2C176.307 274.533 177.941 274.2 179.641 274.2C181.974 274.2 183.907 274.633 185.441 275.5C187.007 276.333 188.174 277.517 188.941 279.05C189.707 280.55 190.091 282.333 190.091 284.4V300H186.341L186.091 295.55C185.757 296.25 185.324 296.917 184.791 297.55C184.291 298.15 183.691 298.683 182.991 299.15C182.291 299.583 181.491 299.933 180.591 300.2C179.724 300.467 178.724 300.6 177.591 300.6ZM178.241 297.05C179.407 297.05 180.457 296.817 181.391 296.35C182.357 295.85 183.174 295.183 183.841 294.35C184.507 293.483 185.007 292.533 185.341 291.5C185.707 290.467 185.891 289.383 185.891 288.25V288.1H179.591C177.957 288.1 176.641 288.3 175.641 288.7C174.641 289.067 173.924 289.6 173.491 290.3C173.057 290.967 172.841 291.733 172.841 292.6C172.841 293.5 173.041 294.283 173.441 294.95C173.874 295.617 174.491 296.133 175.291 296.5C176.124 296.867 177.107 297.05 178.241 297.05ZM196.588 300V274.8H200.388L200.638 278.4C201.438 277.1 202.505 276.083 203.838 275.35C205.205 274.583 206.688 274.2 208.288 274.2C209.588 274.2 210.755 274.383 211.788 274.75C212.855 275.083 213.788 275.617 214.588 276.35C215.388 277.05 216.038 277.95 216.538 279.05C217.405 277.517 218.588 276.333 220.088 275.5C221.621 274.633 223.255 274.2 224.988 274.2C226.921 274.2 228.605 274.6 230.038 275.4C231.505 276.167 232.621 277.35 233.388 278.95C234.188 280.517 234.588 282.517 234.588 284.95V300H230.438V285.4C230.438 282.867 229.921 280.967 228.888 279.7C227.855 278.433 226.405 277.8 224.538 277.8C223.238 277.8 222.071 278.15 221.038 278.85C220.005 279.517 219.188 280.5 218.588 281.8C217.988 283.1 217.688 284.7 217.688 286.6V300H213.488V285.4C213.488 282.867 212.971 280.967 211.938 279.7C210.905 278.433 209.438 277.8 207.538 277.8C206.271 277.8 205.121 278.15 204.088 278.85C203.088 279.517 202.288 280.5 201.688 281.8C201.088 283.1 200.788 284.7 200.788 286.6V300H196.588ZM252.169 300.6C249.802 300.6 247.702 300.05 245.869 298.95C244.069 297.85 242.652 296.317 241.619 294.35C240.586 292.35 240.069 290.033 240.069 287.4C240.069 284.733 240.569 282.417 241.569 280.45C242.602 278.483 244.036 276.95 245.869 275.85C247.736 274.75 249.869 274.2 252.269 274.2C254.736 274.2 256.819 274.75 258.519 275.85C260.252 276.95 261.569 278.4 262.469 280.2C263.402 281.967 263.869 283.917 263.869 286.05C263.869 286.383 263.869 286.733 263.869 287.1C263.869 287.467 263.852 287.883 263.819 288.35H243.219V285.1H259.769C259.669 282.8 258.902 281 257.469 279.7C256.069 278.4 254.302 277.75 252.169 277.75C250.736 277.75 249.402 278.083 248.169 278.75C246.969 279.383 246.002 280.333 245.269 281.6C244.536 282.833 244.169 284.383 244.169 286.25V287.65C244.169 289.717 244.536 291.45 245.269 292.85C246.036 294.25 247.019 295.3 248.219 296C249.452 296.7 250.769 297.05 252.169 297.05C253.936 297.05 255.386 296.667 256.519 295.9C257.686 295.1 258.519 294.033 259.019 292.7H263.169C262.769 294.2 262.069 295.55 261.069 296.75C260.069 297.95 258.819 298.9 257.319 299.6C255.852 300.267 254.136 300.6 252.169 300.6ZM269.787 300V265H280.087C284.187 265 287.554 265.717 290.187 267.15C292.854 268.55 294.82 270.567 296.087 273.2C297.387 275.8 298.037 278.933 298.037 282.6C298.037 286.2 297.387 289.3 296.087 291.9C294.82 294.5 292.854 296.5 290.187 297.9C287.554 299.3 284.187 300 280.087 300H269.787ZM273.987 296.5H279.987C283.387 296.5 286.087 295.95 288.087 294.85C290.087 293.717 291.52 292.117 292.387 290.05C293.254 287.95 293.687 285.467 293.687 282.6C293.687 279.667 293.254 277.15 292.387 275.05C291.52 272.95 290.087 271.333 288.087 270.2C286.087 269.067 283.387 268.5 279.987 268.5H273.987V296.5ZM315.011 300.6C312.644 300.6 310.544 300.05 308.711 298.95C306.911 297.85 305.494 296.317 304.461 294.35C303.428 292.35 302.911 290.033 302.911 287.4C302.911 284.733 303.411 282.417 304.411 280.45C305.444 278.483 306.878 276.95 308.711 275.85C310.578 274.75 312.711 274.2 315.111 274.2C317.578 274.2 319.661 274.75 321.361 275.85C323.094 276.95 324.411 278.4 325.311 280.2C326.244 281.967 326.711 283.917 326.711 286.05C326.711 286.383 326.711 286.733 326.711 287.1C326.711 287.467 326.694 287.883 326.661 288.35H306.061V285.1H322.611C322.511 282.8 321.744 281 320.311 279.7C318.911 278.4 317.144 277.75 315.011 277.75C313.578 277.75 312.244 278.083 311.011 278.75C309.811 279.383 308.844 280.333 308.111 281.6C307.378 282.833 307.011 284.383 307.011 286.25V287.65C307.011 289.717 307.378 291.45 308.111 292.85C308.878 294.25 309.861 295.3 311.061 296C312.294 296.7 313.611 297.05 315.011 297.05C316.778 297.05 318.228 296.667 319.361 295.9C320.528 295.1 321.361 294.033 321.861 292.7H326.011C325.611 294.2 324.911 295.55 323.911 296.75C322.911 297.95 321.661 298.9 320.161 299.6C318.694 300.267 316.978 300.6 315.011 300.6ZM338.652 300L329.102 274.8H333.502L341.102 295.95L348.752 274.8H353.052L343.502 300H338.652Z" fill="#948D54"/>
</svg>
