<svg width="80" height="80" viewBox="0 0 80 80" fill="none" xmlns="http://www.w3.org/2000/svg">
<g clip-path="url(#clip0_105_2)">
<path d="M10.4299 0.494983C6.94035 2.79817 0.0652074 11.5778 0 13.8803V17.6915C0 22.5226 4.06242 26.7688 7.75088 26.7688C12.1798 26.7688 15.8698 22.6886 15.8702 17.8459C15.8702 22.6886 19.4338 26.7688 23.863 26.7688C28.2925 26.7688 31.7417 22.6886 31.7417 17.8459C31.7417 22.6886 35.5309 26.7688 39.9601 26.7688H40.0403C44.4698 26.7688 48.259 22.6886 48.259 17.8459C48.259 22.6886 51.7085 26.7688 56.1374 26.7688C60.5666 26.7688 64.1302 22.6886 64.1302 17.8459C64.1302 22.6886 67.8209 26.7688 72.2495 26.7688C75.9379 26.7688 80.0003 22.5234 80.0003 17.6915V13.8803C79.9351 11.5775 73.06 2.79745 69.5711 0.494983C58.7251 0.0716736 51.2061 -0.00153561 39.9998 0.0002765C28.794 0.00136377 13.5165 0.195984 10.4293 0.494983H10.4299ZM31.6856 24.4935C31.2621 25.3141 30.7375 26.0649 30.1271 26.7242C28.4552 28.5414 26.1635 29.6678 23.637 29.6678C21.2059 29.6703 18.8708 28.6129 17.1332 26.7227C16.5275 26.0631 16.0671 25.3579 15.6455 24.5366L15.6436 24.5381C15.2223 25.3608 14.6355 26.0657 14.0284 26.726C12.2902 28.6148 9.95536 29.6713 7.52461 29.6689C7.22009 29.6689 6.90318 29.5754 6.64691 29.4775C6.29088 33.599 6.14058 37.5378 6.08744 40.4096L6.08678 40.4259C6.08026 41.8843 6.07374 43.0836 6.06722 44.7496C6.13569 53.397 5.2968 72.7772 9.49713 77.539C16.0061 79.2261 27.9834 79.9944 39.9995 79.9991H40.0015C52.0172 79.9944 63.9945 79.2261 70.5035 77.539C74.7039 72.7768 73.865 53.3966 73.9334 44.7492C73.9263 43.0836 73.9204 41.8843 73.9139 40.4256L73.9129 40.4092C73.8601 37.5367 73.7098 33.5982 73.3537 29.4768C73.0975 29.5746 72.7809 29.6681 72.4761 29.6681C70.0453 29.6706 67.7105 28.6141 65.9723 26.7253C65.3652 26.0649 64.7783 25.3604 64.3568 24.5373L64.3548 24.5359C63.9329 25.3571 63.4729 26.0628 62.8671 26.722C61.1296 28.6121 58.7946 29.6693 56.3636 29.6667C53.8375 29.6667 51.5455 28.5396 49.8735 26.7227C49.2631 26.0635 48.7386 25.3127 48.3151 24.492C47.8961 25.3118 47.3764 26.0625 46.771 26.7227C45.033 28.6126 42.6978 29.6697 40.2665 29.6671C40.1785 29.6671 40.0905 29.6627 40.0024 29.6598H40.0002C39.9121 29.6627 39.8241 29.6671 39.7351 29.6671C37.3039 29.6698 34.9687 28.6128 33.2307 26.7231C32.6252 26.0629 32.1055 25.3121 31.6865 24.4924L31.6856 24.4935ZM25.0064 34.094L25.0057 34.0977H25.0106C27.6558 34.1038 30.0055 34.0977 32.917 37.6298C35.2084 37.3627 37.6028 37.2294 39.9992 37.2333H40.0011C42.3975 37.2297 44.7919 37.3627 47.0836 37.6298C49.9952 34.0973 52.3449 34.1035 54.99 34.0977H54.9946L54.994 34.094C56.2437 34.094 61.2428 34.094 64.7262 44.9692L68.4678 59.8883C71.2404 70.9872 67.58 71.2586 63.0141 71.2684C56.243 70.9882 52.4939 65.5222 52.4939 60.0569C48.7458 60.7397 44.3733 61.0811 40.0008 61.0814H39.9989C35.6261 61.0814 31.2536 60.7397 27.5058 60.0569C27.5058 65.5222 23.7564 70.9882 16.9855 71.2684C12.4197 71.2586 8.75963 70.9875 11.5323 59.8883L15.2748 44.9696C18.7582 34.0944 23.7573 34.0944 25.007 34.0944L25.0064 34.094ZM39.9992 42.6407V42.6429C39.9927 42.6501 32.871 49.9203 31.5907 52.5062L36.2543 52.2985V56.8194C36.2543 57.031 38.1258 56.9448 39.9992 56.8483H40.0011C41.8739 56.9448 43.7457 57.031 43.7457 56.8194V52.2985L48.4093 52.5062C47.1286 49.9203 40.0008 42.6429 40.0008 42.6429V42.6407L39.9998 42.6414L39.9992 42.6407Z" fill="#726759"/>
</g>
<defs>
<clipPath id="clip0_105_2">
<rect width="80" height="80" fill="white"/>
</clipPath>
</defs>
</svg>
