<svg width="500" height="500" viewBox="0 0 500 500" fill="none" xmlns="http://www.w3.org/2000/svg">
<g clip-path="url(#clip0_71_2)">
<rect width="500" height="500" fill="black"/>
<mask id="path-1-outside-1_71_2" maskUnits="userSpaceOnUse" x="152" y="193" width="196" height="102" fill="black">
<rect fill="white" x="152" y="193" width="196" height="102"/>
<path d="M196.504 280.348L157.012 247.066L196.504 213.844L205.645 223.102L176.582 246.949L205.645 271.09L196.504 280.348ZM235.117 291.598H221.23L262.129 196.207H276.074L235.117 291.598ZM303.496 213.844L342.988 247.066L303.496 280.348L294.414 271.09L323.418 247.184L294.414 223.102L303.496 213.844Z"/>
</mask>
<path d="M196.504 280.348L157.012 247.066L196.504 213.844L205.645 223.102L176.582 246.949L205.645 271.09L196.504 280.348ZM235.117 291.598H221.23L262.129 196.207H276.074L235.117 291.598ZM303.496 213.844L342.988 247.066L303.496 280.348L294.414 271.09L323.418 247.184L294.414 223.102L303.496 213.844Z" fill="#00FF00"/>
<path d="M196.504 280.348L194.571 282.642L196.691 284.428L198.639 282.455L196.504 280.348ZM157.012 247.066L155.08 244.771L152.354 247.064L155.078 249.36L157.012 247.066ZM196.504 213.844L198.639 211.736L196.692 209.765L194.573 211.548L196.504 213.844ZM205.645 223.102L207.548 225.421L210.09 223.334L207.779 220.994L205.645 223.102ZM176.582 246.949L174.679 244.63L171.87 246.935L174.665 249.257L176.582 246.949ZM205.645 271.09L207.779 273.198L210.076 270.871L207.561 268.782L205.645 271.09ZM198.437 278.054L158.945 244.772L155.078 249.36L194.571 282.642L198.437 278.054ZM158.943 249.362L198.435 216.139L194.573 211.548L155.08 244.771L158.943 249.362ZM194.369 215.952L203.51 225.209L207.779 220.994L198.639 211.736L194.369 215.952ZM203.742 220.782L174.679 244.63L178.485 249.268L207.548 225.421L203.742 220.782ZM174.665 249.257L203.728 273.398L207.561 268.782L178.499 244.642L174.665 249.257ZM203.51 268.982L194.369 278.24L198.639 282.455L207.779 273.198L203.51 268.982ZM235.117 291.598V294.598H237.094L237.874 292.781L235.117 291.598ZM221.23 291.598L218.473 290.415L216.68 294.598H221.23V291.598ZM262.129 196.207V193.207H260.151L259.372 195.025L262.129 196.207ZM276.074 196.207L278.831 197.391L280.627 193.207H276.074V196.207ZM235.117 288.598H221.23V294.598H235.117V288.598ZM223.988 292.78L264.886 197.389L259.372 195.025L218.473 290.415L223.988 292.78ZM262.129 199.207H276.074V193.207H262.129V199.207ZM273.318 195.023L232.361 290.414L237.874 292.781L278.831 197.391L273.318 195.023ZM303.496 213.844L305.427 211.548L303.301 209.759L301.355 211.743L303.496 213.844ZM342.988 247.066L344.922 249.36L347.646 247.064L344.92 244.771L342.988 247.066ZM303.496 280.348L301.355 282.449L303.302 284.434L305.429 282.642L303.496 280.348ZM294.414 271.09L292.506 268.775L289.982 270.856L292.273 273.191L294.414 271.09ZM323.418 247.184L325.326 249.499L328.124 247.192L325.334 244.875L323.418 247.184ZM294.414 223.102L292.273 221.001L289.99 223.327L292.498 225.41L294.414 223.102ZM301.565 216.139L341.057 249.362L344.92 244.771L305.427 211.548L301.565 216.139ZM341.055 244.772L301.563 278.054L305.429 282.642L344.922 249.36L341.055 244.772ZM305.638 278.247L296.556 268.989L292.273 273.191L301.355 282.449L305.638 278.247ZM296.322 273.405L325.326 249.499L321.51 244.869L292.506 268.775L296.322 273.405ZM325.334 244.875L296.33 220.793L292.498 225.41L321.502 249.492L325.334 244.875ZM296.556 225.202L305.638 215.945L301.355 211.743L292.273 221.001L296.556 225.202Z" fill="#00FF00" mask="url(#path-1-outside-1_71_2)"/>
<path d="M176.457 357.15V379.95C176.457 381.483 176.29 382.383 175.957 382.65C175.657 382.883 174.624 383 172.857 383H171.757V347H172.907C174.507 347 175.507 347.117 175.907 347.35C176.307 347.583 176.824 348.383 177.457 349.75L182.907 362.2H183.907L190.607 347H191.357C193.157 347 194.207 347.133 194.507 347.4C194.84 347.633 195.007 348.517 195.007 350.05V383H193.907C192.107 383 191.057 382.883 190.757 382.65C190.457 382.383 190.307 381.483 190.307 379.95L190.257 357.2H190.107L186.407 366.15L185.057 368.65H181.757L180.407 366.15L176.607 357.15H176.457ZM208.99 362.35L209.04 361C209.04 360.533 208.99 360.283 208.89 360.25C208.79 360.217 208.673 360.15 208.54 360.05C208.407 359.917 208.223 359.883 207.99 359.95C207.79 360.017 207.54 360.033 207.24 360L204.54 360.35C203.84 360.45 203.24 360.5 202.74 360.5C202.24 360.5 201.857 360.383 201.59 360.15C201.323 359.917 201.057 358.85 200.79 356.95L206.59 355.8C208.957 355.8 210.44 355.983 211.04 356.35C211.64 356.683 212.073 356.967 212.34 357.2C212.607 357.433 212.79 357.9 212.89 358.6C213.057 359.467 213.14 360.833 213.14 362.7V383C211.207 383 209.99 382.9 209.49 382.7C208.99 382.5 208.723 382.017 208.69 381.25L204.54 383.35C203.607 383.35 202.907 383.333 202.44 383.3C202.007 383.3 201.557 383.167 201.09 382.9C200.657 382.633 200.357 382.367 200.19 382.1C200.057 381.833 199.923 381.267 199.79 380.4C199.623 379.367 199.54 377.25 199.54 374.05V370.6C199.54 366.833 202.823 364.883 209.39 364.75L208.99 363.55V362.35ZM204.24 379.1C204.273 379.1 205.957 378.467 209.29 377.2L208.79 375.75V369.8L209.19 368.65C207.823 368.683 206.623 368.817 205.59 369.05C204.557 369.283 204.04 369.6 204.04 370L203.99 376.6C203.99 378.267 204.073 379.1 204.24 379.1ZM227.755 356.15C227.755 358.05 227.572 359.233 227.205 359.7C226.872 360.133 225.855 360.35 224.155 360.35H222.705L223.155 361.6V371.5C223.155 374.333 223.255 376.283 223.455 377.35C223.689 378.383 224.155 378.967 224.855 379.1H228.655V383L224.605 383.25C222.939 383.25 221.839 383.083 221.305 382.75C220.772 382.417 220.372 382.15 220.105 381.95C219.839 381.75 219.605 381.35 219.405 380.75C219.205 380.117 219.055 379.617 218.955 379.25C218.855 378.85 218.772 378.15 218.705 377.15C218.672 376.117 218.655 375.267 218.655 374.6V361.6L219.055 360.35H216.405V356.15H219.055L218.655 354.3V351.75C220.889 351.75 222.189 351.867 222.555 352.1C222.955 352.3 223.155 353.083 223.155 354.45L222.755 356.15H227.755ZM235.413 353.6C234.613 353.6 233.913 353.3 233.313 352.7C232.713 352.067 232.413 351.35 232.413 350.55C232.413 349.717 232.713 349.017 233.313 348.45C233.913 347.883 234.613 347.6 235.413 347.6C236.213 347.6 236.913 347.883 237.513 348.45C238.113 349.017 238.413 349.717 238.413 350.55C238.413 351.35 238.113 352.067 237.513 352.7C236.913 353.3 236.213 353.6 235.413 353.6ZM233.213 380.2V356.15C235.446 356.15 236.746 356.283 237.113 356.55C237.48 356.783 237.663 357.65 237.663 359.15V383.2C235.43 383.2 234.13 383.083 233.763 382.85C233.396 382.583 233.213 381.7 233.213 380.2ZM242.987 378.6C245.987 378.933 247.97 379.1 248.937 379.1C249.903 379.1 250.537 379.017 250.837 378.85C251.137 378.683 251.353 378.517 251.487 378.35C251.653 378.15 251.77 377.8 251.837 377.3C251.937 376.6 251.987 375.717 251.987 374.65C251.987 373.85 250.487 372.317 247.487 370.05C246.353 369.217 245.303 368.183 244.337 366.95C243.403 365.683 242.937 364.5 242.937 363.4C242.937 362.3 242.953 361.483 242.987 360.95C243.02 360.417 243.153 359.767 243.387 359C243.653 358.2 244.02 357.617 244.487 357.25C245.787 356.283 247.67 355.8 250.137 355.8L255.987 357C255.72 358.933 255.453 360.017 255.187 360.25C254.953 360.45 254.57 360.55 254.037 360.55C253.537 360.55 252.937 360.5 252.237 360.4L250.287 360.05C248.92 360.05 248.087 360.35 247.787 360.95C247.553 361.417 247.437 362.033 247.437 362.8C247.437 363.567 247.92 364.383 248.887 365.25C249.853 366.117 250.92 366.95 252.087 367.75C253.287 368.55 254.37 369.55 255.337 370.75C256.303 371.917 256.787 373.083 256.787 374.25C256.787 375.417 256.77 376.3 256.737 376.9C256.703 377.5 256.553 378.283 256.287 379.25C256.053 380.217 255.703 380.95 255.237 381.45C254.77 381.95 254.053 382.4 253.087 382.8C252.153 383.167 251.17 383.35 250.137 383.35C249.137 383.35 248.27 383.3 247.537 383.2C246.837 383.133 246.003 383.017 245.037 382.85C244.103 382.683 243.42 382.567 242.987 382.5V378.6ZM260.321 378.6C263.321 378.933 265.304 379.1 266.271 379.1C267.237 379.1 267.871 379.017 268.171 378.85C268.471 378.683 268.687 378.517 268.821 378.35C268.987 378.15 269.104 377.8 269.171 377.3C269.271 376.6 269.321 375.717 269.321 374.65C269.321 373.85 267.821 372.317 264.821 370.05C263.687 369.217 262.637 368.183 261.671 366.95C260.737 365.683 260.271 364.5 260.271 363.4C260.271 362.3 260.287 361.483 260.321 360.95C260.354 360.417 260.487 359.767 260.721 359C260.987 358.2 261.354 357.617 261.821 357.25C263.121 356.283 265.004 355.8 267.471 355.8L273.321 357C273.054 358.933 272.787 360.017 272.521 360.25C272.287 360.45 271.904 360.55 271.371 360.55C270.871 360.55 270.271 360.5 269.571 360.4L267.621 360.05C266.254 360.05 265.421 360.35 265.121 360.95C264.887 361.417 264.771 362.033 264.771 362.8C264.771 363.567 265.254 364.383 266.221 365.25C267.187 366.117 268.254 366.95 269.421 367.75C270.621 368.55 271.704 369.55 272.671 370.75C273.637 371.917 274.121 373.083 274.121 374.25C274.121 375.417 274.104 376.3 274.071 376.9C274.037 377.5 273.887 378.283 273.621 379.25C273.387 380.217 273.037 380.95 272.571 381.45C272.104 381.95 271.387 382.4 270.421 382.8C269.487 383.167 268.504 383.35 267.471 383.35C266.471 383.35 265.604 383.3 264.871 383.2C264.171 383.133 263.337 383.017 262.371 382.85C261.437 382.683 260.754 382.567 260.321 382.5V378.6ZM278.104 369.7C278.104 369.7 278.104 368.667 278.104 366.6C278.104 364.533 278.154 363.15 278.254 362.45C278.354 361.75 278.471 361.067 278.604 360.4C278.738 359.7 278.888 359.2 279.054 358.9C279.254 358.567 279.488 358.183 279.754 357.75C280.054 357.317 280.388 357.017 280.754 356.85C281.121 356.683 281.554 356.5 282.054 356.3C282.888 355.967 284.104 355.8 285.704 355.8C287.304 355.8 288.588 356 289.554 356.4C290.554 356.767 291.321 357.2 291.854 357.7C292.421 358.167 292.821 359.1 293.054 360.5C293.288 361.867 293.421 363.083 293.454 364.15C293.521 365.217 293.554 366.667 293.554 368.5V372.25C293.554 374.383 293.504 375.8 293.404 376.5C293.304 377.2 293.188 377.9 293.054 378.6C292.921 379.3 292.754 379.817 292.554 380.15C292.388 380.45 292.154 380.833 291.854 381.3C291.588 381.733 291.254 382.05 290.854 382.25C290.488 382.417 290.054 382.6 289.554 382.8C288.754 383.167 287.688 383.35 286.354 383.35C285.021 383.35 283.988 383.3 283.254 383.2C282.554 383.1 281.921 382.883 281.354 382.55C280.821 382.217 280.371 381.9 280.004 381.6C279.638 381.3 279.321 380.8 279.054 380.1C278.821 379.367 278.638 378.75 278.504 378.25C278.371 377.75 278.288 376.933 278.254 375.8C278.154 373.9 278.104 371.867 278.104 369.7ZM285.804 360.05C284.304 360.05 283.388 360.667 283.054 361.9C282.721 363.1 282.554 365.2 282.554 368.2C282.554 371.167 282.571 373.1 282.604 374C282.638 374.867 282.754 375.8 282.954 376.8C283.154 377.767 283.471 378.4 283.904 378.7C284.371 378.967 285.004 379.1 285.804 379.1C287.304 379.1 288.221 378.467 288.554 377.2C288.888 375.933 289.054 373.8 289.054 370.8C289.054 367.8 289.038 365.867 289.004 365C288.971 364.133 288.854 363.233 288.654 362.3C288.454 361.367 288.121 360.767 287.654 360.5C287.221 360.2 286.604 360.05 285.804 360.05ZM297.625 378.6C300.625 378.933 302.609 379.1 303.575 379.1C304.542 379.1 305.175 379.017 305.475 378.85C305.775 378.683 305.992 378.517 306.125 378.35C306.292 378.15 306.409 377.8 306.475 377.3C306.575 376.6 306.625 375.717 306.625 374.65C306.625 373.85 305.125 372.317 302.125 370.05C300.992 369.217 299.942 368.183 298.975 366.95C298.042 365.683 297.575 364.5 297.575 363.4C297.575 362.3 297.592 361.483 297.625 360.95C297.659 360.417 297.792 359.767 298.025 359C298.292 358.2 298.659 357.617 299.125 357.25C300.425 356.283 302.309 355.8 304.775 355.8L310.625 357C310.359 358.933 310.092 360.017 309.825 360.25C309.592 360.45 309.209 360.55 308.675 360.55C308.175 360.55 307.575 360.5 306.875 360.4L304.925 360.05C303.559 360.05 302.725 360.35 302.425 360.95C302.192 361.417 302.075 362.033 302.075 362.8C302.075 363.567 302.559 364.383 303.525 365.25C304.492 366.117 305.559 366.95 306.725 367.75C307.925 368.55 309.009 369.55 309.975 370.75C310.942 371.917 311.425 373.083 311.425 374.25C311.425 375.417 311.409 376.3 311.375 376.9C311.342 377.5 311.192 378.283 310.925 379.25C310.692 380.217 310.342 380.95 309.875 381.45C309.409 381.95 308.692 382.4 307.725 382.8C306.792 383.167 305.809 383.35 304.775 383.35C303.775 383.35 302.909 383.3 302.175 383.2C301.475 383.133 300.642 383.017 299.675 382.85C298.742 382.683 298.059 382.567 297.625 382.5V378.6ZM314.959 378.6C317.959 378.933 319.943 379.1 320.909 379.1C321.876 379.1 322.509 379.017 322.809 378.85C323.109 378.683 323.326 378.517 323.459 378.35C323.626 378.15 323.743 377.8 323.809 377.3C323.909 376.6 323.959 375.717 323.959 374.65C323.959 373.85 322.459 372.317 319.459 370.05C318.326 369.217 317.276 368.183 316.309 366.95C315.376 365.683 314.909 364.5 314.909 363.4C314.909 362.3 314.926 361.483 314.959 360.95C314.993 360.417 315.126 359.767 315.359 359C315.626 358.2 315.993 357.617 316.459 357.25C317.759 356.283 319.643 355.8 322.109 355.8L327.959 357C327.693 358.933 327.426 360.017 327.159 360.25C326.926 360.45 326.543 360.55 326.009 360.55C325.509 360.55 324.909 360.5 324.209 360.4L322.259 360.05C320.893 360.05 320.059 360.35 319.759 360.95C319.526 361.417 319.409 362.033 319.409 362.8C319.409 363.567 319.893 364.383 320.859 365.25C321.826 366.117 322.893 366.95 324.059 367.75C325.259 368.55 326.343 369.55 327.309 370.75C328.276 371.917 328.759 373.083 328.759 374.25C328.759 375.417 328.743 376.3 328.709 376.9C328.676 377.5 328.526 378.283 328.259 379.25C328.026 380.217 327.676 380.95 327.209 381.45C326.743 381.95 326.026 382.4 325.059 382.8C324.126 383.167 323.143 383.35 322.109 383.35C321.109 383.35 320.243 383.3 319.509 383.2C318.809 383.133 317.976 383.017 317.009 382.85C316.076 382.683 315.393 382.567 314.959 382.5V378.6ZM181.773 418.85V424.6C181.773 426.933 181.823 428.5 181.923 429.3C182.057 430.1 182.173 430.9 182.273 431.7C182.407 432.5 182.573 433.1 182.773 433.5C183.007 433.9 183.273 434.317 183.573 434.75C183.873 435.183 184.223 435.483 184.623 435.65C185.023 435.817 185.49 435.9 186.023 435.9C186.823 435.9 188.223 435.733 190.223 435.4L189.823 434.15V424.55C189.823 422.717 189.94 421.65 190.173 421.35C190.44 421.05 191.323 420.9 192.823 420.9H194.473V439.5C193.907 439.567 193.023 439.683 191.823 439.85C189.49 440.183 187.69 440.35 186.423 440.35C185.157 440.35 184.123 440.233 183.323 440C182.523 439.8 181.823 439.55 181.223 439.25C180.657 438.917 180.14 438.433 179.673 437.8C179.24 437.133 178.873 436.533 178.573 436C178.273 435.467 178.023 434.7 177.823 433.7C177.623 432.667 177.473 431.817 177.373 431.15C177.273 430.483 177.19 429.5 177.123 428.2C177.057 426.867 177.023 425.833 177.023 425.1V421.7C177.023 419 177.04 417.017 177.073 415.75C177.14 414.45 177.323 412.85 177.623 410.95C177.923 409.017 178.373 407.617 178.973 406.75C179.573 405.883 180.457 405.117 181.623 404.45C182.823 403.75 184.29 403.4 186.023 403.4L193.473 405C193.207 406.9 192.757 408.017 192.123 408.35C191.823 408.483 191.34 408.55 190.673 408.55C190.04 408.55 189.123 408.433 187.923 408.2L186.023 407.85C184.923 407.85 184.107 408.233 183.573 409C183.273 409.4 183.007 409.8 182.773 410.2C182.573 410.567 182.407 411.15 182.273 411.95C182.173 412.717 182.09 413.367 182.023 413.9C181.857 414.867 181.773 416.517 181.773 418.85ZM208.673 419.35L208.723 418C208.723 417.533 208.673 417.283 208.573 417.25C208.473 417.217 208.356 417.15 208.223 417.05C208.089 416.917 207.906 416.883 207.673 416.95C207.473 417.017 207.223 417.033 206.923 417L204.223 417.35C203.523 417.45 202.923 417.5 202.423 417.5C201.923 417.5 201.539 417.383 201.273 417.15C201.006 416.917 200.739 415.85 200.473 413.95L206.273 412.8C208.639 412.8 210.123 412.983 210.723 413.35C211.323 413.683 211.756 413.967 212.023 414.2C212.289 414.433 212.473 414.9 212.573 415.6C212.739 416.467 212.823 417.833 212.823 419.7V440C210.889 440 209.673 439.9 209.173 439.7C208.673 439.5 208.406 439.017 208.373 438.25L204.223 440.35C203.289 440.35 202.589 440.333 202.123 440.3C201.689 440.3 201.239 440.167 200.773 439.9C200.339 439.633 200.039 439.367 199.873 439.1C199.739 438.833 199.606 438.267 199.473 437.4C199.306 436.367 199.223 434.25 199.223 431.05V427.6C199.223 423.833 202.506 421.883 209.073 421.75L208.673 420.55V419.35ZM203.923 436.1C203.956 436.1 205.639 435.467 208.973 434.2L208.473 432.75V426.8L208.873 425.65C207.506 425.683 206.306 425.817 205.273 426.05C204.239 426.283 203.723 426.6 203.723 427L203.673 433.6C203.673 435.267 203.756 436.1 203.923 436.1ZM232.788 440C230.555 440 229.255 439.883 228.888 439.65C228.521 439.383 228.338 438.5 228.338 437L228.288 424.75V422.8C228.288 422.033 228.288 421.45 228.288 421.05C228.321 420.65 228.321 420.2 228.288 419.7C228.255 419.167 228.188 418.783 228.088 418.55C228.021 418.283 227.921 418.017 227.788 417.75C227.555 417.283 227.055 417.05 226.288 417.05L221.838 418.35L222.288 419.8V440C220.055 440 218.755 439.883 218.388 439.65C218.021 439.383 217.838 438.5 217.838 437V413.15C219.671 413.15 220.838 413.2 221.338 413.3C221.838 413.4 222.138 413.7 222.238 414.2L225.988 412.8C227.455 412.8 228.571 412.933 229.338 413.2C230.105 413.433 230.788 413.9 231.388 414.6L235.988 412.8C237.955 412.8 239.271 412.95 239.938 413.25C240.638 413.517 241.138 413.75 241.438 413.95C241.771 414.15 242.055 414.567 242.288 415.2C242.555 415.833 242.738 416.4 242.838 416.9C242.971 417.4 243.071 418.233 243.138 419.4C243.238 421.133 243.288 423.567 243.288 426.7V440C241.021 440 239.705 439.883 239.338 439.65C238.971 439.383 238.788 438.5 238.788 437V426.65C238.788 422.05 238.738 419.483 238.638 418.95C238.471 417.983 238.005 417.4 237.238 417.2C236.971 417.133 236.638 417.083 236.238 417.05L232.338 418.2L232.788 419.6V440ZM255.851 436.1C258.117 436.1 260.417 435.933 262.751 435.6V439.5C259.651 440.067 257.451 440.35 256.151 440.35C254.851 440.35 253.801 440.25 253.001 440.05C252.234 439.883 251.567 439.683 251.001 439.45C250.434 439.183 249.967 438.75 249.601 438.15C249.234 437.55 248.951 437 248.751 436.5C248.551 435.967 248.401 435.167 248.301 434.1C248.167 432.667 248.101 431.15 248.101 429.55C248.101 427.917 248.101 426.55 248.101 425.45V422.85C248.101 420.483 248.167 419.017 248.301 418.45C248.434 417.85 248.584 417.217 248.751 416.55C248.917 415.85 249.134 415.367 249.401 415.1C249.667 414.8 249.984 414.467 250.351 414.1C250.751 413.7 251.201 413.433 251.701 413.3C253.267 412.967 254.667 412.8 255.901 412.8C257.134 412.8 258.184 413 259.051 413.4C259.951 413.767 260.634 414.233 261.101 414.8C261.601 415.367 261.984 416.167 262.251 417.2C262.684 418.833 262.901 420.967 262.901 423.6L263.051 427L252.151 427.25L252.551 428.4C252.551 431.7 252.701 433.817 253.001 434.75C253.334 435.65 254.284 436.1 255.851 436.1ZM258.451 421.85C258.417 420.017 258.234 418.767 257.901 418.1C257.601 417.4 256.851 417.05 255.651 417.05C254.451 417.05 253.667 417.35 253.301 417.95C252.967 418.55 252.801 419.85 252.801 421.85L252.401 422.95H258.951L258.451 421.85ZM285.646 410.95C285.946 412.85 286.113 414.45 286.146 415.75C286.213 417.017 286.246 418.7 286.246 420.8V425.1C286.246 427.567 286.163 429.367 285.996 430.5C285.829 431.6 285.646 432.667 285.446 433.7C285.246 434.7 284.996 435.467 284.696 436C284.396 436.533 284.013 437.133 283.546 437.8C283.113 438.433 282.613 438.9 282.046 439.2C280.646 439.967 279.046 440.35 277.246 440.35L267.746 440V403.9L277.246 403.4C278.979 403.4 280.429 403.75 281.596 404.45C282.796 405.117 283.696 405.883 284.296 406.75C284.896 407.617 285.346 409.017 285.646 410.95ZM277.246 435.9C278.346 435.9 279.163 435.517 279.696 434.75C279.996 434.317 280.246 433.9 280.446 433.5C280.679 433.1 280.846 432.5 280.946 431.7C281.079 430.9 281.179 430.217 281.246 429.65C281.346 429.083 281.413 428.267 281.446 427.2C281.479 426.1 281.496 425.233 281.496 424.6V418.85C281.496 416.517 281.429 414.983 281.296 414.25C281.196 413.483 281.079 412.717 280.946 411.95C280.846 411.15 280.679 410.567 280.446 410.2C280.246 409.8 279.996 409.4 279.696 409C279.163 408.233 278.346 407.85 277.246 407.85H272.096L272.496 409.1V434.65L272.046 435.9H277.246ZM298.82 436.1C301.086 436.1 303.386 435.933 305.72 435.6V439.5C302.62 440.067 300.42 440.35 299.12 440.35C297.82 440.35 296.77 440.25 295.97 440.05C295.203 439.883 294.536 439.683 293.97 439.45C293.403 439.183 292.936 438.75 292.57 438.15C292.203 437.55 291.92 437 291.72 436.5C291.52 435.967 291.37 435.167 291.27 434.1C291.136 432.667 291.07 431.15 291.07 429.55C291.07 427.917 291.07 426.55 291.07 425.45V422.85C291.07 420.483 291.136 419.017 291.27 418.45C291.403 417.85 291.553 417.217 291.72 416.55C291.886 415.85 292.103 415.367 292.37 415.1C292.636 414.8 292.953 414.467 293.32 414.1C293.72 413.7 294.17 413.433 294.67 413.3C296.236 412.967 297.636 412.8 298.87 412.8C300.103 412.8 301.153 413 302.02 413.4C302.92 413.767 303.603 414.233 304.07 414.8C304.57 415.367 304.953 416.167 305.22 417.2C305.653 418.833 305.87 420.967 305.87 423.6L306.02 427L295.12 427.25L295.52 428.4C295.52 431.7 295.67 433.817 295.97 434.75C296.303 435.65 297.253 436.1 298.82 436.1ZM301.42 421.85C301.386 420.017 301.203 418.767 300.87 418.1C300.57 417.4 299.82 417.05 298.62 417.05C297.42 417.05 296.636 417.35 296.27 417.95C295.936 418.55 295.77 419.85 295.77 421.85L295.37 422.95H301.92L301.42 421.85ZM324.715 413.7C324.882 413.9 324.965 414.083 324.965 414.25C324.965 414.417 324.948 414.533 324.915 414.6C324.882 414.867 324.765 415.467 324.565 416.4L319.765 440H314.215L308.715 413.15C310.182 413.15 311.215 413.233 311.815 413.4C312.415 413.533 312.815 413.767 313.015 414.1C313.248 414.433 313.465 415.067 313.665 416L317.015 434.05H317.165L320.865 413.15C323.132 413.15 324.415 413.333 324.715 413.7Z" fill="#00FF00"/>
</g>
<defs>
<clipPath id="clip0_71_2">
<rect width="500" height="500" fill="white"/>
</clipPath>
</defs>
</svg>
