<svg width="480" height="640" viewBox="0 0 480 640" fill="none" xmlns="http://www.w3.org/2000/svg">
<g clip-path="url(#clip0_40_12)">
<rect width="480" height="640" rx="45" fill="#FFF59A"/>
<path d="M3 45C3 20.1472 23.1472 0 48 0H438C462.853 0 483 20.1472 483 45V100H3V45Z" fill="#EEE592"/>
<path d="M0 540H480V595C480 619.853 459.853 640 435 640H45C20.1472 640 0 619.853 0 595V540Z" fill="#EEE592"/>
<g clip-path="url(#clip1_40_12)">
<rect width="211" height="65" transform="translate(134 557)" fill="#EEE592"/>
<path d="M338.481 557H140.518C136.918 557 134 559.918 134 563.517V615.396C134 618.995 136.918 621.912 140.518 621.912H338.481C342.08 621.912 344.999 618.995 344.999 615.396V563.517C344.999 559.918 342.08 557 338.481 557Z" fill="#EEE592"/>
<path d="M153.409 566.531C151.156 567.868 146.722 572.962 146.68 574.298V576.51C146.68 579.314 149.301 581.778 151.68 581.778C154.537 581.778 156.918 579.41 156.918 576.599C156.918 579.41 159.217 581.778 162.075 581.778C164.932 581.778 167.158 579.41 167.158 576.599C167.158 579.41 169.603 581.778 172.46 581.778H172.512C175.369 581.778 177.814 579.41 177.814 576.599C177.814 579.41 180.04 581.778 182.897 581.778C185.755 581.778 188.054 579.41 188.054 576.599C188.054 579.41 190.435 581.778 193.292 581.778C195.672 581.778 198.293 579.314 198.293 576.509V574.298C198.251 572.962 193.815 567.868 191.564 566.531C184.566 566.286 179.716 566.243 172.486 566.244C165.257 566.244 155.399 566.357 153.408 566.532L153.409 566.531ZM167.122 580.457C166.849 580.933 166.511 581.369 166.117 581.752C164.998 582.848 163.495 583.461 161.929 583.46C160.361 583.461 158.854 582.848 157.734 581.751C157.355 581.376 157.031 580.948 156.773 580.482L156.772 580.483C156.501 580.96 156.121 581.369 155.73 581.753C154.608 582.849 153.102 583.462 151.534 583.46C151.34 583.453 151.149 583.416 150.968 583.349C150.77 585.458 150.65 587.575 150.607 589.693V589.703L150.594 592.212C150.637 597.23 150.097 608.476 152.806 611.24C157.006 612.218 164.733 612.664 172.485 612.667H172.487C180.238 612.664 187.966 612.218 192.165 611.24C194.875 608.476 194.334 597.23 194.379 592.211L194.365 589.703V589.692C194.323 587.574 194.202 585.458 194.004 583.349C193.823 583.416 193.632 583.454 193.439 583.46C191.87 583.462 190.364 582.848 189.242 581.752C188.851 581.368 188.472 580.96 188.2 580.483H188.199C187.941 580.949 187.618 581.375 187.239 581.75C186.118 582.847 184.612 583.46 183.044 583.459C181.478 583.46 179.974 582.847 178.856 581.751C178.462 581.368 178.124 580.932 177.85 580.456C177.58 580.932 177.245 581.368 176.854 581.751C175.733 582.848 174.227 583.461 172.658 583.46C172.601 583.459 172.545 583.458 172.488 583.456H172.486C172.43 583.456 172.373 583.46 172.315 583.46C170.747 583.461 169.24 582.848 168.119 581.751C167.728 581.368 167.393 580.933 167.122 580.457ZM162.813 586.028V586.031H162.816C164.522 586.034 166.038 586.031 167.916 588.08C169.434 587.923 170.96 587.847 172.486 587.851C174.012 587.847 175.537 587.924 177.055 588.08C178.934 586.031 180.45 586.033 182.157 586.031H182.16V586.028C182.966 586.028 186.19 586.028 188.438 592.339L190.852 600.997C192.641 607.437 190.279 607.594 187.334 607.601C182.965 607.438 180.547 604.266 180.547 601.094C178.128 601.49 175.307 601.689 172.486 601.689C169.664 601.689 166.843 601.49 164.425 601.094C164.425 604.266 162.007 607.438 157.638 607.601C154.692 607.594 152.331 607.437 154.12 600.996L156.534 592.339C158.782 586.028 162.007 586.028 162.813 586.028V586.028ZM172.486 590.988C172.481 590.994 167.886 595.212 167.061 596.713L170.07 596.592V599.216C170.07 599.339 171.277 599.288 172.486 599.232C173.695 599.288 174.903 599.339 174.903 599.216V596.592L177.912 596.713C177.085 595.213 172.487 590.989 172.487 590.989L172.486 590.988ZM215.745 611.157V590.162H222.83V611.157H215.745ZM219.331 588.454C218.135 588.454 217.21 588.155 216.556 587.559C215.93 586.961 215.617 586.164 215.617 585.169C215.617 584.23 215.93 583.433 216.556 582.779C217.21 582.125 218.135 581.798 219.33 581.798C220.525 581.798 221.436 582.125 222.062 582.779C222.716 583.432 223.043 584.229 223.043 585.169C223.043 586.164 222.716 586.961 222.063 587.559C221.436 588.155 220.526 588.454 219.331 588.454ZM233.402 611.583C231.353 611.583 229.802 611.043 228.748 609.962C227.725 608.853 227.213 607.317 227.213 605.353V595.41H224.396V590.161H227.213V585.041H234.297V590.162H238.908V595.409H234.297V604.329C234.297 604.983 234.425 605.452 234.681 605.737C234.966 605.993 235.392 606.121 235.961 606.121C236.73 606.121 237.57 605.78 238.48 605.097L240.102 609.748C239.277 610.318 238.338 610.773 237.285 611.114C236.232 611.427 234.938 611.585 233.402 611.585V611.583ZM250.828 611.583C247.584 611.583 245.023 610.659 243.145 608.81C241.296 606.961 240.371 604.273 240.371 600.745C240.371 598.184 240.897 596.036 241.95 594.301C243.031 592.508 244.383 591.299 246.006 590.674C247.713 590.019 249.293 589.692 250.745 589.692C252.565 589.692 254.088 590.062 255.312 590.802C256.535 591.513 257.432 592.295 258.001 593.149C258.599 594.002 259.026 594.67 259.281 595.154L254.373 598.312C253.919 597.373 253.421 596.633 252.88 596.092C252.339 595.552 251.686 595.282 250.918 595.282C249.836 595.282 248.983 595.709 248.358 596.562C247.732 597.415 247.419 598.71 247.419 600.445C247.419 602.323 247.789 603.703 248.529 604.585C249.268 605.467 250.32 605.908 251.687 605.908C252.769 605.908 253.665 605.709 254.376 605.31C255.115 604.911 255.813 604.399 256.467 603.774L258.73 609.064C258.047 609.632 257.037 610.202 255.699 610.772C254.362 611.311 252.74 611.581 250.833 611.581L250.828 611.583ZM261.137 611.157V582.651H268.264V591.314C268.862 590.887 269.587 590.517 270.441 590.204C271.295 589.863 272.319 589.692 273.514 589.692C276.018 589.692 277.881 590.403 279.105 591.825C280.357 593.249 280.983 595.255 280.983 597.844V611.159H273.855V598.697C273.855 597.503 273.628 596.635 273.173 596.093C272.719 595.525 272.122 595.241 271.381 595.241C270.755 595.241 270.171 595.384 269.63 595.669C269.09 595.953 268.635 596.253 268.264 596.566V611.161H261.137V611.157ZM286.455 611.583C285.318 611.583 284.421 611.256 283.767 610.603C283.113 609.948 282.786 609.109 282.786 608.085C282.786 607.061 283.113 606.207 283.767 605.525C284.421 604.842 285.318 604.501 286.455 604.501C287.537 604.501 288.405 604.842 289.059 605.525C289.714 606.207 290.042 607.061 290.042 608.085C290.042 609.109 289.715 609.948 289.061 610.602C288.436 611.256 287.568 611.583 286.457 611.583H286.455ZM291.697 611.157V590.162H298.782V611.157H291.697ZM295.28 588.458C294.086 588.458 293.161 588.159 292.507 587.562C291.881 586.965 291.568 586.169 291.568 585.173C291.568 584.234 291.88 583.438 292.505 582.783C293.161 582.129 294.086 581.801 295.28 581.801C296.476 581.801 297.387 582.128 298.012 582.782C298.666 583.437 298.993 584.234 298.993 585.173C298.993 586.169 298.666 586.965 298.012 587.562C297.387 588.159 296.476 588.458 295.28 588.458ZM311.292 611.583C309.642 611.583 308.177 611.313 306.896 610.773C305.615 610.204 304.52 609.436 303.61 608.468C302.728 607.473 302.046 606.306 301.562 604.97C301.106 603.604 300.878 602.124 300.878 600.531C300.878 598.17 301.39 596.108 302.415 594.344C303.468 592.608 304.777 591.399 306.342 590.717C307.935 590.034 309.585 589.692 311.292 589.692C313.739 589.692 315.758 590.261 317.351 591.399C318.973 592.537 320.111 593.959 320.767 595.666C321.421 597.373 321.748 598.995 321.748 600.531C321.748 602.124 321.506 603.604 321.022 604.97C320.567 606.306 319.884 607.472 318.972 608.468C318.09 609.436 316.994 610.204 315.685 610.774C314.405 611.315 312.939 611.585 311.288 611.585L311.292 611.583ZM311.292 606.121C312.487 606.121 313.355 605.623 313.896 604.628C314.436 603.604 314.706 602.238 314.706 600.531C314.706 598.91 314.422 597.615 313.853 596.648C313.285 595.681 312.431 595.197 311.292 595.197C310.182 595.197 309.343 595.681 308.775 596.648C308.207 597.615 307.922 598.91 307.922 600.531C307.922 602.238 308.193 603.604 308.734 604.627C309.305 605.623 310.158 606.121 311.294 606.121L311.292 606.121ZM233.723 572.468C233.171 572.493 232.707 572.542 232.33 572.615C231.954 572.682 231.652 572.769 231.425 572.878C231.198 572.986 231.035 573.113 230.937 573.257C230.841 573.395 230.79 573.56 230.79 573.729C230.79 574.064 230.888 574.304 231.084 574.448C231.286 574.593 231.546 574.665 231.866 574.665C232.258 574.665 232.596 574.596 232.88 574.456C233.169 574.312 233.45 574.095 233.723 573.806V572.468ZM229.343 569.024C230.256 568.189 231.355 567.771 232.64 567.771C233.104 567.771 233.52 567.848 233.886 568.003C234.252 568.153 234.561 568.364 234.814 568.638C235.067 568.906 235.258 569.228 235.387 569.605C235.521 569.981 235.588 570.394 235.588 570.843V575.857H234.721C234.541 575.857 234.402 575.831 234.304 575.779C234.206 575.723 234.128 575.612 234.072 575.447L233.901 574.874C233.713 575.044 233.517 575.204 233.313 575.354C233.122 575.488 232.924 575.601 232.717 575.694C232.511 575.787 232.289 575.857 232.052 575.903C231.82 575.955 231.562 575.981 231.278 575.981C230.943 575.981 230.633 575.937 230.349 575.849C230.065 575.756 229.82 575.619 229.614 575.439C229.405 575.254 229.241 575.024 229.134 574.766C229.021 574.498 228.964 574.185 228.964 573.83C228.964 573.628 228.997 573.43 229.065 573.234C229.136 573.024 229.246 572.83 229.389 572.661C229.544 572.481 229.743 572.31 229.985 572.151C230.228 571.99 230.525 571.851 230.875 571.733C231.231 571.614 231.644 571.519 232.114 571.446C232.583 571.369 233.12 571.322 233.723 571.307V570.843C233.723 570.312 233.61 569.92 233.383 569.667C233.156 569.409 232.828 569.28 232.4 569.28C232.09 569.28 231.832 569.316 231.626 569.388C231.44 569.453 231.261 569.536 231.092 569.636C230.937 569.723 230.795 569.803 230.667 569.876C230.539 569.949 230.395 569.986 230.249 569.984C230.114 569.984 230.001 569.95 229.908 569.883C229.819 569.815 229.743 569.731 229.684 569.636L229.343 569.024ZM244.366 567.918L241.216 575.857H239.482L236.333 567.918H237.911C238.056 567.918 238.174 567.952 238.267 568.019C238.365 568.086 238.43 568.171 238.461 568.274L239.993 572.514C240.151 572.985 240.278 573.466 240.372 573.953C240.424 573.716 240.481 573.479 240.542 573.241C240.604 573.004 240.679 572.762 240.767 572.514L242.33 568.274C242.366 568.171 242.434 568.081 242.524 568.019C242.617 567.952 242.727 567.918 242.856 567.918L244.366 567.918ZM249.382 572.468C248.83 572.493 248.366 572.542 247.989 572.615C247.612 572.682 247.311 572.769 247.084 572.878C246.857 572.986 246.694 573.113 246.596 573.257C246.5 573.395 246.449 573.56 246.449 573.729C246.449 574.064 246.547 574.304 246.743 574.448C246.944 574.593 247.205 574.665 247.525 574.665C247.917 574.665 248.255 574.596 248.539 574.456C248.827 574.312 249.108 574.095 249.382 573.806V572.468ZM245.002 569.024C245.915 568.189 247.014 567.771 248.299 567.771C248.763 567.771 249.178 567.848 249.544 568.003C249.911 568.153 250.221 568.364 250.473 568.638C250.726 568.906 250.917 569.228 251.046 569.605C251.18 569.981 251.247 570.394 251.247 570.843V575.857H250.38C250.2 575.857 250.061 575.831 249.962 575.779C249.864 575.723 249.787 575.612 249.73 575.447L249.56 574.874C249.372 575.044 249.176 575.204 248.972 575.354C248.785 575.486 248.585 575.6 248.376 575.694C248.17 575.787 247.948 575.857 247.71 575.903C247.478 575.955 247.22 575.981 246.937 575.981C246.601 575.981 246.292 575.937 246.008 575.849C245.724 575.756 245.479 575.619 245.273 575.439C245.063 575.254 244.899 575.024 244.793 574.766C244.679 574.498 244.623 574.185 244.623 573.83C244.623 573.628 244.656 573.43 244.723 573.234C244.795 573.024 244.905 572.83 245.048 572.661C245.203 572.481 245.402 572.31 245.644 572.151C245.887 571.99 246.183 571.851 246.534 571.733C246.89 571.614 247.303 571.519 247.772 571.446C248.242 571.369 248.778 571.322 249.382 571.307V570.843C249.382 570.312 249.268 569.92 249.041 569.667C248.815 569.409 248.487 569.28 248.059 569.28C247.749 569.28 247.491 569.316 247.285 569.388C247.084 569.46 246.906 569.543 246.751 569.636C246.596 569.723 246.454 569.803 246.325 569.876C246.202 569.948 246.062 569.984 245.907 569.984C245.773 569.984 245.66 569.95 245.567 569.883C245.478 569.815 245.402 569.731 245.342 569.636L245.002 569.024ZM255.028 567.918V575.857H253.109V567.918L255.028 567.918ZM255.292 565.604C255.292 565.77 255.258 565.924 255.191 566.069C255.124 566.213 255.034 566.34 254.92 566.448C254.808 566.559 254.677 566.648 254.533 566.711C254.381 566.773 254.218 566.805 254.053 566.804C253.891 566.804 253.731 566.773 253.581 566.711C253.44 566.646 253.312 566.557 253.202 566.448C253.093 566.338 253.004 566.21 252.939 566.069C252.877 565.922 252.845 565.764 252.846 565.604C252.846 565.434 252.877 565.274 252.939 565.125C253.002 564.981 253.091 564.85 253.202 564.738C253.311 564.629 253.437 564.545 253.581 564.483C253.73 564.416 253.891 564.381 254.053 564.382C254.224 564.382 254.383 564.416 254.533 564.483C254.678 564.541 254.809 564.628 254.92 564.738C255.034 564.846 255.124 564.975 255.191 565.125C255.258 565.276 255.293 565.439 255.292 565.604ZM258.912 564.359V575.857H257V564.359L258.912 564.359ZM265.011 572.468C264.459 572.493 263.994 572.542 263.618 572.615C263.241 572.682 262.939 572.769 262.712 572.878C262.485 572.986 262.323 573.113 262.225 573.257C262.128 573.395 262.077 573.56 262.078 573.729C262.078 574.064 262.176 574.304 262.372 574.448C262.573 574.593 262.833 574.665 263.153 574.665C263.545 574.665 263.883 574.596 264.167 574.456C264.456 574.312 264.737 574.095 265.011 573.806V572.468ZM260.631 569.024C261.544 568.189 262.643 567.771 263.927 567.771C264.391 567.771 264.807 567.848 265.173 568.003C265.539 568.153 265.849 568.364 266.102 568.638C266.355 568.906 266.546 569.228 266.675 569.605C266.809 569.981 266.876 570.394 266.876 570.843V575.857H266.009C265.829 575.857 265.689 575.831 265.591 575.779C265.493 575.723 265.416 575.612 265.359 575.447L265.189 574.874C265.001 575.044 264.804 575.204 264.6 575.354C264.413 575.486 264.214 575.6 264.005 575.694C263.798 575.787 263.577 575.857 263.339 575.903C263.107 575.955 262.849 575.981 262.565 575.981C262.23 575.981 261.92 575.937 261.636 575.849C261.353 575.756 261.108 575.619 260.901 575.439C260.692 575.254 260.528 575.024 260.422 574.766C260.308 574.498 260.251 574.185 260.251 573.83C260.251 573.628 260.285 573.43 260.352 573.234C260.424 573.024 260.534 572.83 260.677 572.661C260.832 572.481 261.03 572.31 261.273 572.151C261.515 571.99 261.812 571.851 262.163 571.733C262.519 571.614 262.932 571.519 263.401 571.446C263.871 571.369 264.407 571.322 265.011 571.307V570.843C265.011 570.312 264.897 569.92 264.67 569.667C264.443 569.409 264.115 569.28 263.687 569.28C263.378 569.28 263.12 569.316 262.914 569.388C262.728 569.453 262.549 569.536 262.38 569.636C262.225 569.723 262.083 569.803 261.954 569.876C261.83 569.948 261.691 569.984 261.536 569.984C261.402 569.984 261.288 569.95 261.195 569.883C261.106 569.815 261.03 569.731 260.971 569.636L260.631 569.024ZM270.587 573.798C270.804 574.062 271.039 574.247 271.292 574.356C271.549 574.464 271.825 574.519 272.104 574.518C272.398 574.518 272.662 574.467 272.894 574.363C273.131 574.255 273.332 574.09 273.497 573.868C273.662 573.641 273.789 573.355 273.876 573.009C273.964 572.659 274.008 572.241 274.008 571.756C274.008 570.884 273.863 570.255 273.575 569.868C273.286 569.476 272.87 569.28 272.328 569.28C271.962 569.28 271.642 569.365 271.369 569.535C271.096 569.7 270.835 569.935 270.587 570.239V573.798ZM270.587 568.893C270.907 568.558 271.261 568.292 271.648 568.096C272.04 567.895 272.486 567.794 272.986 567.794C273.446 567.794 273.858 567.885 274.225 568.065C274.597 568.247 274.921 568.514 275.169 568.846C275.432 569.182 275.633 569.589 275.772 570.069C275.912 570.549 275.981 571.088 275.981 571.686C275.981 572.331 275.901 572.916 275.741 573.442C275.582 573.969 275.352 574.42 275.053 574.797C274.766 575.162 274.401 575.458 273.985 575.663C273.567 575.87 273.103 575.973 272.592 575.973C272.344 575.973 272.12 575.947 271.918 575.895C271.538 575.81 271.184 575.632 270.889 575.377C270.746 575.244 270.612 575.102 270.487 574.951L270.402 575.485C270.371 575.619 270.317 575.715 270.239 575.772C270.167 575.828 270.066 575.857 269.937 575.857H268.676V564.359H270.587V568.893ZM279.392 564.359V575.857H277.481V564.359H279.392ZM286.412 570.974C286.412 570.727 286.376 570.495 286.304 570.278C286.241 570.065 286.136 569.868 285.994 569.698C285.855 569.532 285.677 569.404 285.46 569.311C285.249 569.213 285.001 569.164 284.717 569.164C284.165 569.164 283.729 569.321 283.409 569.636C283.095 569.95 282.894 570.397 282.806 570.974H286.412ZM282.767 572.127C282.798 572.535 282.87 572.888 282.984 573.187C283.097 573.481 283.247 573.726 283.432 573.922C283.618 574.113 283.842 574.26 284.09 574.356C284.348 574.448 284.632 574.495 284.942 574.495C285.251 574.495 285.517 574.459 285.739 574.387C285.942 574.324 286.138 574.244 286.327 574.147C286.476 574.071 286.623 573.991 286.768 573.907C286.897 573.835 287.021 573.799 287.14 573.799C287.299 573.799 287.418 573.858 287.495 573.976L288.045 574.673C287.839 574.915 287.599 575.126 287.333 575.299C287.072 575.463 286.795 575.598 286.505 575.702C286.221 575.8 285.93 575.87 285.63 575.911C285.346 575.952 285.059 575.972 284.771 575.973C284.219 575.973 283.706 575.882 283.231 575.702C282.766 575.522 282.344 575.245 281.993 574.889C281.642 574.528 281.366 574.085 281.165 573.559C280.964 573.027 280.863 572.414 280.863 571.717C280.863 571.175 280.951 570.667 281.126 570.193C281.302 569.713 281.552 569.298 281.877 568.947C282.207 568.591 282.607 568.31 283.077 568.104C283.551 567.897 284.085 567.794 284.679 567.794C285.179 567.794 285.641 567.874 286.064 568.034C286.475 568.186 286.847 568.427 287.155 568.738C287.459 569.043 287.697 569.419 287.867 569.868C288.042 570.312 288.13 570.82 288.13 571.392C288.13 571.681 288.099 571.877 288.037 571.98C287.975 572.078 287.857 572.127 287.681 572.127H282.767ZM296.841 567.794C297.429 567.794 297.964 567.89 298.443 568.08C298.928 568.271 299.341 568.542 299.681 568.893C300.027 569.244 300.293 569.672 300.479 570.177C300.664 570.683 300.757 571.248 300.757 571.872C300.757 572.501 300.664 573.069 300.479 573.574C300.293 574.08 300.027 574.51 299.681 574.866C299.341 575.222 298.928 575.496 298.443 575.686C297.964 575.877 297.429 575.973 296.841 575.973C296.248 575.973 295.709 575.877 295.224 575.686C294.739 575.495 294.324 575.222 293.978 574.866C293.637 574.51 293.372 574.08 293.181 573.574C292.995 573.069 292.902 572.501 292.902 571.872C292.902 571.248 292.995 570.683 293.181 570.177C293.372 569.672 293.637 569.244 293.978 568.893C294.324 568.542 294.739 568.271 295.224 568.08C295.709 567.889 296.248 567.794 296.841 567.794ZM296.841 574.502C297.502 574.502 297.989 574.281 298.304 573.837C298.624 573.394 298.784 572.744 298.784 571.887C298.784 571.031 298.624 570.379 298.304 569.93C297.989 569.481 297.502 569.257 296.841 569.257C296.171 569.257 295.673 569.484 295.348 569.938C295.028 570.386 294.868 571.036 294.868 571.888C294.868 572.739 295.028 573.389 295.348 573.837C295.673 574.281 296.171 574.502 296.841 574.502ZM304.003 568.893C304.161 568.735 304.329 568.588 304.506 568.452C304.681 568.316 304.871 568.199 305.071 568.104C305.276 568.005 305.491 567.929 305.713 567.879C305.956 567.821 306.206 567.792 306.456 567.794C306.89 567.794 307.274 567.869 307.609 568.019C307.945 568.163 308.223 568.369 308.445 568.638C308.672 568.901 308.842 569.218 308.956 569.589C309.075 569.955 309.134 570.361 309.134 570.804V575.857H307.222V570.804C307.222 570.319 307.112 569.945 306.89 569.682C306.668 569.414 306.33 569.28 305.876 569.28C305.553 569.278 305.234 569.355 304.947 569.504C304.658 569.654 304.385 569.857 304.127 570.115V575.857H302.215V567.918H303.384C303.632 567.918 303.794 568.034 303.872 568.266L304.003 568.893Z" fill="#948D54"/>
</g>
<path d="M187.591 60.36C185.551 60.36 183.781 59.91 182.281 59.01C180.801 58.09 179.661 56.82 178.861 55.2C178.061 53.56 177.661 51.66 177.661 49.5C177.661 47.34 178.061 45.45 178.861 43.83C179.661 42.19 180.801 40.92 182.281 40.02C183.781 39.1 185.551 38.64 187.591 38.64C189.991 38.64 191.941 39.21 193.441 40.35C194.941 41.49 195.901 43.1 196.321 45.18H193.531C193.211 43.88 192.561 42.84 191.581 42.06C190.601 41.26 189.271 40.86 187.591 40.86C186.091 40.86 184.791 41.21 183.691 41.91C182.591 42.59 181.741 43.58 181.141 44.88C180.541 46.16 180.241 47.7 180.241 49.5C180.241 51.3 180.541 52.85 181.141 54.15C181.741 55.43 182.591 56.42 183.691 57.12C184.791 57.8 186.091 58.14 187.591 58.14C189.271 58.14 190.601 57.76 191.581 57C192.561 56.22 193.211 55.19 193.531 53.91H196.321C195.901 55.93 194.941 57.51 193.441 58.65C191.941 59.79 189.991 60.36 187.591 60.36ZM204.745 60.36C203.525 60.36 202.505 60.15 201.685 59.73C200.865 59.29 200.255 58.72 199.855 58.02C199.455 57.3 199.255 56.52 199.255 55.68C199.255 54.66 199.515 53.8 200.035 53.1C200.575 52.38 201.325 51.84 202.285 51.48C203.265 51.1 204.415 50.91 205.735 50.91H209.725C209.725 49.97 209.575 49.19 209.275 48.57C208.995 47.93 208.575 47.45 208.015 47.13C207.475 46.81 206.795 46.65 205.975 46.65C205.015 46.65 204.185 46.89 203.485 47.37C202.785 47.85 202.355 48.56 202.195 49.5H199.615C199.735 48.42 200.095 47.52 200.695 46.8C201.315 46.06 202.095 45.5 203.035 45.12C203.975 44.72 204.955 44.52 205.975 44.52C207.375 44.52 208.535 44.78 209.455 45.3C210.395 45.8 211.095 46.51 211.555 47.43C212.015 48.33 212.245 49.4 212.245 50.64V60H209.995L209.845 57.33C209.645 57.75 209.385 58.15 209.065 58.53C208.765 58.89 208.405 59.21 207.985 59.49C207.565 59.75 207.085 59.96 206.545 60.12C206.025 60.28 205.425 60.36 204.745 60.36ZM205.135 58.23C205.835 58.23 206.465 58.09 207.025 57.81C207.605 57.51 208.095 57.11 208.495 56.61C208.895 56.09 209.195 55.52 209.395 54.9C209.615 54.28 209.725 53.63 209.725 52.95V52.86H205.945C204.965 52.86 204.175 52.98 203.575 53.22C202.975 53.44 202.545 53.76 202.285 54.18C202.025 54.58 201.895 55.04 201.895 55.56C201.895 56.1 202.015 56.57 202.255 56.97C202.515 57.37 202.885 57.68 203.365 57.9C203.865 58.12 204.455 58.23 205.135 58.23ZM216.143 60V44.88H218.423L218.603 47.76C218.943 47.08 219.373 46.5 219.893 46.02C220.433 45.54 221.073 45.17 221.813 44.91C222.573 44.65 223.433 44.52 224.393 44.52V47.16H223.463C222.823 47.16 222.213 47.25 221.633 47.43C221.053 47.59 220.533 47.86 220.073 48.24C219.633 48.62 219.283 49.14 219.023 49.8C218.783 50.44 218.663 51.24 218.663 52.2V60H216.143ZM227.246 60V44.88H229.526L229.676 47.04C230.156 46.26 230.796 45.65 231.596 45.21C232.416 44.75 233.306 44.52 234.266 44.52C235.046 44.52 235.746 44.63 236.366 44.85C237.006 45.05 237.566 45.37 238.046 45.81C238.526 46.23 238.916 46.77 239.216 47.43C239.736 46.51 240.446 45.8 241.346 45.3C242.266 44.78 243.246 44.52 244.286 44.52C245.446 44.52 246.456 44.76 247.316 45.24C248.196 45.7 248.866 46.41 249.326 47.37C249.806 48.31 250.046 49.51 250.046 50.97V60H247.556V51.24C247.556 49.72 247.246 48.58 246.626 47.82C246.006 47.06 245.136 46.68 244.016 46.68C243.236 46.68 242.536 46.89 241.916 47.31C241.296 47.71 240.806 48.3 240.446 49.08C240.086 49.86 239.906 50.82 239.906 51.96V60H237.386V51.24C237.386 49.72 237.076 48.58 236.456 47.82C235.836 47.06 234.956 46.68 233.816 46.68C233.056 46.68 232.366 46.89 231.746 47.31C231.146 47.71 230.666 48.3 230.306 49.08C229.946 49.86 229.766 50.82 229.766 51.96V60H227.246ZM254.115 60V39H267.105V41.07H256.635V48.39H266.205V50.43H256.635V57.93H267.105V60H254.115ZM277.738 60.36C276.318 60.36 275.038 60.03 273.898 59.37C272.778 58.71 271.898 57.79 271.258 56.61C270.618 55.41 270.298 54.03 270.298 52.47C270.298 50.87 270.618 49.48 271.258 48.3C271.898 47.12 272.778 46.2 273.898 45.54C275.038 44.86 276.318 44.52 277.738 44.52C279.538 44.52 281.038 44.99 282.238 45.93C283.438 46.85 284.198 48.09 284.518 49.65H281.938C281.738 48.71 281.248 47.98 280.468 47.46C279.688 46.94 278.768 46.68 277.708 46.68C276.848 46.68 276.048 46.9 275.308 47.34C274.568 47.76 273.978 48.4 273.538 49.26C273.098 50.12 272.878 51.18 272.878 52.44C272.878 53.38 273.008 54.22 273.268 54.96C273.528 55.68 273.878 56.28 274.318 56.76C274.758 57.24 275.268 57.61 275.848 57.87C276.448 58.11 277.068 58.23 277.708 58.23C278.428 58.23 279.078 58.12 279.658 57.9C280.238 57.66 280.728 57.31 281.128 56.85C281.528 56.39 281.798 55.85 281.938 55.23H284.518C284.198 56.75 283.428 57.99 282.208 58.95C281.008 59.89 279.518 60.36 277.738 60.36ZM294.846 60.36C293.446 60.36 292.186 60.04 291.066 59.4C289.946 58.74 289.066 57.82 288.426 56.64C287.786 55.44 287.466 54.05 287.466 52.47C287.466 50.85 287.786 49.45 288.426 48.27C289.086 47.07 289.976 46.15 291.096 45.51C292.236 44.85 293.506 44.52 294.906 44.52C296.346 44.52 297.616 44.85 298.716 45.51C299.836 46.15 300.716 47.07 301.356 48.27C302.016 49.45 302.346 50.84 302.346 52.44C302.346 54.04 302.016 55.44 301.356 56.64C300.696 57.82 299.806 58.74 298.686 59.4C297.566 60.04 296.286 60.36 294.846 60.36ZM294.876 58.2C295.736 58.2 296.536 57.99 297.276 57.57C298.016 57.13 298.616 56.48 299.076 55.62C299.536 54.76 299.766 53.7 299.766 52.44C299.766 51.16 299.536 50.1 299.076 49.26C298.636 48.4 298.046 47.76 297.306 47.34C296.586 46.9 295.786 46.68 294.906 46.68C294.066 46.68 293.266 46.9 292.506 47.34C291.766 47.76 291.166 48.4 290.706 49.26C290.266 50.1 290.046 51.16 290.046 52.44C290.046 53.7 290.266 54.76 290.706 55.62C291.166 56.48 291.756 57.13 292.476 57.57C293.216 57.99 294.016 58.2 294.876 58.2Z" fill="#948D54"/>
<g clip-path="url(#clip2_40_12)">
<path d="M374.5 200H104.5C94.835 200 87 207.835 87 217.5V422.5C87 432.165 94.835 440 104.5 440H374.5C384.165 440 392 432.165 392 422.5V217.5C392 207.835 384.165 200 374.5 200Z" fill="#9CD07B"/>
<path d="M374.5 200H104.5C94.835 200 87 207.835 87 217.5V422.5C87 432.165 94.835 440 104.5 440H374.5C384.165 440 392 432.165 392 422.5V217.5C392 207.835 384.165 200 374.5 200Z" stroke="black" stroke-width="20"/>
<path d="M305 210.75H174C163.645 210.75 155.25 219.145 155.25 229.5V410C155.25 420.355 163.645 428.75 174 428.75H305C315.355 428.75 323.75 420.355 323.75 410V229.5C323.75 219.145 315.355 210.75 305 210.75Z" stroke="black" stroke-width="15"/>
<path d="M305 207.5H175C162.574 207.5 152.5 217.574 152.5 230V410C152.5 422.426 162.574 432.5 175 432.5H305C317.426 432.5 327.5 422.426 327.5 410V230C327.5 217.574 317.426 207.5 305 207.5Z" fill="#FFF59A"/>
<path d="M152.5 230C152.5 217.574 162.573 207.5 175 207.5H305C317.427 207.5 327.5 217.574 327.5 230V245H152.5V230Z" fill="#EEE592"/>
<path d="M152.5 395H327.5V410C327.5 422.427 317.427 432.5 305 432.5H175C162.573 432.5 152.5 422.427 152.5 410V395Z" fill="#EEE592"/>
<path d="M200.693 235.77C199.163 235.77 197.836 235.432 196.711 234.757C195.601 234.067 194.746 233.115 194.146 231.9C193.546 230.67 193.246 229.245 193.246 227.625C193.246 226.005 193.546 224.587 194.146 223.372C194.746 222.142 195.601 221.19 196.711 220.515C197.836 219.825 199.163 219.48 200.693 219.48C202.493 219.48 203.956 219.907 205.081 220.762C206.206 221.617 206.926 222.825 207.241 224.385H205.148C204.908 223.41 204.421 222.63 203.686 222.045C202.951 221.445 201.953 221.145 200.693 221.145C199.568 221.145 198.593 221.407 197.768 221.932C196.943 222.442 196.306 223.185 195.856 224.16C195.406 225.12 195.181 226.275 195.181 227.625C195.181 228.975 195.406 230.137 195.856 231.112C196.306 232.072 196.943 232.815 197.768 233.34C198.593 233.85 199.568 234.105 200.693 234.105C201.953 234.105 202.951 233.82 203.686 233.25C204.421 232.665 204.908 231.892 205.148 230.932H207.241C206.926 232.447 206.206 233.632 205.081 234.487C203.956 235.342 202.493 235.77 200.693 235.77ZM213.559 235.77C212.644 235.77 211.879 235.612 211.264 235.297C210.649 234.967 210.191 234.54 209.891 234.015C209.591 233.475 209.441 232.89 209.441 232.26C209.441 231.495 209.636 230.85 210.026 230.325C210.431 229.785 210.994 229.38 211.714 229.11C212.449 228.825 213.311 228.682 214.301 228.682H217.294C217.294 227.977 217.181 227.392 216.956 226.927C216.746 226.447 216.431 226.087 216.011 225.847C215.606 225.607 215.096 225.487 214.481 225.487C213.761 225.487 213.139 225.667 212.614 226.027C212.089 226.387 211.766 226.92 211.646 227.625H209.711C209.801 226.815 210.071 226.14 210.521 225.6C210.986 225.045 211.571 224.625 212.276 224.34C212.981 224.04 213.716 223.89 214.481 223.89C215.531 223.89 216.401 224.085 217.091 224.475C217.796 224.85 218.321 225.382 218.666 226.072C219.011 226.747 219.184 227.55 219.184 228.48V235.5H217.496L217.384 233.497C217.234 233.812 217.039 234.112 216.799 234.397C216.574 234.667 216.304 234.907 215.989 235.117C215.674 235.312 215.314 235.47 214.909 235.59C214.519 235.71 214.069 235.77 213.559 235.77ZM213.851 234.172C214.376 234.172 214.849 234.067 215.269 233.857C215.704 233.632 216.071 233.332 216.371 232.957C216.671 232.567 216.896 232.14 217.046 231.675C217.211 231.21 217.294 230.722 217.294 230.212V230.145H214.459C213.724 230.145 213.131 230.235 212.681 230.415C212.231 230.58 211.909 230.82 211.714 231.135C211.519 231.435 211.421 231.78 211.421 232.17C211.421 232.575 211.511 232.927 211.691 233.227C211.886 233.527 212.164 233.76 212.524 233.925C212.899 234.09 213.341 234.172 213.851 234.172ZM222.107 235.5V224.16H223.817L223.952 226.32C224.207 225.81 224.53 225.375 224.92 225.015C225.325 224.655 225.805 224.377 226.36 224.182C226.93 223.987 227.575 223.89 228.295 223.89V225.87H227.597C227.117 225.87 226.66 225.937 226.225 226.072C225.79 226.192 225.4 226.395 225.055 226.68C224.725 226.965 224.462 227.355 224.267 227.85C224.087 228.33 223.997 228.93 223.997 229.65V235.5H222.107ZM230.435 235.5V224.16H232.145L232.258 225.78C232.618 225.195 233.098 224.737 233.698 224.407C234.313 224.062 234.98 223.89 235.7 223.89C236.285 223.89 236.81 223.972 237.275 224.137C237.755 224.287 238.175 224.527 238.535 224.857C238.895 225.172 239.188 225.577 239.413 226.072C239.803 225.382 240.335 224.85 241.01 224.475C241.7 224.085 242.435 223.89 243.215 223.89C244.085 223.89 244.843 224.07 245.488 224.43C246.148 224.775 246.65 225.307 246.995 226.027C247.355 226.732 247.535 227.632 247.535 228.727V235.5H245.668V228.93C245.668 227.79 245.435 226.935 244.97 226.365C244.505 225.795 243.853 225.51 243.013 225.51C242.428 225.51 241.903 225.667 241.438 225.982C240.973 226.282 240.605 226.725 240.335 227.31C240.065 227.895 239.93 228.615 239.93 229.47V235.5H238.04V228.93C238.04 227.79 237.808 226.935 237.343 226.365C236.878 225.795 236.218 225.51 235.363 225.51C234.793 225.51 234.275 225.667 233.81 225.982C233.36 226.282 233 226.725 232.73 227.31C232.46 227.895 232.325 228.615 232.325 229.47V235.5H230.435ZM250.587 235.5V219.75H260.329V221.302H252.477V226.792H259.654V228.322H252.477V233.947H260.329V235.5H250.587ZM268.304 235.77C267.239 235.77 266.279 235.522 265.424 235.027C264.584 234.532 263.924 233.842 263.444 232.957C262.964 232.057 262.724 231.022 262.724 229.852C262.724 228.652 262.964 227.61 263.444 226.725C263.924 225.84 264.584 225.15 265.424 224.655C266.279 224.145 267.239 223.89 268.304 223.89C269.654 223.89 270.779 224.242 271.679 224.947C272.579 225.637 273.149 226.567 273.389 227.737H271.454C271.304 227.032 270.936 226.485 270.351 226.095C269.766 225.705 269.076 225.51 268.281 225.51C267.636 225.51 267.036 225.675 266.481 226.005C265.926 226.32 265.484 226.8 265.154 227.445C264.824 228.09 264.659 228.885 264.659 229.83C264.659 230.535 264.756 231.165 264.951 231.72C265.146 232.26 265.409 232.71 265.739 233.07C266.069 233.43 266.451 233.707 266.886 233.902C267.336 234.082 267.801 234.172 268.281 234.172C268.821 234.172 269.309 234.09 269.744 233.925C270.179 233.745 270.546 233.482 270.846 233.137C271.146 232.792 271.349 232.387 271.454 231.922H273.389C273.149 233.062 272.571 233.992 271.656 234.712C270.756 235.417 269.639 235.77 268.304 235.77ZM281.135 235.77C280.085 235.77 279.14 235.53 278.3 235.05C277.46 234.555 276.8 233.865 276.32 232.98C275.84 232.08 275.6 231.037 275.6 229.852C275.6 228.637 275.84 227.587 276.32 226.702C276.815 225.802 277.482 225.112 278.322 224.632C279.177 224.137 280.13 223.89 281.18 223.89C282.26 223.89 283.212 224.137 284.037 224.632C284.877 225.112 285.537 225.802 286.017 226.702C286.512 227.587 286.76 228.63 286.76 229.83C286.76 231.03 286.512 232.08 286.017 232.98C285.522 233.865 284.855 234.555 284.015 235.05C283.175 235.53 282.215 235.77 281.135 235.77ZM281.157 234.15C281.802 234.15 282.402 233.992 282.957 233.677C283.512 233.347 283.962 232.86 284.307 232.215C284.652 231.57 284.825 230.775 284.825 229.83C284.825 228.87 284.652 228.075 284.307 227.445C283.977 226.8 283.535 226.32 282.98 226.005C282.44 225.675 281.84 225.51 281.18 225.51C280.55 225.51 279.95 225.675 279.38 226.005C278.825 226.32 278.375 226.8 278.03 227.445C277.7 228.075 277.535 228.87 277.535 229.83C277.535 230.775 277.7 231.57 278.03 232.215C278.375 232.86 278.817 233.347 279.357 233.677C279.912 233.992 280.512 234.15 281.157 234.15Z" fill="#948D54"/>
<path d="M280.737 233.153V226.568H281.255V233.153H280.737ZM281.06 232.59C280.675 232.59 280.34 232.52 280.055 232.38C279.77 232.24 279.55 232.045 279.395 231.795C279.24 231.545 279.162 231.255 279.162 230.925H279.822C279.822 231.13 279.87 231.32 279.965 231.495C280.06 231.665 280.197 231.803 280.377 231.908C280.562 232.008 280.79 232.058 281.06 232.058C281.295 232.058 281.495 232.02 281.66 231.945C281.83 231.865 281.957 231.758 282.042 231.623C282.132 231.488 282.177 231.335 282.177 231.165C282.177 230.96 282.132 230.795 282.042 230.67C281.957 230.54 281.84 230.435 281.69 230.355C281.54 230.275 281.365 230.205 281.165 230.145C280.97 230.08 280.765 230.013 280.55 229.943C280.135 229.803 279.83 229.628 279.635 229.418C279.44 229.208 279.342 228.935 279.342 228.6C279.342 228.315 279.407 228.065 279.537 227.85C279.672 227.635 279.862 227.468 280.107 227.348C280.357 227.223 280.652 227.16 280.992 227.16C281.327 227.16 281.617 227.223 281.862 227.348C282.112 227.473 282.307 227.645 282.447 227.865C282.587 228.08 282.657 228.33 282.657 228.615H281.997C281.997 228.47 281.96 228.328 281.885 228.188C281.81 228.048 281.695 227.933 281.54 227.843C281.39 227.748 281.2 227.7 280.97 227.7C280.78 227.695 280.61 227.728 280.46 227.798C280.315 227.863 280.2 227.958 280.115 228.083C280.035 228.208 279.995 228.36 279.995 228.54C279.995 228.71 280.03 228.848 280.1 228.953C280.175 229.058 280.28 229.148 280.415 229.223C280.555 229.293 280.717 229.358 280.902 229.418C281.087 229.478 281.292 229.545 281.517 229.62C281.772 229.705 281.997 229.81 282.192 229.935C282.392 230.055 282.547 230.21 282.657 230.4C282.772 230.59 282.83 230.833 282.83 231.128C282.83 231.378 282.762 231.615 282.627 231.84C282.497 232.06 282.302 232.24 282.042 232.38C281.782 232.52 281.455 232.59 281.06 232.59Z" fill="#9CD07B"/>
<path d="M200.597 308.15C199.747 308.15 199.01 307.963 198.385 307.588C197.768 307.204 197.293 306.675 196.96 306C196.626 305.317 196.46 304.525 196.46 303.625C196.46 302.725 196.626 301.937 196.96 301.262C197.293 300.579 197.768 300.05 198.385 299.675C199.01 299.292 199.747 299.1 200.597 299.1C201.597 299.1 202.41 299.338 203.035 299.812C203.66 300.287 204.06 300.958 204.235 301.825H203.072C202.939 301.283 202.668 300.85 202.26 300.525C201.851 300.192 201.297 300.025 200.597 300.025C199.972 300.025 199.43 300.171 198.972 300.463C198.514 300.746 198.16 301.158 197.91 301.7C197.66 302.233 197.535 302.875 197.535 303.625C197.535 304.375 197.66 305.021 197.91 305.562C198.16 306.096 198.514 306.509 198.972 306.8C199.43 307.084 199.972 307.225 200.597 307.225C201.297 307.225 201.851 307.067 202.26 306.75C202.668 306.425 202.939 305.996 203.072 305.463H204.235C204.06 306.304 203.66 306.963 203.035 307.438C202.41 307.912 201.597 308.15 200.597 308.15ZM207.745 308.15C207.236 308.15 206.811 308.062 206.47 307.887C206.128 307.704 205.874 307.467 205.707 307.175C205.54 306.875 205.457 306.55 205.457 306.2C205.457 305.775 205.565 305.417 205.782 305.125C206.007 304.825 206.32 304.6 206.72 304.45C207.128 304.291 207.607 304.213 208.157 304.213H209.82C209.82 303.821 209.757 303.496 209.632 303.238C209.515 302.971 209.34 302.771 209.107 302.637C208.882 302.504 208.599 302.438 208.257 302.438C207.857 302.438 207.511 302.538 207.22 302.738C206.928 302.938 206.749 303.234 206.682 303.625H205.607C205.657 303.175 205.807 302.8 206.057 302.5C206.315 302.192 206.64 301.959 207.032 301.8C207.424 301.634 207.832 301.55 208.257 301.55C208.84 301.55 209.324 301.659 209.707 301.875C210.099 302.083 210.39 302.379 210.582 302.762C210.774 303.137 210.87 303.583 210.87 304.1V308H209.932L209.87 306.887C209.786 307.062 209.678 307.229 209.545 307.387C209.42 307.537 209.27 307.671 209.095 307.787C208.92 307.896 208.72 307.984 208.495 308.05C208.278 308.117 208.028 308.15 207.745 308.15ZM207.907 307.262C208.199 307.262 208.461 307.204 208.695 307.088C208.936 306.963 209.14 306.796 209.307 306.588C209.474 306.371 209.599 306.134 209.682 305.875C209.774 305.616 209.82 305.346 209.82 305.062V305.025H208.245C207.836 305.025 207.507 305.075 207.257 305.175C207.007 305.267 206.828 305.4 206.72 305.575C206.611 305.741 206.557 305.934 206.557 306.15C206.557 306.375 206.607 306.571 206.707 306.738C206.815 306.904 206.97 307.034 207.17 307.125C207.378 307.216 207.624 307.262 207.907 307.262ZM212.494 308V301.7H213.444L213.519 302.9C213.661 302.617 213.84 302.375 214.056 302.175C214.281 301.975 214.548 301.821 214.856 301.713C215.173 301.604 215.531 301.55 215.931 301.55V302.65H215.544C215.277 302.65 215.023 302.687 214.781 302.762C214.54 302.829 214.323 302.941 214.131 303.1C213.948 303.258 213.802 303.475 213.694 303.75C213.594 304.016 213.544 304.35 213.544 304.75V308H212.494ZM219.663 308.15C219.055 308.15 218.522 308.008 218.063 307.725C217.605 307.433 217.251 307.037 217.001 306.537C216.751 306.037 216.626 305.471 216.626 304.838C216.626 304.204 216.751 303.642 217.001 303.15C217.251 302.65 217.605 302.258 218.063 301.975C218.53 301.691 219.068 301.55 219.676 301.55C220.193 301.55 220.643 301.654 221.026 301.863C221.418 302.071 221.718 302.363 221.926 302.738V299H222.976V308H222.026L221.938 306.963C221.805 307.171 221.634 307.367 221.426 307.55C221.218 307.725 220.968 307.871 220.676 307.988C220.384 308.096 220.047 308.15 219.663 308.15ZM219.788 307.238C220.205 307.238 220.572 307.138 220.888 306.938C221.205 306.737 221.451 306.463 221.626 306.113C221.801 305.754 221.888 305.333 221.888 304.85C221.888 304.375 221.801 303.958 221.626 303.6C221.451 303.241 221.205 302.962 220.888 302.762C220.572 302.562 220.205 302.463 219.788 302.463C219.38 302.463 219.018 302.562 218.701 302.762C218.384 302.962 218.138 303.241 217.963 303.6C217.788 303.958 217.701 304.375 217.701 304.85C217.701 305.333 217.788 305.754 217.963 306.113C218.138 306.463 218.384 306.737 218.701 306.938C219.018 307.138 219.38 307.238 219.788 307.238ZM228.108 308V299.25H230.933C231.616 299.25 232.175 299.366 232.608 299.6C233.041 299.825 233.362 300.129 233.571 300.512C233.779 300.896 233.883 301.329 233.883 301.812C233.883 302.279 233.775 302.708 233.558 303.1C233.35 303.491 233.025 303.804 232.583 304.037C232.141 304.271 231.575 304.387 230.883 304.387H229.158V308H228.108ZM232.733 308L230.808 304.088H231.983L233.971 308H232.733ZM229.158 303.562H230.858C231.525 303.562 232.012 303.4 232.321 303.075C232.637 302.75 232.796 302.333 232.796 301.825C232.796 301.308 232.641 300.9 232.333 300.6C232.033 300.291 231.537 300.137 230.846 300.137H229.158V303.562ZM237.852 308.15C237.26 308.15 236.735 308.013 236.277 307.738C235.827 307.463 235.472 307.079 235.214 306.588C234.956 306.088 234.827 305.508 234.827 304.85C234.827 304.183 234.952 303.604 235.202 303.113C235.46 302.621 235.818 302.238 236.277 301.963C236.743 301.688 237.277 301.55 237.877 301.55C238.493 301.55 239.014 301.688 239.439 301.963C239.872 302.238 240.202 302.6 240.427 303.05C240.66 303.492 240.777 303.979 240.777 304.512C240.777 304.596 240.777 304.684 240.777 304.775C240.777 304.867 240.772 304.971 240.764 305.088H235.614V304.275H239.752C239.727 303.7 239.535 303.25 239.177 302.925C238.827 302.6 238.385 302.438 237.852 302.438C237.493 302.438 237.16 302.521 236.852 302.688C236.552 302.846 236.31 303.084 236.127 303.4C235.943 303.709 235.852 304.096 235.852 304.562V304.912C235.852 305.429 235.943 305.863 236.127 306.213C236.318 306.563 236.564 306.825 236.864 307C237.172 307.175 237.502 307.262 237.852 307.262C238.293 307.262 238.656 307.166 238.939 306.975C239.231 306.775 239.439 306.509 239.564 306.175H240.602C240.502 306.55 240.327 306.887 240.077 307.188C239.827 307.488 239.514 307.725 239.139 307.9C238.772 308.067 238.343 308.15 237.852 308.15ZM244.569 308.15C244.044 308.15 243.585 308.062 243.194 307.887C242.81 307.712 242.502 307.471 242.269 307.162C242.044 306.846 241.906 306.475 241.856 306.05H242.931C242.973 306.267 243.06 306.467 243.194 306.65C243.327 306.834 243.506 306.983 243.731 307.1C243.964 307.208 244.248 307.262 244.581 307.262C244.873 307.262 245.114 307.221 245.306 307.137C245.498 307.046 245.639 306.925 245.731 306.775C245.831 306.625 245.881 306.462 245.881 306.287C245.881 306.029 245.819 305.833 245.694 305.7C245.577 305.566 245.402 305.462 245.169 305.387C244.935 305.304 244.652 305.234 244.319 305.175C244.044 305.125 243.773 305.058 243.506 304.975C243.239 304.891 243.002 304.784 242.794 304.65C242.585 304.509 242.419 304.337 242.294 304.137C242.177 303.937 242.119 303.692 242.119 303.4C242.119 303.042 242.21 302.725 242.394 302.45C242.577 302.166 242.839 301.946 243.181 301.787C243.531 301.629 243.935 301.55 244.394 301.55C245.069 301.55 245.614 301.712 246.031 302.037C246.448 302.362 246.694 302.833 246.769 303.45H245.731C245.689 303.133 245.552 302.888 245.319 302.713C245.094 302.529 244.781 302.438 244.381 302.438C243.989 302.438 243.689 302.517 243.481 302.675C243.281 302.834 243.181 303.042 243.181 303.3C243.181 303.467 243.235 303.617 243.344 303.75C243.46 303.875 243.627 303.983 243.844 304.075C244.069 304.166 244.344 304.242 244.669 304.3C245.085 304.375 245.464 304.475 245.806 304.6C246.148 304.725 246.423 304.912 246.631 305.162C246.848 305.404 246.956 305.75 246.956 306.2C246.956 306.591 246.856 306.933 246.656 307.225C246.464 307.516 246.189 307.746 245.831 307.912C245.473 308.071 245.052 308.15 244.569 308.15ZM251.281 308.15C250.697 308.15 250.172 308.016 249.706 307.75C249.239 307.475 248.872 307.091 248.606 306.6C248.339 306.1 248.206 305.521 248.206 304.863C248.206 304.188 248.339 303.604 248.606 303.113C248.881 302.613 249.251 302.229 249.718 301.963C250.193 301.688 250.722 301.55 251.306 301.55C251.906 301.55 252.435 301.688 252.893 301.963C253.36 302.229 253.726 302.613 253.993 303.113C254.268 303.604 254.406 304.183 254.406 304.85C254.406 305.516 254.268 306.1 253.993 306.6C253.718 307.091 253.347 307.475 252.881 307.75C252.414 308.016 251.881 308.15 251.281 308.15ZM251.293 307.25C251.651 307.25 251.985 307.163 252.293 306.988C252.601 306.804 252.851 306.534 253.043 306.175C253.235 305.817 253.331 305.375 253.331 304.85C253.331 304.316 253.235 303.875 253.043 303.525C252.86 303.167 252.614 302.9 252.306 302.725C252.006 302.541 251.672 302.45 251.306 302.45C250.956 302.45 250.622 302.541 250.306 302.725C249.997 302.9 249.747 303.167 249.556 303.525C249.372 303.875 249.281 304.316 249.281 304.85C249.281 305.375 249.372 305.817 249.556 306.175C249.747 306.534 249.993 306.804 250.293 306.988C250.601 307.163 250.935 307.25 251.293 307.25ZM258.165 308.15C257.682 308.15 257.257 308.054 256.89 307.863C256.532 307.671 256.253 307.375 256.053 306.975C255.861 306.575 255.765 306.075 255.765 305.475V301.7H256.815V305.363C256.815 305.988 256.953 306.459 257.228 306.775C257.503 307.092 257.89 307.25 258.39 307.25C258.74 307.25 259.057 307.167 259.34 307C259.624 306.825 259.844 306.579 260.003 306.262C260.169 305.937 260.253 305.541 260.253 305.075V301.7H261.303V308H260.353L260.29 306.9C260.099 307.292 259.815 307.6 259.44 307.825C259.065 308.041 258.64 308.15 258.165 308.15ZM263.043 308V301.7H263.993L264.068 302.9C264.21 302.617 264.389 302.375 264.606 302.175C264.831 301.975 265.097 301.821 265.406 301.713C265.722 301.604 266.081 301.55 266.481 301.55V302.65H266.093C265.827 302.65 265.572 302.687 265.331 302.762C265.089 302.829 264.872 302.941 264.681 303.1C264.497 303.258 264.352 303.475 264.243 303.75C264.143 304.016 264.093 304.35 264.093 304.75V308H263.043ZM270.275 308.15C269.684 308.15 269.15 308.013 268.675 307.738C268.209 307.463 267.842 307.079 267.575 306.588C267.309 306.088 267.175 305.513 267.175 304.863C267.175 304.196 267.309 303.616 267.575 303.125C267.842 302.634 268.209 302.25 268.675 301.975C269.15 301.691 269.684 301.55 270.275 301.55C271.025 301.55 271.65 301.746 272.15 302.137C272.65 302.521 272.967 303.038 273.1 303.688H272.025C271.942 303.296 271.738 302.992 271.413 302.775C271.088 302.559 270.704 302.45 270.263 302.45C269.904 302.45 269.571 302.541 269.263 302.725C268.954 302.9 268.709 303.167 268.525 303.525C268.342 303.884 268.25 304.325 268.25 304.85C268.25 305.241 268.304 305.592 268.413 305.9C268.521 306.2 268.667 306.45 268.85 306.65C269.034 306.85 269.246 307.004 269.488 307.113C269.738 307.213 269.996 307.262 270.263 307.262C270.563 307.262 270.834 307.216 271.075 307.125C271.317 307.025 271.521 306.879 271.688 306.688C271.854 306.496 271.967 306.271 272.025 306.012H273.1C272.967 306.646 272.646 307.162 272.138 307.562C271.638 307.954 271.017 308.15 270.275 308.15ZM277.354 308.15C276.762 308.15 276.237 308.013 275.779 307.738C275.329 307.463 274.974 307.079 274.716 306.588C274.458 306.088 274.329 305.508 274.329 304.85C274.329 304.183 274.454 303.604 274.704 303.113C274.962 302.621 275.32 302.238 275.779 301.963C276.245 301.688 276.779 301.55 277.379 301.55C277.995 301.55 278.516 301.688 278.941 301.963C279.374 302.238 279.704 302.6 279.929 303.05C280.162 303.492 280.279 303.979 280.279 304.512C280.279 304.596 280.279 304.684 280.279 304.775C280.279 304.867 280.274 304.971 280.266 305.088H275.116V304.275H279.254C279.229 303.7 279.037 303.25 278.679 302.925C278.329 302.6 277.887 302.438 277.354 302.438C276.995 302.438 276.662 302.521 276.354 302.688C276.054 302.846 275.812 303.084 275.629 303.4C275.445 303.709 275.354 304.096 275.354 304.562V304.912C275.354 305.429 275.445 305.863 275.629 306.213C275.82 306.563 276.066 306.825 276.366 307C276.674 307.175 277.004 307.262 277.354 307.262C277.795 307.262 278.158 307.166 278.441 306.975C278.733 306.775 278.941 306.509 279.066 306.175H280.104C280.004 306.55 279.829 306.887 279.579 307.188C279.329 307.488 279.016 307.725 278.641 307.9C278.274 308.067 277.845 308.15 277.354 308.15ZM203.224 324.5V315.75H204.449L207.537 321.863L210.637 315.75H211.874V324.5H210.824V317.625L207.937 323.275H207.149L204.274 317.65V324.5H203.224ZM215.722 324.65C215.214 324.65 214.789 324.562 214.447 324.387C214.105 324.204 213.851 323.967 213.684 323.675C213.518 323.375 213.434 323.05 213.434 322.7C213.434 322.275 213.543 321.917 213.759 321.625C213.984 321.325 214.297 321.1 214.697 320.95C215.105 320.791 215.584 320.713 216.134 320.713H217.797C217.797 320.321 217.734 319.996 217.609 319.738C217.493 319.471 217.318 319.271 217.084 319.137C216.859 319.004 216.576 318.938 216.234 318.938C215.834 318.938 215.489 319.038 215.197 319.238C214.905 319.438 214.726 319.734 214.659 320.125H213.584C213.634 319.675 213.784 319.3 214.034 319C214.293 318.692 214.618 318.459 215.009 318.3C215.401 318.134 215.809 318.05 216.234 318.05C216.818 318.05 217.301 318.159 217.684 318.375C218.076 318.583 218.368 318.879 218.559 319.262C218.751 319.637 218.847 320.083 218.847 320.6V324.5H217.909L217.847 323.387C217.764 323.562 217.655 323.729 217.522 323.887C217.397 324.037 217.247 324.171 217.072 324.288C216.897 324.396 216.697 324.484 216.472 324.55C216.255 324.617 216.005 324.65 215.722 324.65ZM215.884 323.762C216.176 323.762 216.439 323.704 216.672 323.587C216.914 323.462 217.118 323.296 217.284 323.087C217.451 322.871 217.576 322.634 217.659 322.375C217.751 322.116 217.797 321.846 217.797 321.562V321.525H216.222C215.814 321.525 215.484 321.575 215.234 321.675C214.984 321.767 214.805 321.9 214.697 322.075C214.589 322.241 214.534 322.434 214.534 322.65C214.534 322.875 214.584 323.071 214.684 323.238C214.793 323.404 214.947 323.534 215.147 323.625C215.355 323.716 215.601 323.762 215.884 323.762ZM220.471 324.5V318.2H221.421L221.471 319.3C221.671 318.909 221.955 318.604 222.321 318.387C222.696 318.162 223.121 318.05 223.596 318.05C224.088 318.05 224.513 318.15 224.871 318.35C225.23 318.541 225.509 318.838 225.709 319.238C225.909 319.629 226.009 320.129 226.009 320.738V324.5H224.959V320.85C224.959 320.216 224.817 319.742 224.534 319.425C224.259 319.109 223.867 318.95 223.359 318.95C223.009 318.95 222.696 319.038 222.421 319.213C222.146 319.379 221.925 319.625 221.759 319.95C221.6 320.266 221.521 320.662 221.521 321.137V324.5H220.471ZM229.699 324.65C229.191 324.65 228.766 324.562 228.424 324.387C228.082 324.204 227.828 323.967 227.661 323.675C227.495 323.375 227.411 323.05 227.411 322.7C227.411 322.275 227.52 321.917 227.736 321.625C227.961 321.325 228.274 321.1 228.674 320.95C229.082 320.791 229.561 320.713 230.111 320.713H231.774C231.774 320.321 231.711 319.996 231.586 319.738C231.47 319.471 231.295 319.271 231.061 319.137C230.836 319.004 230.553 318.938 230.211 318.938C229.811 318.938 229.466 319.038 229.174 319.238C228.882 319.438 228.703 319.734 228.636 320.125H227.561C227.611 319.675 227.761 319.3 228.011 319C228.27 318.692 228.595 318.459 228.986 318.3C229.378 318.134 229.786 318.05 230.211 318.05C230.795 318.05 231.278 318.159 231.661 318.375C232.053 318.583 232.345 318.879 232.536 319.262C232.728 319.637 232.824 320.083 232.824 320.6V324.5H231.886L231.824 323.387C231.741 323.562 231.632 323.729 231.499 323.887C231.374 324.037 231.224 324.171 231.049 324.288C230.874 324.396 230.674 324.484 230.449 324.55C230.232 324.617 229.982 324.65 229.699 324.65ZM229.861 323.762C230.153 323.762 230.416 323.704 230.649 323.587C230.891 323.462 231.095 323.296 231.261 323.087C231.428 322.871 231.553 322.634 231.636 322.375C231.728 322.116 231.774 321.846 231.774 321.562V321.525H230.199C229.791 321.525 229.461 321.575 229.211 321.675C228.961 321.767 228.782 321.9 228.674 322.075C228.566 322.241 228.511 322.434 228.511 322.65C228.511 322.875 228.561 323.071 228.661 323.238C228.77 323.404 228.924 323.534 229.124 323.625C229.332 323.716 229.578 323.762 229.861 323.762ZM236.936 327.4C236.369 327.4 235.865 327.325 235.423 327.175C234.99 327.034 234.652 326.812 234.411 326.512C234.169 326.212 234.048 325.841 234.048 325.4C234.048 325.208 234.086 325.004 234.161 324.788C234.244 324.571 234.382 324.358 234.573 324.15C234.773 323.941 235.052 323.754 235.411 323.587L236.136 324.012C235.694 324.196 235.407 324.404 235.273 324.637C235.14 324.879 235.073 325.1 235.073 325.3C235.073 325.575 235.152 325.804 235.311 325.988C235.469 326.171 235.69 326.308 235.973 326.4C236.257 326.491 236.577 326.538 236.936 326.538C237.294 326.538 237.602 326.487 237.861 326.387C238.119 326.287 238.319 326.146 238.461 325.962C238.602 325.779 238.673 325.562 238.673 325.312C238.673 325.021 238.565 324.775 238.348 324.575C238.132 324.383 237.719 324.271 237.111 324.238C236.619 324.204 236.207 324.159 235.873 324.1C235.54 324.042 235.265 323.975 235.048 323.9C234.832 323.816 234.648 323.725 234.498 323.625C234.357 323.525 234.227 323.421 234.111 323.312V323.025L235.323 321.825L236.236 322.15L234.986 323.275L235.148 322.838C235.24 322.904 235.327 322.966 235.411 323.025C235.494 323.083 235.607 323.134 235.748 323.175C235.89 323.217 236.086 323.254 236.336 323.288C236.594 323.321 236.932 323.354 237.348 323.387C237.923 323.429 238.382 323.529 238.723 323.688C239.073 323.846 239.323 324.058 239.473 324.325C239.632 324.591 239.711 324.908 239.711 325.275C239.711 325.633 239.611 325.971 239.411 326.288C239.219 326.613 238.919 326.879 238.511 327.087C238.102 327.296 237.577 327.4 236.936 327.4ZM236.923 322.525C236.398 322.525 235.948 322.425 235.573 322.225C235.207 322.025 234.927 321.759 234.736 321.425C234.544 321.084 234.448 320.704 234.448 320.287C234.448 319.871 234.544 319.496 234.736 319.162C234.936 318.829 235.219 318.563 235.586 318.363C235.952 318.154 236.398 318.05 236.923 318.05C237.448 318.05 237.894 318.154 238.261 318.363C238.627 318.563 238.907 318.829 239.098 319.162C239.29 319.496 239.386 319.871 239.386 320.287C239.386 320.704 239.29 321.084 239.098 321.425C238.907 321.759 238.627 322.025 238.261 322.225C237.894 322.425 237.448 322.525 236.923 322.525ZM236.923 321.662C237.373 321.662 237.727 321.546 237.986 321.312C238.244 321.079 238.373 320.737 238.373 320.287C238.373 319.846 238.244 319.509 237.986 319.275C237.727 319.042 237.373 318.925 236.923 318.925C236.482 318.925 236.123 319.042 235.848 319.275C235.582 319.509 235.448 319.846 235.448 320.287C235.448 320.737 235.582 321.079 235.848 321.312C236.115 321.546 236.473 321.662 236.923 321.662ZM237.948 319.088L237.636 318.2H240.211V318.988L237.948 319.088ZM243.937 324.65C243.345 324.65 242.82 324.513 242.362 324.238C241.912 323.963 241.558 323.579 241.299 323.087C241.041 322.587 240.912 322.008 240.912 321.35C240.912 320.683 241.037 320.104 241.287 319.613C241.545 319.121 241.903 318.738 242.362 318.463C242.828 318.188 243.362 318.05 243.962 318.05C244.578 318.05 245.099 318.188 245.524 318.463C245.958 318.738 246.287 319.1 246.512 319.55C246.745 319.992 246.862 320.479 246.862 321.012C246.862 321.096 246.862 321.184 246.862 321.275C246.862 321.367 246.858 321.471 246.849 321.588H241.699V320.775H245.837C245.812 320.2 245.62 319.75 245.262 319.425C244.912 319.1 244.47 318.938 243.937 318.938C243.578 318.938 243.245 319.021 242.937 319.188C242.637 319.346 242.395 319.584 242.212 319.9C242.028 320.209 241.937 320.596 241.937 321.062V321.412C241.937 321.929 242.028 322.363 242.212 322.713C242.403 323.063 242.649 323.325 242.949 323.5C243.258 323.675 243.587 323.762 243.937 323.762C244.378 323.762 244.741 323.667 245.024 323.475C245.316 323.275 245.524 323.009 245.649 322.675H246.687C246.587 323.05 246.412 323.387 246.162 323.688C245.912 323.988 245.599 324.225 245.224 324.4C244.858 324.566 244.428 324.65 243.937 324.65ZM248.279 324.5V318.2H249.229L249.291 319.1C249.491 318.775 249.758 318.521 250.091 318.338C250.433 318.146 250.804 318.05 251.204 318.05C251.529 318.05 251.82 318.096 252.079 318.188C252.345 318.271 252.579 318.404 252.779 318.588C252.979 318.763 253.141 318.987 253.266 319.262C253.483 318.879 253.779 318.583 254.154 318.375C254.537 318.159 254.945 318.05 255.379 318.05C255.862 318.05 256.283 318.15 256.641 318.35C257.008 318.541 257.287 318.838 257.479 319.238C257.679 319.629 257.779 320.129 257.779 320.738V324.5H256.741V320.85C256.741 320.216 256.612 319.742 256.354 319.425C256.095 319.109 255.733 318.95 255.266 318.95C254.941 318.95 254.65 319.038 254.391 319.213C254.133 319.379 253.929 319.625 253.779 319.95C253.629 320.275 253.554 320.675 253.554 321.15V324.5H252.504V320.85C252.504 320.216 252.375 319.742 252.116 319.425C251.858 319.109 251.491 318.95 251.016 318.95C250.7 318.95 250.412 319.038 250.154 319.213C249.904 319.379 249.704 319.625 249.554 319.95C249.404 320.275 249.329 320.675 249.329 321.15V324.5H248.279ZM262.174 324.65C261.582 324.65 261.057 324.513 260.599 324.238C260.149 323.963 259.795 323.579 259.537 323.087C259.278 322.587 259.149 322.008 259.149 321.35C259.149 320.683 259.274 320.104 259.524 319.613C259.782 319.121 260.141 318.738 260.599 318.463C261.066 318.188 261.599 318.05 262.199 318.05C262.816 318.05 263.337 318.188 263.762 318.463C264.195 318.738 264.524 319.1 264.749 319.55C264.982 319.992 265.099 320.479 265.099 321.012C265.099 321.096 265.099 321.184 265.099 321.275C265.099 321.367 265.095 321.471 265.087 321.588H259.937V320.775H264.074C264.049 320.2 263.857 319.75 263.499 319.425C263.149 319.1 262.707 318.938 262.174 318.938C261.816 318.938 261.482 319.021 261.174 319.188C260.874 319.346 260.632 319.584 260.449 319.9C260.266 320.209 260.174 320.596 260.174 321.062V321.412C260.174 321.929 260.266 322.363 260.449 322.713C260.641 323.063 260.887 323.325 261.187 323.5C261.495 323.675 261.824 323.762 262.174 323.762C262.616 323.762 262.978 323.667 263.262 323.475C263.553 323.275 263.762 323.009 263.887 322.675H264.924C264.824 323.05 264.649 323.387 264.399 323.688C264.149 323.988 263.837 324.225 263.462 324.4C263.095 324.566 262.666 324.65 262.174 324.65ZM266.516 324.5V318.2H267.466L267.516 319.3C267.716 318.909 267.999 318.604 268.366 318.387C268.741 318.162 269.166 318.05 269.641 318.05C270.133 318.05 270.558 318.15 270.916 318.35C271.274 318.541 271.554 318.838 271.754 319.238C271.954 319.629 272.054 320.129 272.054 320.738V324.5H271.004V320.85C271.004 320.216 270.862 319.742 270.579 319.425C270.304 319.109 269.912 318.95 269.404 318.95C269.054 318.95 268.741 319.038 268.466 319.213C268.191 319.379 267.97 319.625 267.804 319.95C267.645 320.266 267.566 320.662 267.566 321.137V324.5H266.516ZM276.169 324.5C275.794 324.5 275.469 324.441 275.194 324.325C274.919 324.208 274.706 324.013 274.556 323.738C274.415 323.454 274.344 323.075 274.344 322.6V319.088H273.244V318.2H274.344L274.481 316.675H275.394V318.2H277.219V319.088H275.394V322.6C275.394 322.991 275.473 323.258 275.631 323.4C275.79 323.533 276.069 323.6 276.469 323.6H277.144V324.5H276.169ZM193.269 341V332.25H198.682V333.113H194.319V336.163H198.307V337.012H194.319V340.137H198.682V341H193.269ZM203.112 341.15C202.52 341.15 201.987 341.013 201.512 340.738C201.045 340.463 200.679 340.079 200.412 339.587C200.145 339.087 200.012 338.513 200.012 337.863C200.012 337.196 200.145 336.616 200.412 336.125C200.679 335.634 201.045 335.25 201.512 334.975C201.987 334.692 202.52 334.55 203.112 334.55C203.862 334.55 204.487 334.746 204.987 335.137C205.487 335.521 205.804 336.038 205.937 336.688H204.862C204.779 336.296 204.575 335.991 204.25 335.775C203.925 335.558 203.541 335.45 203.1 335.45C202.741 335.45 202.408 335.542 202.1 335.725C201.791 335.9 201.545 336.166 201.362 336.525C201.179 336.883 201.087 337.325 201.087 337.85C201.087 338.242 201.141 338.591 201.25 338.9C201.358 339.2 201.504 339.45 201.687 339.65C201.87 339.85 202.083 340.004 202.325 340.113C202.575 340.213 202.833 340.262 203.1 340.262C203.4 340.262 203.67 340.216 203.912 340.125C204.154 340.025 204.358 339.879 204.525 339.688C204.691 339.496 204.804 339.271 204.862 339.012H205.937C205.804 339.646 205.483 340.162 204.975 340.562C204.475 340.954 203.854 341.15 203.112 341.15ZM210.24 341.15C209.657 341.15 209.132 341.016 208.665 340.75C208.199 340.475 207.832 340.092 207.565 339.6C207.299 339.1 207.165 338.521 207.165 337.863C207.165 337.188 207.299 336.604 207.565 336.113C207.84 335.613 208.211 335.229 208.678 334.962C209.153 334.687 209.682 334.55 210.265 334.55C210.865 334.55 211.395 334.687 211.853 334.962C212.32 335.229 212.686 335.613 212.953 336.113C213.228 336.604 213.365 337.184 213.365 337.85C213.365 338.517 213.228 339.1 212.953 339.6C212.678 340.092 212.307 340.475 211.84 340.75C211.374 341.016 210.84 341.15 210.24 341.15ZM210.253 340.25C210.611 340.25 210.945 340.163 211.253 339.988C211.561 339.804 211.811 339.534 212.003 339.175C212.195 338.817 212.29 338.375 212.29 337.85C212.29 337.317 212.195 336.875 212.003 336.525C211.82 336.166 211.574 335.9 211.265 335.725C210.965 335.542 210.632 335.45 210.265 335.45C209.915 335.45 209.582 335.542 209.265 335.725C208.957 335.9 208.707 336.166 208.515 336.525C208.332 336.875 208.24 337.317 208.24 337.85C208.24 338.375 208.332 338.817 208.515 339.175C208.707 339.534 208.953 339.804 209.253 339.988C209.561 340.163 209.895 340.25 210.253 340.25ZM214.838 341V334.7H215.788L215.838 335.8C216.038 335.409 216.321 335.104 216.688 334.887C217.063 334.662 217.488 334.55 217.963 334.55C218.454 334.55 218.879 334.65 219.238 334.85C219.596 335.042 219.875 335.338 220.075 335.738C220.275 336.129 220.375 336.629 220.375 337.238V341H219.325V337.35C219.325 336.717 219.183 336.242 218.9 335.925C218.625 335.609 218.233 335.45 217.725 335.45C217.375 335.45 217.063 335.537 216.788 335.712C216.513 335.879 216.292 336.125 216.125 336.45C215.967 336.766 215.888 337.162 215.888 337.637V341H214.838ZM224.828 341.15C224.245 341.15 223.72 341.016 223.253 340.75C222.786 340.475 222.42 340.092 222.153 339.6C221.886 339.1 221.753 338.521 221.753 337.863C221.753 337.188 221.886 336.604 222.153 336.113C222.428 335.613 222.799 335.229 223.265 334.962C223.74 334.687 224.27 334.55 224.853 334.55C225.453 334.55 225.982 334.687 226.44 334.962C226.907 335.229 227.274 335.613 227.54 336.113C227.815 336.604 227.953 337.184 227.953 337.85C227.953 338.517 227.815 339.1 227.54 339.6C227.265 340.092 226.895 340.475 226.428 340.75C225.961 341.016 225.428 341.15 224.828 341.15ZM224.84 340.25C225.199 340.25 225.532 340.163 225.84 339.988C226.149 339.804 226.399 339.534 226.59 339.175C226.782 338.817 226.878 338.375 226.878 337.85C226.878 337.317 226.782 336.875 226.59 336.525C226.407 336.166 226.161 335.9 225.853 335.725C225.553 335.542 225.22 335.45 224.853 335.45C224.503 335.45 224.17 335.542 223.853 335.725C223.545 335.9 223.295 336.166 223.103 336.525C222.92 336.875 222.828 337.317 222.828 337.85C222.828 338.375 222.92 338.817 223.103 339.175C223.295 339.534 223.54 339.804 223.84 339.988C224.149 340.163 224.482 340.25 224.84 340.25ZM229.425 341V334.7H230.375L230.438 335.6C230.638 335.275 230.904 335.021 231.238 334.837C231.579 334.646 231.95 334.55 232.35 334.55C232.675 334.55 232.967 334.596 233.225 334.688C233.492 334.771 233.725 334.904 233.925 335.087C234.125 335.262 234.288 335.487 234.413 335.762C234.629 335.379 234.925 335.083 235.3 334.875C235.683 334.659 236.092 334.55 236.525 334.55C237.008 334.55 237.429 334.65 237.788 334.85C238.154 335.042 238.433 335.338 238.625 335.738C238.825 336.129 238.925 336.629 238.925 337.238V341H237.888V337.35C237.888 336.717 237.758 336.242 237.5 335.925C237.242 335.609 236.879 335.45 236.413 335.45C236.088 335.45 235.796 335.537 235.538 335.712C235.279 335.879 235.075 336.125 234.925 336.45C234.775 336.775 234.7 337.175 234.7 337.65V341H233.65V337.35C233.65 336.717 233.521 336.242 233.263 335.925C233.004 335.609 232.638 335.45 232.163 335.45C231.846 335.45 231.558 335.537 231.3 335.712C231.05 335.879 230.85 336.125 230.7 336.45C230.55 336.775 230.475 337.175 230.475 337.65V341H229.425ZM240.658 341V334.7H241.708V341H240.658ZM241.183 333.363C240.975 333.363 240.8 333.296 240.658 333.163C240.525 333.021 240.458 332.846 240.458 332.637C240.458 332.429 240.525 332.262 240.658 332.137C240.8 332.004 240.975 331.938 241.183 331.938C241.383 331.938 241.554 332.004 241.695 332.137C241.837 332.262 241.908 332.429 241.908 332.637C241.908 332.846 241.837 333.021 241.695 333.163C241.554 333.296 241.383 333.363 241.183 333.363ZM246.398 341.15C245.807 341.15 245.273 341.013 244.798 340.738C244.332 340.463 243.965 340.079 243.698 339.587C243.432 339.087 243.298 338.513 243.298 337.863C243.298 337.196 243.432 336.616 243.698 336.125C243.965 335.634 244.332 335.25 244.798 334.975C245.273 334.692 245.807 334.55 246.398 334.55C247.148 334.55 247.773 334.746 248.273 335.137C248.773 335.521 249.09 336.038 249.223 336.688H248.148C248.065 336.296 247.861 335.991 247.536 335.775C247.211 335.558 246.827 335.45 246.386 335.45C246.027 335.45 245.694 335.542 245.386 335.725C245.077 335.9 244.832 336.166 244.648 336.525C244.465 336.883 244.373 337.325 244.373 337.85C244.373 338.242 244.427 338.591 244.536 338.9C244.644 339.2 244.79 339.45 244.973 339.65C245.157 339.85 245.369 340.004 245.611 340.113C245.861 340.213 246.119 340.262 246.386 340.262C246.686 340.262 246.957 340.216 247.198 340.125C247.44 340.025 247.644 339.879 247.811 339.688C247.977 339.496 248.09 339.271 248.148 339.012H249.223C249.09 339.646 248.769 340.162 248.261 340.562C247.761 340.954 247.14 341.15 246.398 341.15ZM257.859 341.15C257.043 341.15 256.326 340.962 255.709 340.587C255.093 340.204 254.614 339.675 254.272 339C253.93 338.325 253.759 337.537 253.759 336.637C253.759 335.746 253.93 334.958 254.272 334.275C254.622 333.591 255.114 333.059 255.747 332.675C256.389 332.292 257.143 332.1 258.009 332.1C258.993 332.1 259.814 332.338 260.472 332.812C261.13 333.279 261.551 333.933 261.734 334.775H260.522C260.405 334.25 260.13 333.833 259.697 333.525C259.264 333.216 258.701 333.062 258.009 333.062C257.368 333.062 256.805 333.208 256.322 333.5C255.847 333.783 255.48 334.192 255.222 334.725C254.964 335.259 254.834 335.896 254.834 336.637C254.834 337.379 254.964 338.021 255.222 338.562C255.48 339.096 255.839 339.504 256.297 339.788C256.764 340.071 257.297 340.212 257.897 340.212C258.83 340.212 259.534 339.937 260.009 339.387C260.484 338.837 260.755 338.091 260.822 337.15H258.297V336.325H261.897V341H260.934L260.847 339.562C260.639 339.904 260.397 340.196 260.122 340.438C259.855 340.671 259.539 340.85 259.172 340.975C258.805 341.092 258.368 341.15 257.859 341.15ZM265.557 341.15C265.049 341.15 264.624 341.062 264.282 340.887C263.94 340.704 263.686 340.467 263.52 340.175C263.353 339.875 263.27 339.55 263.27 339.2C263.27 338.775 263.378 338.417 263.595 338.125C263.82 337.825 264.132 337.6 264.532 337.45C264.94 337.291 265.42 337.212 265.97 337.212H267.632C267.632 336.821 267.57 336.496 267.445 336.238C267.328 335.971 267.153 335.771 266.92 335.637C266.695 335.504 266.411 335.438 266.07 335.438C265.67 335.438 265.324 335.538 265.032 335.738C264.74 335.938 264.561 336.234 264.495 336.625H263.42C263.47 336.175 263.62 335.8 263.87 335.5C264.128 335.192 264.453 334.959 264.845 334.8C265.236 334.634 265.645 334.55 266.07 334.55C266.653 334.55 267.136 334.659 267.52 334.875C267.911 335.083 268.203 335.379 268.395 335.762C268.586 336.137 268.682 336.584 268.682 337.1V341H267.745L267.682 339.887C267.599 340.062 267.49 340.229 267.357 340.387C267.232 340.537 267.082 340.671 266.907 340.788C266.732 340.896 266.532 340.984 266.307 341.05C266.09 341.117 265.84 341.15 265.557 341.15ZM265.72 340.262C266.011 340.262 266.274 340.204 266.507 340.087C266.749 339.962 266.953 339.796 267.12 339.587C267.286 339.371 267.411 339.134 267.495 338.875C267.586 338.616 267.632 338.346 267.632 338.062V338.025H266.057C265.649 338.025 265.32 338.075 265.07 338.175C264.82 338.267 264.64 338.4 264.532 338.575C264.424 338.741 264.37 338.933 264.37 339.15C264.37 339.375 264.42 339.571 264.52 339.738C264.628 339.904 264.782 340.034 264.982 340.125C265.19 340.216 265.436 340.262 265.72 340.262ZM270.306 341V334.7H271.256L271.319 335.6C271.519 335.275 271.786 335.021 272.119 334.837C272.461 334.646 272.831 334.55 273.231 334.55C273.556 334.55 273.848 334.596 274.106 334.688C274.373 334.771 274.606 334.904 274.806 335.087C275.006 335.262 275.169 335.487 275.294 335.762C275.511 335.379 275.806 335.083 276.181 334.875C276.565 334.659 276.973 334.55 277.406 334.55C277.89 334.55 278.311 334.65 278.669 334.85C279.036 335.042 279.315 335.338 279.506 335.738C279.706 336.129 279.806 336.629 279.806 337.238V341H278.769V337.35C278.769 336.717 278.64 336.242 278.381 335.925C278.123 335.609 277.761 335.45 277.294 335.45C276.969 335.45 276.677 335.537 276.419 335.712C276.161 335.879 275.956 336.125 275.806 336.45C275.656 336.775 275.581 337.175 275.581 337.65V341H274.531V337.35C274.531 336.717 274.402 336.242 274.144 335.925C273.886 335.609 273.519 335.45 273.044 335.45C272.727 335.45 272.44 335.537 272.181 335.712C271.931 335.879 271.731 336.125 271.581 336.45C271.431 336.775 271.356 337.175 271.356 337.65V341H270.306ZM284.202 341.15C283.61 341.15 283.085 341.013 282.627 340.738C282.177 340.463 281.823 340.079 281.564 339.587C281.306 339.087 281.177 338.509 281.177 337.85C281.177 337.184 281.302 336.604 281.552 336.113C281.81 335.621 282.168 335.237 282.627 334.962C283.093 334.687 283.627 334.55 284.227 334.55C284.843 334.55 285.364 334.687 285.789 334.962C286.223 335.237 286.552 335.6 286.777 336.05C287.01 336.492 287.127 336.979 287.127 337.512C287.127 337.596 287.127 337.683 287.127 337.775C287.127 337.866 287.123 337.971 287.114 338.087H281.964V337.275H286.102C286.077 336.7 285.885 336.25 285.527 335.925C285.177 335.6 284.735 335.438 284.202 335.438C283.843 335.438 283.51 335.521 283.202 335.688C282.902 335.846 282.66 336.083 282.477 336.4C282.293 336.708 282.202 337.096 282.202 337.562V337.913C282.202 338.429 282.293 338.862 282.477 339.212C282.668 339.562 282.914 339.825 283.214 340C283.523 340.175 283.852 340.262 284.202 340.262C284.643 340.262 285.006 340.167 285.289 339.975C285.581 339.775 285.789 339.509 285.914 339.175H286.952C286.852 339.55 286.677 339.887 286.427 340.188C286.177 340.488 285.864 340.725 285.489 340.9C285.123 341.066 284.693 341.15 284.202 341.15Z" fill="#948D54"/>
<path d="M188.884 414V408.75H189.619L191.472 412.417L193.332 408.75H194.074V414H193.444V409.875L191.712 413.265H191.239L189.514 409.89V414H188.884ZM196.383 414.09C196.078 414.09 195.823 414.037 195.618 413.932C195.413 413.822 195.26 413.68 195.16 413.505C195.06 413.325 195.01 413.13 195.01 412.92C195.01 412.665 195.075 412.45 195.205 412.275C195.34 412.095 195.528 411.96 195.768 411.87C196.013 411.775 196.3 411.727 196.63 411.727H197.628C197.628 411.492 197.59 411.298 197.515 411.143C197.445 410.983 197.34 410.863 197.2 410.783C197.065 410.703 196.895 410.663 196.69 410.663C196.45 410.663 196.243 410.722 196.068 410.842C195.893 410.962 195.785 411.14 195.745 411.375H195.1C195.13 411.105 195.22 410.88 195.37 410.7C195.525 410.515 195.72 410.375 195.955 410.28C196.19 410.18 196.435 410.13 196.69 410.13C197.04 410.13 197.33 410.195 197.56 410.325C197.795 410.45 197.97 410.627 198.085 410.857C198.2 411.082 198.258 411.35 198.258 411.66V414H197.695L197.658 413.333C197.608 413.438 197.543 413.538 197.463 413.633C197.388 413.723 197.298 413.802 197.193 413.872C197.088 413.937 196.968 413.99 196.833 414.03C196.703 414.07 196.553 414.09 196.383 414.09ZM196.48 413.557C196.655 413.557 196.813 413.522 196.953 413.452C197.098 413.377 197.22 413.277 197.32 413.152C197.42 413.022 197.495 412.88 197.545 412.725C197.6 412.57 197.628 412.408 197.628 412.238V412.215H196.683C196.438 412.215 196.24 412.245 196.09 412.305C195.94 412.36 195.833 412.44 195.768 412.545C195.703 412.645 195.67 412.76 195.67 412.89C195.67 413.025 195.7 413.142 195.76 413.242C195.825 413.342 195.918 413.42 196.038 413.475C196.163 413.53 196.31 413.557 196.48 413.557ZM200.898 414.09C200.533 414.09 200.213 414.005 199.938 413.835C199.663 413.66 199.45 413.422 199.3 413.122C199.15 412.822 199.075 412.482 199.075 412.102C199.075 411.722 199.15 411.385 199.3 411.09C199.45 410.79 199.663 410.555 199.938 410.385C200.218 410.215 200.54 410.13 200.905 410.13C201.215 410.13 201.485 410.193 201.715 410.318C201.95 410.443 202.13 410.617 202.255 410.842V408.6H202.885V414H202.315L202.263 413.378C202.183 413.503 202.08 413.62 201.955 413.73C201.83 413.835 201.68 413.922 201.505 413.992C201.33 414.057 201.128 414.09 200.898 414.09ZM200.973 413.542C201.223 413.542 201.443 413.483 201.633 413.363C201.823 413.243 201.97 413.077 202.075 412.867C202.18 412.652 202.233 412.4 202.233 412.11C202.233 411.825 202.18 411.575 202.075 411.36C201.97 411.145 201.823 410.977 201.633 410.857C201.443 410.737 201.223 410.678 200.973 410.678C200.728 410.678 200.51 410.737 200.32 410.857C200.13 410.977 199.983 411.145 199.878 411.36C199.773 411.575 199.72 411.825 199.72 412.11C199.72 412.4 199.773 412.652 199.878 412.867C199.983 413.077 200.13 413.243 200.32 413.363C200.51 413.483 200.728 413.542 200.973 413.542ZM205.592 414.09C205.237 414.09 204.922 414.007 204.647 413.842C204.377 413.677 204.165 413.447 204.01 413.152C203.855 412.852 203.777 412.505 203.777 412.11C203.777 411.71 203.852 411.363 204.002 411.068C204.157 410.773 204.372 410.543 204.647 410.378C204.927 410.213 205.247 410.13 205.607 410.13C205.977 410.13 206.29 410.213 206.545 410.378C206.805 410.543 207.002 410.76 207.137 411.03C207.277 411.295 207.347 411.588 207.347 411.908C207.347 411.958 207.347 412.01 207.347 412.065C207.347 412.12 207.345 412.183 207.34 412.253H204.25V411.765H206.732C206.717 411.42 206.602 411.15 206.387 410.955C206.177 410.76 205.912 410.663 205.592 410.663C205.377 410.663 205.177 410.712 204.992 410.812C204.812 410.907 204.667 411.05 204.557 411.24C204.447 411.425 204.392 411.657 204.392 411.937V412.148C204.392 412.458 204.447 412.718 204.557 412.928C204.672 413.138 204.82 413.295 205 413.4C205.185 413.505 205.382 413.557 205.592 413.557C205.857 413.557 206.075 413.5 206.245 413.385C206.42 413.265 206.545 413.105 206.62 412.905H207.242C207.182 413.13 207.077 413.332 206.927 413.512C206.777 413.692 206.59 413.835 206.365 413.94C206.145 414.04 205.887 414.09 205.592 414.09ZM212.17 414.09C211.955 414.09 211.76 414.06 211.585 414C211.415 413.935 211.265 413.85 211.135 413.745C211.005 413.64 210.897 413.518 210.812 413.378L210.76 414H210.19V408.6H210.82V410.842C210.94 410.647 211.112 410.48 211.337 410.34C211.562 410.2 211.84 410.13 212.17 410.13C212.535 410.13 212.855 410.218 213.13 410.393C213.405 410.563 213.617 410.798 213.767 411.098C213.922 411.393 214 411.73 214 412.11C214 412.49 213.922 412.83 213.767 413.13C213.617 413.43 213.405 413.665 213.13 413.835C212.855 414.005 212.535 414.09 212.17 414.09ZM212.095 413.542C212.34 413.542 212.557 413.483 212.747 413.363C212.937 413.243 213.085 413.077 213.19 412.867C213.3 412.652 213.355 412.4 213.355 412.11C213.355 411.825 213.3 411.575 213.19 411.36C213.085 411.145 212.937 410.977 212.747 410.857C212.557 410.737 212.34 410.678 212.095 410.678C211.845 410.678 211.625 410.737 211.435 410.857C211.245 410.977 211.097 411.145 210.992 411.36C210.887 411.575 210.835 411.825 210.835 412.11C210.835 412.4 210.887 412.652 210.992 412.867C211.097 413.077 211.245 413.243 211.435 413.363C211.625 413.483 211.845 413.542 212.095 413.542ZM214.997 415.65L215.919 413.58H215.702L214.217 410.22H214.899L216.129 413.107L217.419 410.22H218.072L215.657 415.65H214.997ZM220.781 414V408.75H221.516L223.369 412.417L225.229 408.75H225.971V414H225.341V409.875L223.609 413.265H223.136L221.411 409.89V414H220.781ZM228.28 414.09C227.975 414.09 227.72 414.037 227.515 413.932C227.31 413.822 227.157 413.68 227.057 413.505C226.957 413.325 226.907 413.13 226.907 412.92C226.907 412.665 226.972 412.45 227.102 412.275C227.237 412.095 227.425 411.96 227.665 411.87C227.91 411.775 228.197 411.727 228.527 411.727H229.525C229.525 411.492 229.487 411.298 229.412 411.143C229.342 410.983 229.237 410.863 229.097 410.783C228.962 410.703 228.792 410.663 228.587 410.663C228.347 410.663 228.14 410.722 227.965 410.842C227.79 410.962 227.682 411.14 227.642 411.375H226.997C227.027 411.105 227.117 410.88 227.267 410.7C227.422 410.515 227.617 410.375 227.852 410.28C228.087 410.18 228.332 410.13 228.587 410.13C228.937 410.13 229.227 410.195 229.457 410.325C229.692 410.45 229.867 410.627 229.982 410.857C230.097 411.082 230.155 411.35 230.155 411.66V414H229.592L229.555 413.333C229.505 413.438 229.44 413.538 229.36 413.633C229.285 413.723 229.195 413.802 229.09 413.872C228.985 413.937 228.865 413.99 228.73 414.03C228.6 414.07 228.45 414.09 228.28 414.09ZM228.377 413.557C228.552 413.557 228.71 413.522 228.85 413.452C228.995 413.377 229.117 413.277 229.217 413.152C229.317 413.022 229.392 412.88 229.442 412.725C229.497 412.57 229.525 412.408 229.525 412.238V412.215H228.58C228.335 412.215 228.137 412.245 227.987 412.305C227.837 412.36 227.73 412.44 227.665 412.545C227.6 412.645 227.567 412.76 227.567 412.89C227.567 413.025 227.597 413.142 227.657 413.242C227.722 413.342 227.815 413.42 227.935 413.475C228.06 413.53 228.207 413.557 228.377 413.557ZM232.512 414C232.287 414 232.092 413.965 231.927 413.895C231.762 413.825 231.634 413.707 231.544 413.542C231.459 413.372 231.417 413.145 231.417 412.86V410.753H230.757V410.22H231.417L231.499 409.305H232.047V410.22H233.142V410.753H232.047V412.86C232.047 413.095 232.094 413.255 232.189 413.34C232.284 413.42 232.452 413.46 232.692 413.46H233.097V414H232.512ZM234.024 414V410.22H234.654V414H234.024ZM234.339 409.417C234.214 409.417 234.109 409.378 234.024 409.298C233.944 409.213 233.904 409.107 233.904 408.982C233.904 408.857 233.944 408.757 234.024 408.682C234.109 408.602 234.214 408.562 234.339 408.562C234.459 408.562 234.561 408.602 234.646 408.682C234.731 408.757 234.774 408.857 234.774 408.982C234.774 409.107 234.731 409.213 234.646 409.298C234.561 409.378 234.459 409.417 234.339 409.417ZM237.191 414.09C236.876 414.09 236.601 414.037 236.366 413.932C236.136 413.827 235.951 413.682 235.811 413.497C235.676 413.307 235.593 413.085 235.563 412.83H236.208C236.233 412.96 236.286 413.08 236.366 413.19C236.446 413.3 236.553 413.39 236.688 413.46C236.828 413.525 236.998 413.557 237.198 413.557C237.373 413.557 237.518 413.532 237.633 413.482C237.748 413.427 237.833 413.355 237.888 413.265C237.948 413.175 237.978 413.078 237.978 412.973C237.978 412.818 237.941 412.7 237.866 412.62C237.796 412.54 237.691 412.477 237.551 412.432C237.411 412.382 237.241 412.34 237.041 412.305C236.876 412.275 236.713 412.235 236.553 412.185C236.393 412.135 236.251 412.07 236.126 411.99C236.001 411.905 235.901 411.802 235.826 411.682C235.756 411.562 235.721 411.415 235.721 411.24C235.721 411.025 235.776 410.835 235.886 410.67C235.996 410.5 236.153 410.368 236.358 410.273C236.568 410.178 236.811 410.13 237.086 410.13C237.491 410.13 237.818 410.228 238.068 410.423C238.318 410.618 238.466 410.9 238.511 411.27H237.888C237.863 411.08 237.781 410.932 237.641 410.827C237.506 410.717 237.318 410.663 237.078 410.663C236.843 410.663 236.663 410.71 236.538 410.805C236.418 410.9 236.358 411.025 236.358 411.18C236.358 411.28 236.391 411.37 236.456 411.45C236.526 411.525 236.626 411.59 236.756 411.645C236.891 411.7 237.056 411.745 237.251 411.78C237.501 411.825 237.728 411.885 237.933 411.96C238.138 412.035 238.303 412.148 238.428 412.298C238.558 412.443 238.623 412.65 238.623 412.92C238.623 413.155 238.563 413.36 238.443 413.535C238.328 413.71 238.163 413.847 237.948 413.947C237.733 414.042 237.481 414.09 237.191 414.09ZM240.955 414.09C240.64 414.09 240.365 414.037 240.13 413.932C239.9 413.827 239.715 413.682 239.575 413.497C239.44 413.307 239.358 413.085 239.328 412.83H239.973C239.998 412.96 240.05 413.08 240.13 413.19C240.21 413.3 240.318 413.39 240.453 413.46C240.593 413.525 240.763 413.557 240.963 413.557C241.138 413.557 241.283 413.532 241.398 413.482C241.513 413.427 241.598 413.355 241.653 413.265C241.713 413.175 241.743 413.078 241.743 412.973C241.743 412.818 241.705 412.7 241.63 412.62C241.56 412.54 241.455 412.477 241.315 412.432C241.175 412.382 241.005 412.34 240.805 412.305C240.64 412.275 240.478 412.235 240.318 412.185C240.158 412.135 240.015 412.07 239.89 411.99C239.765 411.905 239.665 411.802 239.59 411.682C239.52 411.562 239.485 411.415 239.485 411.24C239.485 411.025 239.54 410.835 239.65 410.67C239.76 410.5 239.918 410.368 240.123 410.273C240.333 410.178 240.575 410.13 240.85 410.13C241.255 410.13 241.583 410.228 241.833 410.423C242.083 410.618 242.23 410.9 242.275 411.27H241.653C241.628 411.08 241.545 410.932 241.405 410.827C241.27 410.717 241.083 410.663 240.843 410.663C240.608 410.663 240.428 410.71 240.303 410.805C240.183 410.9 240.123 411.025 240.123 411.18C240.123 411.28 240.155 411.37 240.22 411.45C240.29 411.525 240.39 411.59 240.52 411.645C240.655 411.7 240.82 411.745 241.015 411.78C241.265 411.825 241.493 411.885 241.698 411.96C241.903 412.035 242.068 412.148 242.193 412.298C242.323 412.443 242.388 412.65 242.388 412.92C242.388 413.155 242.328 413.36 242.208 413.535C242.093 413.71 241.928 413.847 241.713 413.947C241.498 414.042 241.245 414.09 240.955 414.09ZM244.983 414.09C244.633 414.09 244.318 414.01 244.038 413.85C243.758 413.685 243.538 413.455 243.378 413.16C243.218 412.86 243.138 412.512 243.138 412.117C243.138 411.712 243.218 411.363 243.378 411.068C243.543 410.768 243.765 410.538 244.045 410.378C244.33 410.213 244.648 410.13 244.998 410.13C245.358 410.13 245.675 410.213 245.95 410.378C246.23 410.538 246.45 410.768 246.61 411.068C246.775 411.363 246.858 411.71 246.858 412.11C246.858 412.51 246.775 412.86 246.61 413.16C246.445 413.455 246.223 413.685 245.943 413.85C245.663 414.01 245.343 414.09 244.983 414.09ZM244.99 413.55C245.205 413.55 245.405 413.498 245.59 413.393C245.775 413.283 245.925 413.12 246.04 412.905C246.155 412.69 246.213 412.425 246.213 412.11C246.213 411.79 246.155 411.525 246.04 411.315C245.93 411.1 245.783 410.94 245.598 410.835C245.418 410.725 245.218 410.67 244.998 410.67C244.788 410.67 244.588 410.725 244.398 410.835C244.213 410.94 244.063 411.1 243.948 411.315C243.838 411.525 243.783 411.79 243.783 412.11C243.783 412.425 243.838 412.69 243.948 412.905C244.063 413.12 244.21 413.283 244.39 413.393C244.575 413.498 244.775 413.55 244.99 413.55ZM249.166 414.09C248.851 414.09 248.576 414.037 248.341 413.932C248.111 413.827 247.926 413.682 247.786 413.497C247.651 413.307 247.568 413.085 247.538 412.83H248.183C248.208 412.96 248.261 413.08 248.341 413.19C248.421 413.3 248.528 413.39 248.663 413.46C248.803 413.525 248.973 413.557 249.173 413.557C249.348 413.557 249.493 413.532 249.608 413.482C249.723 413.427 249.808 413.355 249.863 413.265C249.923 413.175 249.953 413.078 249.953 412.973C249.953 412.818 249.916 412.7 249.841 412.62C249.771 412.54 249.666 412.477 249.526 412.432C249.386 412.382 249.216 412.34 249.016 412.305C248.851 412.275 248.688 412.235 248.528 412.185C248.368 412.135 248.226 412.07 248.101 411.99C247.976 411.905 247.876 411.802 247.801 411.682C247.731 411.562 247.696 411.415 247.696 411.24C247.696 411.025 247.751 410.835 247.861 410.67C247.971 410.5 248.128 410.368 248.333 410.273C248.543 410.178 248.786 410.13 249.061 410.13C249.466 410.13 249.793 410.228 250.043 410.423C250.293 410.618 250.441 410.9 250.486 411.27H249.863C249.838 411.08 249.756 410.932 249.616 410.827C249.481 410.717 249.293 410.663 249.053 410.663C248.818 410.663 248.638 410.71 248.513 410.805C248.393 410.9 248.333 411.025 248.333 411.18C248.333 411.28 248.366 411.37 248.431 411.45C248.501 411.525 248.601 411.59 248.731 411.645C248.866 411.7 249.031 411.745 249.226 411.78C249.476 411.825 249.703 411.885 249.908 411.96C250.113 412.035 250.278 412.148 250.403 412.298C250.533 412.443 250.598 412.65 250.598 412.92C250.598 413.155 250.538 413.36 250.418 413.535C250.303 413.71 250.138 413.847 249.923 413.947C249.708 414.042 249.456 414.09 249.166 414.09ZM252.93 414.09C252.615 414.09 252.34 414.037 252.105 413.932C251.875 413.827 251.69 413.682 251.55 413.497C251.415 413.307 251.333 413.085 251.303 412.83H251.948C251.973 412.96 252.025 413.08 252.105 413.19C252.185 413.3 252.293 413.39 252.428 413.46C252.568 413.525 252.738 413.557 252.938 413.557C253.113 413.557 253.258 413.532 253.373 413.482C253.488 413.427 253.573 413.355 253.628 413.265C253.688 413.175 253.718 413.078 253.718 412.973C253.718 412.818 253.68 412.7 253.605 412.62C253.535 412.54 253.43 412.477 253.29 412.432C253.15 412.382 252.98 412.34 252.78 412.305C252.615 412.275 252.453 412.235 252.293 412.185C252.133 412.135 251.99 412.07 251.865 411.99C251.74 411.905 251.64 411.802 251.565 411.682C251.495 411.562 251.46 411.415 251.46 411.24C251.46 411.025 251.515 410.835 251.625 410.67C251.735 410.5 251.893 410.368 252.098 410.273C252.308 410.178 252.55 410.13 252.825 410.13C253.23 410.13 253.558 410.228 253.808 410.423C254.058 410.618 254.205 410.9 254.25 411.27H253.628C253.603 411.08 253.52 410.932 253.38 410.827C253.245 410.717 253.058 410.663 252.818 410.663C252.583 410.663 252.403 410.71 252.278 410.805C252.158 410.9 252.098 411.025 252.098 411.18C252.098 411.28 252.13 411.37 252.195 411.45C252.265 411.525 252.365 411.59 252.495 411.645C252.63 411.7 252.795 411.745 252.99 411.78C253.24 411.825 253.468 411.885 253.673 411.96C253.878 412.035 254.043 412.148 254.168 412.298C254.298 412.443 254.363 412.65 254.363 412.92C254.363 413.155 254.303 413.36 254.183 413.535C254.068 413.71 253.903 413.847 253.688 413.947C253.473 414.042 253.22 414.09 252.93 414.09ZM259.557 414.09C259.067 414.09 258.637 413.978 258.267 413.753C257.897 413.523 257.61 413.205 257.405 412.8C257.2 412.395 257.097 411.923 257.097 411.383C257.097 410.848 257.2 410.375 257.405 409.965C257.615 409.555 257.91 409.235 258.29 409.005C258.675 408.775 259.127 408.66 259.647 408.66C260.237 408.66 260.73 408.802 261.125 409.087C261.52 409.367 261.772 409.76 261.882 410.265H261.155C261.085 409.95 260.92 409.7 260.66 409.515C260.4 409.33 260.062 409.238 259.647 409.238C259.262 409.238 258.925 409.325 258.635 409.5C258.35 409.67 258.13 409.915 257.975 410.235C257.82 410.555 257.742 410.938 257.742 411.383C257.742 411.828 257.82 412.213 257.975 412.538C258.13 412.858 258.345 413.103 258.62 413.273C258.9 413.443 259.22 413.527 259.58 413.527C260.14 413.527 260.562 413.363 260.847 413.033C261.132 412.703 261.295 412.255 261.335 411.69H259.82V411.195H261.98V414H261.402L261.35 413.137C261.225 413.342 261.08 413.518 260.915 413.663C260.755 413.803 260.565 413.91 260.345 413.985C260.125 414.055 259.862 414.09 259.557 414.09ZM264.176 414.09C263.871 414.09 263.616 414.037 263.411 413.932C263.206 413.822 263.053 413.68 262.953 413.505C262.853 413.325 262.803 413.13 262.803 412.92C262.803 412.665 262.868 412.45 262.998 412.275C263.133 412.095 263.321 411.96 263.561 411.87C263.806 411.775 264.093 411.727 264.423 411.727H265.421C265.421 411.492 265.383 411.298 265.308 411.143C265.238 410.983 265.133 410.863 264.993 410.783C264.858 410.703 264.688 410.663 264.483 410.663C264.243 410.663 264.036 410.722 263.861 410.842C263.686 410.962 263.578 411.14 263.538 411.375H262.893C262.923 411.105 263.013 410.88 263.163 410.7C263.318 410.515 263.513 410.375 263.748 410.28C263.983 410.18 264.228 410.13 264.483 410.13C264.833 410.13 265.123 410.195 265.353 410.325C265.588 410.45 265.763 410.627 265.878 410.857C265.993 411.082 266.051 411.35 266.051 411.66V414H265.488L265.451 413.333C265.401 413.438 265.336 413.538 265.256 413.633C265.181 413.723 265.091 413.802 264.986 413.872C264.881 413.937 264.761 413.99 264.626 414.03C264.496 414.07 264.346 414.09 264.176 414.09ZM264.273 413.557C264.448 413.557 264.606 413.522 264.746 413.452C264.891 413.377 265.013 413.277 265.113 413.152C265.213 413.022 265.288 412.88 265.338 412.725C265.393 412.57 265.421 412.408 265.421 412.238V412.215H264.476C264.231 412.215 264.033 412.245 263.883 412.305C263.733 412.36 263.626 412.44 263.561 412.545C263.496 412.645 263.463 412.76 263.463 412.89C263.463 413.025 263.493 413.142 263.553 413.242C263.618 413.342 263.711 413.42 263.831 413.475C263.956 413.53 264.103 413.557 264.273 413.557ZM267.025 414V410.22H267.595L267.633 410.76C267.753 410.565 267.913 410.413 268.113 410.303C268.318 410.188 268.54 410.13 268.78 410.13C268.975 410.13 269.15 410.157 269.305 410.212C269.465 410.262 269.605 410.342 269.725 410.452C269.845 410.557 269.943 410.692 270.018 410.857C270.148 410.627 270.325 410.45 270.55 410.325C270.78 410.195 271.025 410.13 271.285 410.13C271.575 410.13 271.828 410.19 272.043 410.31C272.263 410.425 272.43 410.602 272.545 410.842C272.665 411.077 272.725 411.377 272.725 411.742V414H272.103V411.81C272.103 411.43 272.025 411.145 271.87 410.955C271.715 410.765 271.498 410.67 271.218 410.67C271.023 410.67 270.848 410.722 270.693 410.827C270.538 410.927 270.415 411.075 270.325 411.27C270.235 411.465 270.19 411.705 270.19 411.99V414H269.56V411.81C269.56 411.43 269.483 411.145 269.328 410.955C269.173 410.765 268.953 410.67 268.668 410.67C268.478 410.67 268.305 410.722 268.15 410.827C268 410.927 267.88 411.075 267.79 411.27C267.7 411.465 267.655 411.705 267.655 411.99V414H267.025ZM275.363 414.09C275.008 414.09 274.693 414.007 274.418 413.842C274.148 413.677 273.935 413.447 273.78 413.152C273.625 412.852 273.548 412.505 273.548 412.11C273.548 411.71 273.623 411.363 273.773 411.068C273.928 410.773 274.143 410.543 274.418 410.378C274.698 410.213 275.018 410.13 275.378 410.13C275.748 410.13 276.06 410.213 276.315 410.378C276.575 410.543 276.773 410.76 276.908 411.03C277.048 411.295 277.118 411.588 277.118 411.908C277.118 411.958 277.118 412.01 277.118 412.065C277.118 412.12 277.115 412.183 277.11 412.253H274.02V411.765H276.503C276.488 411.42 276.373 411.15 276.158 410.955C275.948 410.76 275.683 410.663 275.363 410.663C275.148 410.663 274.948 410.712 274.763 410.812C274.583 410.907 274.438 411.05 274.328 411.24C274.218 411.425 274.163 411.657 274.163 411.937V412.148C274.163 412.458 274.218 412.718 274.328 412.928C274.443 413.138 274.59 413.295 274.77 413.4C274.955 413.505 275.153 413.557 275.363 413.557C275.628 413.557 275.845 413.5 276.015 413.385C276.19 413.265 276.315 413.105 276.39 412.905H277.013C276.953 413.13 276.848 413.332 276.698 413.512C276.548 413.692 276.36 413.835 276.135 413.94C275.915 414.04 275.658 414.09 275.363 414.09ZM278.005 414V408.75H279.55C280.165 408.75 280.67 408.857 281.065 409.072C281.465 409.282 281.76 409.585 281.95 409.98C282.145 410.37 282.243 410.84 282.243 411.39C282.243 411.93 282.145 412.395 281.95 412.785C281.76 413.175 281.465 413.475 281.065 413.685C280.67 413.895 280.165 414 279.55 414H278.005ZM278.635 413.475H279.535C280.045 413.475 280.45 413.392 280.75 413.227C281.05 413.057 281.265 412.818 281.395 412.508C281.525 412.193 281.59 411.82 281.59 411.39C281.59 410.95 281.525 410.573 281.395 410.258C281.265 409.943 281.05 409.7 280.75 409.53C280.45 409.36 280.045 409.275 279.535 409.275H278.635V413.475ZM284.789 414.09C284.434 414.09 284.119 414.007 283.844 413.842C283.574 413.677 283.361 413.447 283.206 413.152C283.051 412.852 282.974 412.505 282.974 412.11C282.974 411.71 283.049 411.363 283.199 411.068C283.354 410.773 283.569 410.543 283.844 410.378C284.124 410.213 284.444 410.13 284.804 410.13C285.174 410.13 285.486 410.213 285.741 410.378C286.001 410.543 286.199 410.76 286.334 411.03C286.474 411.295 286.544 411.588 286.544 411.908C286.544 411.958 286.544 412.01 286.544 412.065C286.544 412.12 286.541 412.183 286.536 412.253H283.446V411.765H285.929C285.914 411.42 285.799 411.15 285.584 410.955C285.374 410.76 285.109 410.663 284.789 410.663C284.574 410.663 284.374 410.712 284.189 410.812C284.009 410.907 283.864 411.05 283.754 411.24C283.644 411.425 283.589 411.657 283.589 411.937V412.148C283.589 412.458 283.644 412.718 283.754 412.928C283.869 413.138 284.016 413.295 284.196 413.4C284.381 413.505 284.579 413.557 284.789 413.557C285.054 413.557 285.271 413.5 285.441 413.385C285.616 413.265 285.741 413.105 285.816 412.905H286.439C286.379 413.13 286.274 413.332 286.124 413.512C285.974 413.692 285.786 413.835 285.561 413.94C285.341 414.04 285.084 414.09 284.789 414.09ZM288.335 414L286.903 410.22H287.563L288.703 413.393L289.85 410.22H290.495L289.063 414H288.335Z" fill="#948D54"/>
</g>
</g>
<rect x="10" y="10" width="460" height="620" rx="35" stroke="black" stroke-width="20"/>
<defs>
<clipPath id="clip0_40_12">
<rect width="480" height="640" rx="45" fill="white"/>
</clipPath>
<clipPath id="clip1_40_12">
<rect width="211" height="65" fill="white" transform="translate(134 557)"/>
</clipPath>
<clipPath id="clip2_40_12">
<rect x="82" y="195" width="315" height="250" rx="15" fill="white"/>
</clipPath>
</defs>
</svg>
