<svg width="480" height="120" viewBox="0 0 480 120" fill="none" xmlns="http://www.w3.org/2000/svg">
<g clip-path="url(#clip0_31_15)">
<rect x="5" y="5" width="470" height="110" rx="30" fill="#FFF59A" stroke="black" stroke-width="10"/>
<path d="M154.443 77V42H159.343L171.693 66.45L184.093 42H189.043V77H184.843V49.5L173.293 72.1H170.143L158.643 49.6V77H154.443ZM204.434 77.6C202.401 77.6 200.701 77.25 199.334 76.55C197.968 75.8167 196.951 74.8667 196.284 73.7C195.618 72.5 195.284 71.2 195.284 69.8C195.284 68.1 195.718 66.6667 196.584 65.5C197.484 64.3 198.734 63.4 200.334 62.8C201.968 62.1667 203.884 61.85 206.084 61.85H212.734C212.734 60.2833 212.484 58.9833 211.984 57.95C211.518 56.8833 210.818 56.0833 209.884 55.55C208.984 55.0167 207.851 54.75 206.484 54.75C204.884 54.75 203.501 55.15 202.334 55.95C201.168 56.75 200.451 57.9333 200.184 59.5H195.884C196.084 57.7 196.684 56.2 197.684 55C198.718 53.7667 200.018 52.8333 201.584 52.2C203.151 51.5333 204.784 51.2 206.484 51.2C208.818 51.2 210.751 51.6333 212.284 52.5C213.851 53.3333 215.018 54.5167 215.784 56.05C216.551 57.55 216.934 59.3333 216.934 61.4V77H213.184L212.934 72.55C212.601 73.25 212.168 73.9167 211.634 74.55C211.134 75.15 210.534 75.6833 209.834 76.15C209.134 76.5833 208.334 76.9333 207.434 77.2C206.568 77.4667 205.568 77.6 204.434 77.6ZM205.084 74.05C206.251 74.05 207.301 73.8167 208.234 73.35C209.201 72.85 210.018 72.1833 210.684 71.35C211.351 70.4833 211.851 69.5333 212.184 68.5C212.551 67.4667 212.734 66.3833 212.734 65.25V65.1H206.434C204.801 65.1 203.484 65.3 202.484 65.7C201.484 66.0667 200.768 66.6 200.334 67.3C199.901 67.9667 199.684 68.7333 199.684 69.6C199.684 70.5 199.884 71.2833 200.284 71.95C200.718 72.6167 201.334 73.1333 202.134 73.5C202.968 73.8667 203.951 74.05 205.084 74.05ZM223.832 77V51.8H228.032V77H223.832ZM225.932 46.45C225.098 46.45 224.398 46.1833 223.832 45.65C223.298 45.0833 223.032 44.3833 223.032 43.55C223.032 42.7167 223.298 42.05 223.832 41.55C224.398 41.0167 225.098 40.75 225.932 40.75C226.732 40.75 227.415 41.0167 227.982 41.55C228.548 42.05 228.832 42.7167 228.832 43.55C228.832 44.3833 228.548 45.0833 227.982 45.65C227.415 46.1833 226.732 46.45 225.932 46.45ZM235.443 77V41H239.643V77H235.443ZM259.857 77V51.8H263.657L263.907 55.4C264.707 54.1 265.774 53.0833 267.107 52.35C268.474 51.5833 269.957 51.2 271.557 51.2C272.857 51.2 274.024 51.3833 275.057 51.75C276.124 52.0833 277.057 52.6167 277.857 53.35C278.657 54.05 279.307 54.95 279.807 56.05C280.674 54.5167 281.857 53.3333 283.357 52.5C284.891 51.6333 286.524 51.2 288.257 51.2C290.191 51.2 291.874 51.6 293.307 52.4C294.774 53.1667 295.891 54.35 296.657 55.95C297.457 57.5167 297.857 59.5167 297.857 61.95V77H293.707V62.4C293.707 59.8667 293.191 57.9667 292.157 56.7C291.124 55.4333 289.674 54.8 287.807 54.8C286.507 54.8 285.341 55.15 284.307 55.85C283.274 56.5167 282.457 57.5 281.857 58.8C281.257 60.1 280.957 61.7 280.957 63.6V77H276.757V62.4C276.757 59.8667 276.241 57.9667 275.207 56.7C274.174 55.4333 272.707 54.8 270.807 54.8C269.541 54.8 268.391 55.15 267.357 55.85C266.357 56.5167 265.557 57.5 264.957 58.8C264.357 60.1 264.057 61.7 264.057 63.6V77H259.857ZM315.439 77.6C313.072 77.6 310.972 77.05 309.139 75.95C307.339 74.85 305.922 73.3167 304.889 71.35C303.855 69.35 303.339 67.0333 303.339 64.4C303.339 61.7333 303.839 59.4167 304.839 57.45C305.872 55.4833 307.305 53.95 309.139 52.85C311.005 51.75 313.139 51.2 315.539 51.2C318.005 51.2 320.089 51.75 321.789 52.85C323.522 53.95 324.839 55.4 325.739 57.2C326.672 58.9667 327.139 60.9167 327.139 63.05C327.139 63.3833 327.139 63.7333 327.139 64.1C327.139 64.4667 327.122 64.8833 327.089 65.35H306.489V62.1H323.039C322.939 59.8 322.172 58 320.739 56.7C319.339 55.4 317.572 54.75 315.439 54.75C314.005 54.75 312.672 55.0833 311.439 55.75C310.239 56.3833 309.272 57.3333 308.539 58.6C307.805 59.8333 307.439 61.3833 307.439 63.25V64.65C307.439 66.7167 307.805 68.45 308.539 69.85C309.305 71.25 310.289 72.3 311.489 73C312.722 73.7 314.039 74.05 315.439 74.05C317.205 74.05 318.655 73.6667 319.789 72.9C320.955 72.1 321.789 71.0333 322.289 69.7H326.439C326.039 71.2 325.339 72.55 324.339 73.75C323.339 74.95 322.089 75.9 320.589 76.6C319.122 77.2667 317.405 77.6 315.439 77.6Z" fill="#948D54"/>
</g>
<defs>
<clipPath id="clip0_31_15">
<rect width="480" height="120" fill="white"/>
</clipPath>
</defs>
</svg>
