<svg width="480" height="120" viewBox="0 0 480 120" fill="none" xmlns="http://www.w3.org/2000/svg">
<g clip-path="url(#clip0_31_18)">
<rect x="5" y="5" width="470" height="110" rx="30" fill="#FFF59A" stroke="black" stroke-width="10"/>
<path d="M103.833 49.42C102.037 49.42 100.473 49.0933 99.1433 48.44C97.8133 47.7867 96.7867 46.8767 96.0633 45.71C95.34 44.5433 94.9783 43.19 94.9783 41.65H98.0583C98.0583 42.6067 98.28 43.4933 98.7233 44.31C99.1667 45.1033 99.8083 45.745 100.648 46.235C101.512 46.7017 102.573 46.935 103.833 46.935C104.93 46.935 105.863 46.76 106.633 46.41C107.427 46.0367 108.022 45.535 108.418 44.905C108.838 44.275 109.048 43.5633 109.048 42.77C109.048 41.8133 108.838 41.0433 108.418 40.46C108.022 39.8533 107.473 39.3633 106.773 38.99C106.073 38.6167 105.257 38.29 104.323 38.01C103.413 37.7067 102.457 37.3917 101.453 37.065C99.5167 36.4117 98.0933 35.595 97.1833 34.615C96.2733 33.635 95.8183 32.3633 95.8183 30.8C95.8183 29.47 96.1217 28.3033 96.7283 27.3C97.3583 26.2967 98.245 25.515 99.3883 24.955C100.555 24.3717 101.932 24.08 103.518 24.08C105.082 24.08 106.435 24.3717 107.578 24.955C108.745 25.5383 109.655 26.3433 110.308 27.37C110.962 28.3733 111.288 29.54 111.288 30.87H108.208C108.208 30.1933 108.033 29.5283 107.683 28.875C107.333 28.2217 106.797 27.685 106.073 27.265C105.373 26.8217 104.487 26.6 103.413 26.6C102.527 26.5767 101.733 26.7283 101.033 27.055C100.357 27.3583 99.82 27.8017 99.4233 28.385C99.05 28.9683 98.8633 29.68 98.8633 30.52C98.8633 31.3133 99.0267 31.955 99.3533 32.445C99.7033 32.935 100.193 33.355 100.823 33.705C101.477 34.0317 102.235 34.335 103.098 34.615C103.962 34.895 104.918 35.21 105.968 35.56C107.158 35.9567 108.208 36.4467 109.118 37.03C110.052 37.59 110.775 38.3133 111.288 39.2C111.825 40.0867 112.093 41.2183 112.093 42.595C112.093 43.7617 111.778 44.87 111.148 45.92C110.542 46.9467 109.632 47.7867 108.418 48.44C107.205 49.0933 105.677 49.42 103.833 49.42ZM123.891 49.42C122.234 49.42 120.764 49.035 119.481 48.265C118.221 47.495 117.229 46.4217 116.506 45.045C115.783 43.645 115.421 42.0233 115.421 40.18C115.421 38.3133 115.771 36.6917 116.471 35.315C117.194 33.9383 118.198 32.865 119.481 32.095C120.788 31.325 122.281 30.94 123.961 30.94C125.688 30.94 127.146 31.325 128.336 32.095C129.549 32.865 130.471 33.88 131.101 35.14C131.754 36.3767 132.081 37.7417 132.081 39.235C132.081 39.4683 132.081 39.7133 132.081 39.97C132.081 40.2267 132.069 40.5183 132.046 40.845H117.626V38.57H129.211C129.141 36.96 128.604 35.7 127.601 34.79C126.621 33.88 125.384 33.425 123.891 33.425C122.888 33.425 121.954 33.6583 121.091 34.125C120.251 34.5683 119.574 35.2333 119.061 36.12C118.548 36.9833 118.291 38.0683 118.291 39.375V40.355C118.291 41.8017 118.548 43.015 119.061 43.995C119.598 44.975 120.286 45.71 121.126 46.2C121.989 46.69 122.911 46.935 123.891 46.935C125.128 46.935 126.143 46.6667 126.936 46.13C127.753 45.57 128.336 44.8233 128.686 43.89H131.591C131.311 44.94 130.821 45.885 130.121 46.725C129.421 47.565 128.546 48.23 127.496 48.72C126.469 49.1867 125.268 49.42 123.891 49.42ZM136.049 49V31.36H138.709L138.849 34.44C139.409 33.3433 140.202 32.4917 141.229 31.885C142.279 31.255 143.469 30.94 144.799 30.94C146.175 30.94 147.365 31.22 148.369 31.78C149.372 32.3167 150.154 33.145 150.714 34.265C151.274 35.3617 151.554 36.7617 151.554 38.465V49H148.614V38.78C148.614 37.0067 148.217 35.6767 147.424 34.79C146.654 33.9033 145.557 33.46 144.134 33.46C143.154 33.46 142.279 33.705 141.509 34.195C140.739 34.6617 140.12 35.35 139.654 36.26C139.21 37.1467 138.989 38.255 138.989 39.585V49H136.049ZM163.916 49.42C162.213 49.42 160.72 49.0233 159.436 48.23C158.153 47.4133 157.161 46.305 156.461 44.905C155.761 43.505 155.411 41.9183 155.411 40.145C155.411 38.3717 155.761 36.7967 156.461 35.42C157.161 34.02 158.153 32.9233 159.436 32.13C160.743 31.3367 162.248 30.94 163.951 30.94C165.398 30.94 166.658 31.2317 167.731 31.815C168.828 32.3983 169.668 33.215 170.251 34.265V23.8H173.191V49H170.531L170.286 46.095C169.913 46.6783 169.435 47.2267 168.851 47.74C168.268 48.23 167.568 48.6383 166.751 48.965C165.935 49.2683 164.99 49.42 163.916 49.42ZM164.266 46.865C165.433 46.865 166.46 46.585 167.346 46.025C168.233 45.465 168.921 44.695 169.411 43.715C169.901 42.7117 170.146 41.5333 170.146 40.18C170.146 38.85 169.901 37.6833 169.411 36.68C168.921 35.6767 168.233 34.895 167.346 34.335C166.46 33.775 165.433 33.495 164.266 33.495C163.123 33.495 162.108 33.775 161.221 34.335C160.335 34.895 159.646 35.6767 159.156 36.68C158.666 37.6833 158.421 38.85 158.421 40.18C158.421 41.5333 158.666 42.7117 159.156 43.715C159.646 44.695 160.335 45.465 161.221 46.025C162.108 46.585 163.123 46.865 164.266 46.865ZM187.562 49V24.5H190.992L199.637 41.615L208.317 24.5H211.782V49H208.842V29.75L200.757 45.57H198.552L190.502 29.82V49H187.562ZM224.55 49.42C222.894 49.42 221.424 49.035 220.14 48.265C218.88 47.495 217.889 46.4217 217.165 45.045C216.442 43.645 216.08 42.0233 216.08 40.18C216.08 38.3133 216.43 36.6917 217.13 35.315C217.854 33.9383 218.857 32.865 220.14 32.095C221.447 31.325 222.94 30.94 224.62 30.94C226.347 30.94 227.805 31.325 228.995 32.095C230.209 32.865 231.13 33.88 231.76 35.14C232.414 36.3767 232.74 37.7417 232.74 39.235C232.74 39.4683 232.74 39.7133 232.74 39.97C232.74 40.2267 232.729 40.5183 232.705 40.845H218.285V38.57H229.87C229.8 36.96 229.264 35.7 228.26 34.79C227.28 33.88 226.044 33.425 224.55 33.425C223.547 33.425 222.614 33.6583 221.75 34.125C220.91 34.5683 220.234 35.2333 219.72 36.12C219.207 36.9833 218.95 38.0683 218.95 39.375V40.355C218.95 41.8017 219.207 43.015 219.72 43.995C220.257 44.975 220.945 45.71 221.785 46.2C222.649 46.69 223.57 46.935 224.55 46.935C225.787 46.935 226.802 46.6667 227.595 46.13C228.412 45.57 228.995 44.8233 229.345 43.89H232.25C231.97 44.94 231.48 45.885 230.78 46.725C230.08 47.565 229.205 48.23 228.155 48.72C227.129 49.1867 225.927 49.42 224.55 49.42ZM243.358 49.42C241.888 49.42 240.604 49.175 239.508 48.685C238.434 48.195 237.571 47.5183 236.918 46.655C236.288 45.7683 235.903 44.73 235.763 43.54H238.773C238.889 44.1467 239.134 44.7067 239.508 45.22C239.881 45.7333 240.383 46.1533 241.013 46.48C241.666 46.7833 242.459 46.935 243.393 46.935C244.209 46.935 244.886 46.8183 245.423 46.585C245.959 46.3283 246.356 45.99 246.613 45.57C246.893 45.15 247.033 44.695 247.033 44.205C247.033 43.4817 246.858 42.9333 246.508 42.56C246.181 42.1867 245.691 41.895 245.038 41.685C244.384 41.4517 243.591 41.2533 242.658 41.09C241.888 40.95 241.129 40.7633 240.383 40.53C239.636 40.2967 238.971 39.9933 238.388 39.62C237.804 39.2233 237.338 38.745 236.988 38.185C236.661 37.625 236.498 36.9367 236.498 36.12C236.498 35.1167 236.754 34.23 237.268 33.46C237.781 32.6667 238.516 32.0483 239.473 31.605C240.453 31.1617 241.584 30.94 242.868 30.94C244.758 30.94 246.286 31.395 247.453 32.305C248.619 33.215 249.308 34.5333 249.518 36.26H246.613C246.496 35.3733 246.111 34.685 245.458 34.195C244.828 33.6817 243.953 33.425 242.833 33.425C241.736 33.425 240.896 33.6467 240.313 34.09C239.753 34.5333 239.473 35.1167 239.473 35.84C239.473 36.3067 239.624 36.7267 239.928 37.1C240.254 37.45 240.721 37.7533 241.328 38.01C241.958 38.2667 242.728 38.4767 243.638 38.64C244.804 38.85 245.866 39.13 246.823 39.48C247.779 39.83 248.549 40.355 249.133 41.055C249.739 41.7317 250.043 42.7 250.043 43.96C250.043 45.0567 249.763 46.0133 249.203 46.83C248.666 47.6467 247.896 48.2883 246.893 48.755C245.889 49.1983 244.711 49.42 243.358 49.42ZM260.926 49.42C259.456 49.42 258.173 49.175 257.076 48.685C256.003 48.195 255.14 47.5183 254.486 46.655C253.856 45.7683 253.471 44.73 253.331 43.54H256.341C256.458 44.1467 256.703 44.7067 257.076 45.22C257.45 45.7333 257.951 46.1533 258.581 46.48C259.235 46.7833 260.028 46.935 260.961 46.935C261.778 46.935 262.455 46.8183 262.991 46.585C263.528 46.3283 263.925 45.99 264.181 45.57C264.461 45.15 264.601 44.695 264.601 44.205C264.601 43.4817 264.426 42.9333 264.076 42.56C263.75 42.1867 263.26 41.895 262.606 41.685C261.953 41.4517 261.16 41.2533 260.226 41.09C259.456 40.95 258.698 40.7633 257.951 40.53C257.205 40.2967 256.54 39.9933 255.956 39.62C255.373 39.2233 254.906 38.745 254.556 38.185C254.23 37.625 254.066 36.9367 254.066 36.12C254.066 35.1167 254.323 34.23 254.836 33.46C255.35 32.6667 256.085 32.0483 257.041 31.605C258.021 31.1617 259.153 30.94 260.436 30.94C262.326 30.94 263.855 31.395 265.021 32.305C266.188 33.215 266.876 34.5333 267.086 36.26H264.181C264.065 35.3733 263.68 34.685 263.026 34.195C262.396 33.6817 261.521 33.425 260.401 33.425C259.305 33.425 258.465 33.6467 257.881 34.09C257.321 34.5333 257.041 35.1167 257.041 35.84C257.041 36.3067 257.193 36.7267 257.496 37.1C257.823 37.45 258.29 37.7533 258.896 38.01C259.526 38.2667 260.296 38.4767 261.206 38.64C262.373 38.85 263.435 39.13 264.391 39.48C265.348 39.83 266.118 40.355 266.701 41.055C267.308 41.7317 267.611 42.7 267.611 43.96C267.611 45.0567 267.331 46.0133 266.771 46.83C266.235 47.6467 265.465 48.2883 264.461 48.755C263.458 49.1983 262.28 49.42 260.926 49.42ZM277.585 49.42C276.161 49.42 274.971 49.175 274.015 48.685C273.058 48.1717 272.346 47.5067 271.88 46.69C271.413 45.85 271.18 44.94 271.18 43.96C271.18 42.77 271.483 41.7667 272.09 40.95C272.72 40.11 273.595 39.48 274.715 39.06C275.858 38.6167 277.2 38.395 278.74 38.395H283.395C283.395 37.2983 283.22 36.3883 282.87 35.665C282.543 34.9183 282.053 34.3583 281.4 33.985C280.77 33.6117 279.976 33.425 279.02 33.425C277.9 33.425 276.931 33.705 276.115 34.265C275.298 34.825 274.796 35.6533 274.61 36.75H271.6C271.74 35.49 272.16 34.44 272.86 33.6C273.583 32.7367 274.493 32.0833 275.59 31.64C276.686 31.1733 277.83 30.94 279.02 30.94C280.653 30.94 282.006 31.2433 283.08 31.85C284.176 32.4333 284.993 33.2617 285.53 34.335C286.066 35.385 286.335 36.6333 286.335 38.08V49H283.71L283.535 45.885C283.301 46.375 282.998 46.8417 282.625 47.285C282.275 47.705 281.855 48.0783 281.365 48.405C280.875 48.7083 280.315 48.9533 279.685 49.14C279.078 49.3267 278.378 49.42 277.585 49.42ZM278.04 46.935C278.856 46.935 279.591 46.7717 280.245 46.445C280.921 46.095 281.493 45.6283 281.96 45.045C282.426 44.4383 282.776 43.7733 283.01 43.05C283.266 42.3267 283.395 41.5683 283.395 40.775V40.67H278.985C277.841 40.67 276.92 40.81 276.22 41.09C275.52 41.3467 275.018 41.72 274.715 42.21C274.411 42.6767 274.26 43.2133 274.26 43.82C274.26 44.45 274.4 44.9983 274.68 45.465C274.983 45.9317 275.415 46.2933 275.975 46.55C276.558 46.8067 277.246 46.935 278.04 46.935ZM297.848 57.12C296.261 57.12 294.849 56.91 293.613 56.49C292.399 56.0933 291.454 55.475 290.778 54.635C290.101 53.795 289.763 52.7567 289.763 51.52C289.763 50.9833 289.868 50.4117 290.078 49.805C290.311 49.1983 290.696 48.6033 291.233 48.02C291.793 47.4367 292.574 46.9117 293.578 46.445L295.608 47.635C294.371 48.1483 293.566 48.7317 293.193 49.385C292.819 50.0617 292.633 50.68 292.633 51.24C292.633 52.01 292.854 52.6517 293.298 53.165C293.741 53.6783 294.359 54.0633 295.153 54.32C295.946 54.5767 296.844 54.705 297.848 54.705C298.851 54.705 299.714 54.565 300.438 54.285C301.161 54.005 301.721 53.6083 302.118 53.095C302.514 52.5817 302.713 51.975 302.713 51.275C302.713 50.4583 302.409 49.77 301.803 49.21C301.196 48.6733 300.041 48.3583 298.338 48.265C296.961 48.1717 295.806 48.0433 294.873 47.88C293.939 47.7167 293.169 47.53 292.563 47.32C291.956 47.0867 291.443 46.83 291.023 46.55C290.626 46.27 290.264 45.9783 289.938 45.675V44.87L293.333 41.51L295.888 42.42L292.388 45.57L292.843 44.345C293.099 44.5317 293.344 44.7067 293.578 44.87C293.811 45.0333 294.126 45.1733 294.523 45.29C294.919 45.4067 295.468 45.5117 296.168 45.605C296.891 45.6983 297.836 45.7917 299.003 45.885C300.613 46.0017 301.896 46.2817 302.853 46.725C303.833 47.1683 304.533 47.7633 304.953 48.51C305.396 49.2567 305.618 50.1433 305.618 51.17C305.618 52.1733 305.338 53.1183 304.778 54.005C304.241 54.915 303.401 55.6617 302.258 56.245C301.114 56.8283 299.644 57.12 297.848 57.12ZM297.813 43.47C296.343 43.47 295.083 43.19 294.033 42.63C293.006 42.07 292.224 41.3233 291.688 40.39C291.151 39.4333 290.883 38.3717 290.883 37.205C290.883 36.0383 291.151 34.9883 291.688 34.055C292.248 33.1217 293.041 32.375 294.068 31.815C295.094 31.2317 296.343 30.94 297.813 30.94C299.283 30.94 300.531 31.2317 301.558 31.815C302.584 32.375 303.366 33.1217 303.903 34.055C304.439 34.9883 304.708 36.0383 304.708 37.205C304.708 38.3717 304.439 39.4333 303.903 40.39C303.366 41.3233 302.584 42.07 301.558 42.63C300.531 43.19 299.283 43.47 297.813 43.47ZM297.813 41.055C299.073 41.055 300.064 40.7283 300.788 40.075C301.511 39.4217 301.873 38.465 301.873 37.205C301.873 35.9683 301.511 35.0233 300.788 34.37C300.064 33.7167 299.073 33.39 297.813 33.39C296.576 33.39 295.573 33.7167 294.803 34.37C294.056 35.0233 293.683 35.9683 293.683 37.205C293.683 38.465 294.056 39.4217 294.803 40.075C295.549 40.7283 296.553 41.055 297.813 41.055ZM300.683 33.845L299.808 31.36H307.018V33.565L300.683 33.845ZM317.451 49.42C315.794 49.42 314.324 49.035 313.041 48.265C311.781 47.495 310.789 46.4217 310.066 45.045C309.342 43.645 308.981 42.0233 308.981 40.18C308.981 38.3133 309.331 36.6917 310.031 35.315C310.754 33.9383 311.757 32.865 313.041 32.095C314.347 31.325 315.841 30.94 317.521 30.94C319.247 30.94 320.706 31.325 321.896 32.095C323.109 32.865 324.031 33.88 324.661 35.14C325.314 36.3767 325.641 37.7417 325.641 39.235C325.641 39.4683 325.641 39.7133 325.641 39.97C325.641 40.2267 325.629 40.5183 325.606 40.845H311.186V38.57H322.771C322.701 36.96 322.164 35.7 321.161 34.79C320.181 33.88 318.944 33.425 317.451 33.425C316.447 33.425 315.514 33.6583 314.651 34.125C313.811 34.5683 313.134 35.2333 312.621 36.12C312.107 36.9833 311.851 38.0683 311.851 39.375V40.355C311.851 41.8017 312.107 43.015 312.621 43.995C313.157 44.975 313.846 45.71 314.686 46.2C315.549 46.69 316.471 46.935 317.451 46.935C318.687 46.935 319.702 46.6667 320.496 46.13C321.312 45.57 321.896 44.8233 322.246 43.89H325.151C324.871 44.94 324.381 45.885 323.681 46.725C322.981 47.565 322.106 48.23 321.056 48.72C320.029 49.1867 318.827 49.42 317.451 49.42ZM346.78 49.42C345.147 49.42 343.677 49.0467 342.37 48.3C341.063 47.53 340.037 46.4567 339.29 45.08C338.543 43.68 338.17 42.0583 338.17 40.215C338.17 38.325 338.543 36.6917 339.29 35.315C340.06 33.915 341.098 32.8417 342.405 32.095C343.735 31.325 345.217 30.94 346.85 30.94C348.53 30.94 350.012 31.325 351.295 32.095C352.602 32.8417 353.628 33.915 354.375 35.315C355.145 36.6917 355.53 38.3133 355.53 40.18C355.53 42.0467 355.145 43.68 354.375 45.08C353.605 46.4567 352.567 47.53 351.26 48.3C349.953 49.0467 348.46 49.42 346.78 49.42ZM346.815 46.9C347.818 46.9 348.752 46.655 349.615 46.165C350.478 45.6517 351.178 44.8933 351.715 43.89C352.252 42.8867 352.52 41.65 352.52 40.18C352.52 38.6867 352.252 37.45 351.715 36.47C351.202 35.4667 350.513 34.72 349.65 34.23C348.81 33.7167 347.877 33.46 346.85 33.46C345.87 33.46 344.937 33.7167 344.05 34.23C343.187 34.72 342.487 35.4667 341.95 36.47C341.437 37.45 341.18 38.6867 341.18 40.18C341.18 41.65 341.437 42.8867 341.95 43.89C342.487 44.8933 343.175 45.6517 344.015 46.165C344.878 46.655 345.812 46.9 346.815 46.9ZM359.652 49V31.36H362.312L362.452 34.44C363.012 33.3433 363.805 32.4917 364.832 31.885C365.882 31.255 367.072 30.94 368.402 30.94C369.779 30.94 370.969 31.22 371.972 31.78C372.975 32.3167 373.757 33.145 374.317 34.265C374.877 35.3617 375.157 36.7617 375.157 38.465V49H372.217V38.78C372.217 37.0067 371.82 35.6767 371.027 34.79C370.257 33.9033 369.16 33.46 367.737 33.46C366.757 33.46 365.882 33.705 365.112 34.195C364.342 34.6617 363.724 35.35 363.257 36.26C362.814 37.1467 362.592 38.255 362.592 39.585V49H359.652ZM174.639 95V72.915H167.324V70.5H184.894V72.915H177.579V95H174.639ZM190.068 95L184.888 77.36H187.828L191.853 92.235H191.328L195.703 77.36H199.028L203.473 92.2L202.913 92.235L206.903 77.36H209.878L204.733 95H201.723L197.103 79.46H197.698L193.078 95H190.068ZM213.472 95V77.36H216.412V95H213.472ZM214.942 73.615C214.359 73.615 213.869 73.4283 213.472 73.055C213.099 72.6583 212.912 72.1683 212.912 71.585C212.912 71.0017 213.099 70.535 213.472 70.185C213.869 69.8117 214.359 69.625 214.942 69.625C215.502 69.625 215.981 69.8117 216.377 70.185C216.774 70.535 216.972 71.0017 216.972 71.585C216.972 72.1683 216.774 72.6583 216.377 73.055C215.981 73.4283 215.502 73.615 214.942 73.615ZM228.53 95C227.48 95 226.57 94.8367 225.8 94.51C225.03 94.1833 224.435 93.635 224.015 92.865C223.619 92.0717 223.42 91.01 223.42 89.68V79.845H220.34V77.36H223.42L223.805 73.09H226.36V77.36H231.47V79.845H226.36V89.68C226.36 90.7767 226.582 91.5233 227.025 91.92C227.469 92.2933 228.25 92.48 229.37 92.48H231.26V95H228.53ZM242.236 95C241.186 95 240.276 94.8367 239.506 94.51C238.736 94.1833 238.141 93.635 237.721 92.865C237.325 92.0717 237.126 91.01 237.126 89.68V79.845H234.046V77.36H237.126L237.511 73.09H240.066V77.36H245.176V79.845H240.066V89.68C240.066 90.7767 240.288 91.5233 240.731 91.92C241.175 92.2933 241.956 92.48 243.076 92.48H244.966V95H242.236ZM256.269 95.42C254.612 95.42 253.142 95.035 251.859 94.265C250.599 93.495 249.607 92.4217 248.884 91.045C248.161 89.645 247.799 88.0233 247.799 86.18C247.799 84.3133 248.149 82.6917 248.849 81.315C249.572 79.9383 250.576 78.865 251.859 78.095C253.166 77.325 254.659 76.94 256.339 76.94C258.066 76.94 259.524 77.325 260.714 78.095C261.927 78.865 262.849 79.88 263.479 81.14C264.132 82.3767 264.459 83.7417 264.459 85.235C264.459 85.4683 264.459 85.7133 264.459 85.97C264.459 86.2267 264.447 86.5183 264.424 86.845H250.004V84.57H261.589C261.519 82.96 260.982 81.7 259.979 80.79C258.999 79.88 257.762 79.425 256.269 79.425C255.266 79.425 254.332 79.6583 253.469 80.125C252.629 80.5683 251.952 81.2333 251.439 82.12C250.926 82.9833 250.669 84.0683 250.669 85.375V86.355C250.669 87.8017 250.926 89.015 251.439 89.995C251.976 90.975 252.664 91.71 253.504 92.2C254.367 92.69 255.289 92.935 256.269 92.935C257.506 92.935 258.521 92.6667 259.314 92.13C260.131 91.57 260.714 90.8233 261.064 89.89H263.969C263.689 90.94 263.199 91.885 262.499 92.725C261.799 93.565 260.924 94.23 259.874 94.72C258.847 95.1867 257.646 95.42 256.269 95.42ZM268.427 95V77.36H271.087L271.297 80.72C271.693 79.9267 272.195 79.25 272.802 78.69C273.432 78.13 274.178 77.6983 275.042 77.395C275.928 77.0917 276.932 76.94 278.052 76.94V80.02H276.967C276.22 80.02 275.508 80.125 274.832 80.335C274.155 80.5217 273.548 80.8367 273.012 81.28C272.498 81.7233 272.09 82.33 271.787 83.1C271.507 83.8467 271.367 84.78 271.367 85.9V95H268.427ZM279.911 98.325L288.696 68.26H291.601L282.816 98.325H279.911ZM293.967 95L301.457 82.645L293.967 70.5H297.292L303.312 80.265L309.052 70.5H312.342L304.852 82.75L312.377 95H309.052L302.997 85.13L297.292 95H293.967Z" fill="#948D54"/>
</g>
<defs>
<clipPath id="clip0_31_18">
<rect width="480" height="120" fill="white"/>
</clipPath>
</defs>
</svg>
