<svg width="1280" height="350" viewBox="0 0 1280 350" fill="none" xmlns="http://www.w3.org/2000/svg">
<g clip-path="url(#clip0_24_2)">
<rect x="10" y="10" width="1260" height="330" rx="35" fill="#FFF59A" stroke="black" stroke-width="20"/>
<path d="M489.1 97V62H493.3V97H489.1ZM466.75 97V62H470.95V97H466.75ZM470.15 80.9V77.45H490.15V80.9H470.15ZM511.583 97.6C509.217 97.6 507.117 97.05 505.283 95.95C503.483 94.85 502.067 93.3167 501.033 91.35C500 89.35 499.483 87.0333 499.483 84.4C499.483 81.7333 499.983 79.4167 500.983 77.45C502.017 75.4833 503.45 73.95 505.283 72.85C507.15 71.75 509.283 71.2 511.683 71.2C514.15 71.2 516.233 71.75 517.933 72.85C519.667 73.95 520.983 75.4 521.883 77.2C522.817 78.9667 523.283 80.9167 523.283 83.05C523.283 83.3833 523.283 83.7333 523.283 84.1C523.283 84.4667 523.267 84.8833 523.233 85.35H502.633V82.1H519.183C519.083 79.8 518.317 78 516.883 76.7C515.483 75.4 513.717 74.75 511.583 74.75C510.15 74.75 508.817 75.0833 507.583 75.75C506.383 76.3833 505.417 77.3333 504.683 78.6C503.95 79.8333 503.583 81.3833 503.583 83.25V84.65C503.583 86.7167 503.95 88.45 504.683 89.85C505.45 91.25 506.433 92.3 507.633 93C508.867 93.7 510.183 94.05 511.583 94.05C513.35 94.05 514.8 93.6667 515.933 92.9C517.1 92.1 517.933 91.0333 518.433 89.7H522.583C522.183 91.2 521.483 92.55 520.483 93.75C519.483 94.95 518.233 95.9 516.733 96.6C515.267 97.2667 513.55 97.6 511.583 97.6ZM528.951 97V61H533.151V97H528.951ZM540.084 97V61H544.284V97H540.084ZM562.467 97.6C560.133 97.6 558.033 97.0667 556.167 96C554.3 94.9 552.833 93.3667 551.767 91.4C550.7 89.4 550.167 87.0833 550.167 84.45C550.167 81.75 550.7 79.4167 551.767 77.45C552.867 75.45 554.35 73.9167 556.217 72.85C558.117 71.75 560.233 71.2 562.567 71.2C564.967 71.2 567.083 71.75 568.917 72.85C570.783 73.9167 572.25 75.45 573.317 77.45C574.417 79.4167 574.967 81.7333 574.967 84.4C574.967 87.0667 574.417 89.4 573.317 91.4C572.217 93.3667 570.733 94.9 568.867 96C567 97.0667 564.867 97.6 562.467 97.6ZM562.517 94C563.95 94 565.283 93.65 566.517 92.95C567.75 92.2167 568.75 91.1333 569.517 89.7C570.283 88.2667 570.667 86.5 570.667 84.4C570.667 82.2667 570.283 80.5 569.517 79.1C568.783 77.6667 567.8 76.6 566.567 75.9C565.367 75.1667 564.033 74.8 562.567 74.8C561.167 74.8 559.833 75.1667 558.567 75.9C557.333 76.6 556.333 77.6667 555.567 79.1C554.833 80.5 554.467 82.2667 554.467 84.4C554.467 86.5 554.833 88.2667 555.567 89.7C556.333 91.1333 557.317 92.2167 558.517 92.95C559.75 93.65 561.083 94 562.517 94ZM594.387 97V62H616.037V65.45H598.587V77.65H614.537V81.05H598.587V93.55H616.037V97H594.387ZM629.658 97L620.108 71.8H624.508L632.108 92.95L639.758 71.8H644.058L634.508 97H629.658ZM658.556 97.6C656.189 97.6 654.089 97.05 652.256 95.95C650.456 94.85 649.039 93.3167 648.006 91.35C646.973 89.35 646.456 87.0333 646.456 84.4C646.456 81.7333 646.956 79.4167 647.956 77.45C648.989 75.4833 650.423 73.95 652.256 72.85C654.123 71.75 656.256 71.2 658.656 71.2C661.123 71.2 663.206 71.75 664.906 72.85C666.639 73.95 667.956 75.4 668.856 77.2C669.789 78.9667 670.256 80.9167 670.256 83.05C670.256 83.3833 670.256 83.7333 670.256 84.1C670.256 84.4667 670.239 84.8833 670.206 85.35H649.606V82.1H666.156C666.056 79.8 665.289 78 663.856 76.7C662.456 75.4 660.689 74.75 658.556 74.75C657.123 74.75 655.789 75.0833 654.556 75.75C653.356 76.3833 652.389 77.3333 651.656 78.6C650.923 79.8333 650.556 81.3833 650.556 83.25V84.65C650.556 86.7167 650.923 88.45 651.656 89.85C652.423 91.25 653.406 92.3 654.606 93C655.839 93.7 657.156 94.05 658.556 94.05C660.323 94.05 661.773 93.6667 662.906 92.9C664.073 92.1 664.906 91.0333 665.406 89.7H669.556C669.156 91.2 668.456 92.55 667.456 93.75C666.456 94.95 665.206 95.9 663.706 96.6C662.239 97.2667 660.523 97.6 658.556 97.6ZM675.924 97V71.8H679.724L680.024 76.6C680.59 75.4667 681.307 74.5 682.174 73.7C683.074 72.9 684.14 72.2833 685.374 71.85C686.64 71.4167 688.074 71.2 689.674 71.2V75.6H688.124C687.057 75.6 686.04 75.75 685.074 76.05C684.107 76.3167 683.24 76.7667 682.474 77.4C681.74 78.0333 681.157 78.9 680.724 80C680.324 81.0667 680.124 82.4 680.124 84V97H675.924ZM697.18 108L703.33 94.2H701.88L691.98 71.8H696.53L704.73 91.05L713.33 71.8H717.68L701.58 108H697.18ZM731.119 97.6C728.786 97.6 726.686 97.0667 724.819 96C722.952 94.9 721.486 93.3667 720.419 91.4C719.352 89.4 718.819 87.0833 718.819 84.45C718.819 81.75 719.352 79.4167 720.419 77.45C721.519 75.45 723.002 73.9167 724.869 72.85C726.769 71.75 728.886 71.2 731.219 71.2C733.619 71.2 735.736 71.75 737.569 72.85C739.436 73.9167 740.902 75.45 741.969 77.45C743.069 79.4167 743.619 81.7333 743.619 84.4C743.619 87.0667 743.069 89.4 741.969 91.4C740.869 93.3667 739.386 94.9 737.519 96C735.652 97.0667 733.519 97.6 731.119 97.6ZM731.169 94C732.602 94 733.936 93.65 735.169 92.95C736.402 92.2167 737.402 91.1333 738.169 89.7C738.936 88.2667 739.319 86.5 739.319 84.4C739.319 82.2667 738.936 80.5 738.169 79.1C737.436 77.6667 736.452 76.6 735.219 75.9C734.019 75.1667 732.686 74.8 731.219 74.8C729.819 74.8 728.486 75.1667 727.219 75.9C725.986 76.6 724.986 77.6667 724.219 79.1C723.486 80.5 723.119 82.2667 723.119 84.4C723.119 86.5 723.486 88.2667 724.219 89.7C724.986 91.1333 725.969 92.2167 727.169 92.95C728.402 93.65 729.736 94 731.169 94ZM749.508 97V71.8H753.308L753.508 76.2C754.308 74.6333 755.441 73.4167 756.908 72.55C758.408 71.65 760.108 71.2 762.008 71.2C763.974 71.2 765.674 71.6 767.108 72.4C768.541 73.1667 769.658 74.35 770.458 75.95C771.258 77.5167 771.658 79.5167 771.658 81.95V97H767.458V82.4C767.458 79.8667 766.891 77.9667 765.758 76.7C764.658 75.4333 763.091 74.8 761.058 74.8C759.658 74.8 758.408 75.15 757.308 75.85C756.208 76.5167 755.324 77.5 754.658 78.8C754.024 80.0667 753.708 81.65 753.708 83.55V97H749.508ZM789.269 97.6C786.902 97.6 784.802 97.05 782.969 95.95C781.169 94.85 779.752 93.3167 778.719 91.35C777.685 89.35 777.169 87.0333 777.169 84.4C777.169 81.7333 777.669 79.4167 778.669 77.45C779.702 75.4833 781.135 73.95 782.969 72.85C784.835 71.75 786.969 71.2 789.369 71.2C791.835 71.2 793.919 71.75 795.619 72.85C797.352 73.95 798.669 75.4 799.569 77.2C800.502 78.9667 800.969 80.9167 800.969 83.05C800.969 83.3833 800.969 83.7333 800.969 84.1C800.969 84.4667 800.952 84.8833 800.919 85.35H780.319V82.1H796.869C796.769 79.8 796.002 78 794.569 76.7C793.169 75.4 791.402 74.75 789.269 74.75C787.835 74.75 786.502 75.0833 785.269 75.75C784.069 76.3833 783.102 77.3333 782.369 78.6C781.635 79.8333 781.269 81.3833 781.269 83.25V84.65C781.269 86.7167 781.635 88.45 782.369 89.85C783.135 91.25 784.119 92.3 785.319 93C786.552 93.7 787.869 94.05 789.269 94.05C791.035 94.05 792.485 93.6667 793.619 92.9C794.785 92.1 795.619 91.0333 796.119 89.7H800.269C799.869 91.2 799.169 92.55 798.169 93.75C797.169 94.95 795.919 95.9 794.419 96.6C792.952 97.2667 791.235 97.6 789.269 97.6ZM807.637 87.05L807.137 62H811.687L811.187 87.05H807.637ZM809.387 97.25C808.587 97.25 807.903 96.9833 807.337 96.45C806.803 95.8833 806.537 95.2 806.537 94.4C806.537 93.6 806.803 92.9333 807.337 92.4C807.903 91.8333 808.587 91.55 809.387 91.55C810.253 91.55 810.937 91.8333 811.437 92.4C811.97 92.9333 812.237 93.6 812.237 94.4C812.237 95.2 811.97 95.8833 811.437 96.45C810.937 96.9833 810.253 97.25 809.387 97.25Z" fill="#948D54"/>
<path d="M481.375 157V125.5H485.785L496.9 147.505L508.06 125.5H512.515V157H508.735V132.25L498.34 152.59H495.505L485.155 132.34V157H481.375ZM526.367 157.54C524.537 157.54 523.007 157.225 521.777 156.595C520.547 155.935 519.632 155.08 519.032 154.03C518.432 152.95 518.132 151.78 518.132 150.52C518.132 148.99 518.522 147.7 519.302 146.65C520.112 145.57 521.237 144.76 522.677 144.22C524.147 143.65 525.872 143.365 527.852 143.365H533.837C533.837 141.955 533.612 140.785 533.162 139.855C532.742 138.895 532.112 138.175 531.272 137.695C530.462 137.215 529.442 136.975 528.212 136.975C526.772 136.975 525.527 137.335 524.477 138.055C523.427 138.775 522.782 139.84 522.542 141.25H518.672C518.852 139.63 519.392 138.28 520.292 137.2C521.222 136.09 522.392 135.25 523.802 134.68C525.212 134.08 526.682 133.78 528.212 133.78C530.312 133.78 532.052 134.17 533.432 134.95C534.842 135.7 535.892 136.765 536.582 138.145C537.272 139.495 537.617 141.1 537.617 142.96V157H534.242L534.017 152.995C533.717 153.625 533.327 154.225 532.847 154.795C532.397 155.335 531.857 155.815 531.227 156.235C530.597 156.625 529.877 156.94 529.067 157.18C528.287 157.42 527.387 157.54 526.367 157.54ZM526.952 154.345C528.002 154.345 528.947 154.135 529.787 153.715C530.657 153.265 531.392 152.665 531.992 151.915C532.592 151.135 533.042 150.28 533.342 149.35C533.672 148.42 533.837 147.445 533.837 146.425V146.29H528.167C526.697 146.29 525.512 146.47 524.612 146.83C523.712 147.16 523.067 147.64 522.677 148.27C522.287 148.87 522.092 149.56 522.092 150.34C522.092 151.15 522.272 151.855 522.632 152.455C523.022 153.055 523.577 153.52 524.297 153.85C525.047 154.18 525.932 154.345 526.952 154.345ZM551.759 157C550.409 157 549.239 156.79 548.249 156.37C547.259 155.95 546.494 155.245 545.954 154.255C545.444 153.235 545.189 151.87 545.189 150.16V137.515H541.229V134.32H545.189L545.684 128.83H548.969V134.32H555.539V137.515H548.969V150.16C548.969 151.57 549.254 152.53 549.824 153.04C550.394 153.52 551.399 153.76 552.839 153.76H555.269V157H551.759ZM560.831 157V134.32H564.611V157H560.831ZM562.721 129.505C561.971 129.505 561.341 129.265 560.831 128.785C560.351 128.275 560.111 127.645 560.111 126.895C560.111 126.145 560.351 125.545 560.831 125.095C561.341 124.615 561.971 124.375 562.721 124.375C563.441 124.375 564.056 124.615 564.566 125.095C565.076 125.545 565.331 126.145 565.331 126.895C565.331 127.645 565.076 128.275 564.566 128.785C564.056 129.265 563.441 129.505 562.721 129.505ZM579.832 157.54C577.942 157.54 576.292 157.225 574.882 156.595C573.502 155.965 572.392 155.095 571.552 153.985C570.742 152.845 570.247 151.51 570.067 149.98H573.937C574.087 150.76 574.402 151.48 574.882 152.14C575.362 152.8 576.007 153.34 576.817 153.76C577.657 154.15 578.677 154.345 579.877 154.345C580.927 154.345 581.797 154.195 582.487 153.895C583.177 153.565 583.687 153.13 584.017 152.59C584.377 152.05 584.557 151.465 584.557 150.835C584.557 149.905 584.332 149.2 583.882 148.72C583.462 148.24 582.832 147.865 581.992 147.595C581.152 147.295 580.132 147.04 578.932 146.83C577.942 146.65 576.967 146.41 576.007 146.11C575.047 145.81 574.192 145.42 573.442 144.94C572.692 144.43 572.092 143.815 571.642 143.095C571.222 142.375 571.012 141.49 571.012 140.44C571.012 139.15 571.342 138.01 572.002 137.02C572.662 136 573.607 135.205 574.837 134.635C576.097 134.065 577.552 133.78 579.202 133.78C581.632 133.78 583.597 134.365 585.097 135.535C586.597 136.705 587.482 138.4 587.752 140.62H584.017C583.867 139.48 583.372 138.595 582.532 137.965C581.722 137.305 580.597 136.975 579.157 136.975C577.747 136.975 576.667 137.26 575.917 137.83C575.197 138.4 574.837 139.15 574.837 140.08C574.837 140.68 575.032 141.22 575.422 141.7C575.842 142.15 576.442 142.54 577.222 142.87C578.032 143.2 579.022 143.47 580.192 143.68C581.692 143.95 583.057 144.31 584.287 144.76C585.517 145.21 586.507 145.885 587.257 146.785C588.037 147.655 588.427 148.9 588.427 150.52C588.427 151.93 588.067 153.16 587.347 154.21C586.657 155.26 585.667 156.085 584.377 156.685C583.087 157.255 581.572 157.54 579.832 157.54ZM602.42 157.54C600.53 157.54 598.88 157.225 597.47 156.595C596.09 155.965 594.98 155.095 594.14 153.985C593.33 152.845 592.835 151.51 592.655 149.98H596.525C596.675 150.76 596.99 151.48 597.47 152.14C597.95 152.8 598.595 153.34 599.405 153.76C600.245 154.15 601.265 154.345 602.465 154.345C603.515 154.345 604.385 154.195 605.075 153.895C605.765 153.565 606.275 153.13 606.605 152.59C606.965 152.05 607.145 151.465 607.145 150.835C607.145 149.905 606.92 149.2 606.47 148.72C606.05 148.24 605.42 147.865 604.58 147.595C603.74 147.295 602.72 147.04 601.52 146.83C600.53 146.65 599.555 146.41 598.595 146.11C597.635 145.81 596.78 145.42 596.03 144.94C595.28 144.43 594.68 143.815 594.23 143.095C593.81 142.375 593.6 141.49 593.6 140.44C593.6 139.15 593.93 138.01 594.59 137.02C595.25 136 596.195 135.205 597.425 134.635C598.685 134.065 600.14 133.78 601.79 133.78C604.22 133.78 606.185 134.365 607.685 135.535C609.185 136.705 610.07 138.4 610.34 140.62H606.605C606.455 139.48 605.96 138.595 605.12 137.965C604.31 137.305 603.185 136.975 601.745 136.975C600.335 136.975 599.255 137.26 598.505 137.83C597.785 138.4 597.425 139.15 597.425 140.08C597.425 140.68 597.62 141.22 598.01 141.7C598.43 142.15 599.03 142.54 599.81 142.87C600.62 143.2 601.61 143.47 602.78 143.68C604.28 143.95 605.645 144.31 606.875 144.76C608.105 145.21 609.095 145.885 609.845 146.785C610.625 147.655 611.015 148.9 611.015 150.52C611.015 151.93 610.655 153.16 609.935 154.21C609.245 155.26 608.255 156.085 606.965 156.685C605.675 157.255 604.16 157.54 602.42 157.54ZM626.583 157.54C624.483 157.54 622.593 157.06 620.913 156.1C619.233 155.11 617.913 153.73 616.953 151.96C615.993 150.16 615.513 148.075 615.513 145.705C615.513 143.275 615.993 141.175 616.953 139.405C617.943 137.605 619.278 136.225 620.958 135.265C622.668 134.275 624.573 133.78 626.673 133.78C628.833 133.78 630.738 134.275 632.388 135.265C634.068 136.225 635.388 137.605 636.348 139.405C637.338 141.175 637.833 143.26 637.833 145.66C637.833 148.06 637.338 150.16 636.348 151.96C635.358 153.73 634.023 155.11 632.343 156.1C630.663 157.06 628.743 157.54 626.583 157.54ZM626.628 154.3C627.918 154.3 629.118 153.985 630.228 153.355C631.338 152.695 632.238 151.72 632.928 150.43C633.618 149.14 633.963 147.55 633.963 145.66C633.963 143.74 633.618 142.15 632.928 140.89C632.268 139.6 631.383 138.64 630.273 138.01C629.193 137.35 627.993 137.02 626.673 137.02C625.413 137.02 624.213 137.35 623.073 138.01C621.963 138.64 621.063 139.6 620.373 140.89C619.713 142.15 619.383 143.74 619.383 145.66C619.383 147.55 619.713 149.14 620.373 150.43C621.063 151.72 621.948 152.695 623.028 153.355C624.138 153.985 625.338 154.3 626.628 154.3ZM651.682 157.54C649.792 157.54 648.142 157.225 646.732 156.595C645.352 155.965 644.242 155.095 643.402 153.985C642.592 152.845 642.097 151.51 641.917 149.98H645.787C645.937 150.76 646.252 151.48 646.732 152.14C647.212 152.8 647.857 153.34 648.667 153.76C649.507 154.15 650.527 154.345 651.727 154.345C652.777 154.345 653.647 154.195 654.337 153.895C655.027 153.565 655.537 153.13 655.867 152.59C656.227 152.05 656.407 151.465 656.407 150.835C656.407 149.905 656.182 149.2 655.732 148.72C655.312 148.24 654.682 147.865 653.842 147.595C653.002 147.295 651.982 147.04 650.782 146.83C649.792 146.65 648.817 146.41 647.857 146.11C646.897 145.81 646.042 145.42 645.292 144.94C644.542 144.43 643.942 143.815 643.492 143.095C643.072 142.375 642.862 141.49 642.862 140.44C642.862 139.15 643.192 138.01 643.852 137.02C644.512 136 645.457 135.205 646.687 134.635C647.947 134.065 649.402 133.78 651.052 133.78C653.482 133.78 655.447 134.365 656.947 135.535C658.447 136.705 659.332 138.4 659.602 140.62H655.867C655.717 139.48 655.222 138.595 654.382 137.965C653.572 137.305 652.447 136.975 651.007 136.975C649.597 136.975 648.517 137.26 647.767 137.83C647.047 138.4 646.687 139.15 646.687 140.08C646.687 140.68 646.882 141.22 647.272 141.7C647.692 142.15 648.292 142.54 649.072 142.87C649.882 143.2 650.872 143.47 652.042 143.68C653.542 143.95 654.907 144.31 656.137 144.76C657.367 145.21 658.357 145.885 659.107 146.785C659.887 147.655 660.277 148.9 660.277 150.52C660.277 151.93 659.917 153.16 659.197 154.21C658.507 155.26 657.517 156.085 656.227 156.685C654.937 157.255 653.422 157.54 651.682 157.54ZM674.27 157.54C672.38 157.54 670.73 157.225 669.32 156.595C667.94 155.965 666.83 155.095 665.99 153.985C665.18 152.845 664.685 151.51 664.505 149.98H668.375C668.525 150.76 668.84 151.48 669.32 152.14C669.8 152.8 670.445 153.34 671.255 153.76C672.095 154.15 673.115 154.345 674.315 154.345C675.365 154.345 676.235 154.195 676.925 153.895C677.615 153.565 678.125 153.13 678.455 152.59C678.815 152.05 678.995 151.465 678.995 150.835C678.995 149.905 678.77 149.2 678.32 148.72C677.9 148.24 677.27 147.865 676.43 147.595C675.59 147.295 674.57 147.04 673.37 146.83C672.38 146.65 671.405 146.41 670.445 146.11C669.485 145.81 668.63 145.42 667.88 144.94C667.13 144.43 666.53 143.815 666.08 143.095C665.66 142.375 665.45 141.49 665.45 140.44C665.45 139.15 665.78 138.01 666.44 137.02C667.1 136 668.045 135.205 669.275 134.635C670.535 134.065 671.99 133.78 673.64 133.78C676.07 133.78 678.035 134.365 679.535 135.535C681.035 136.705 681.92 138.4 682.19 140.62H678.455C678.305 139.48 677.81 138.595 676.97 137.965C676.16 137.305 675.035 136.975 673.595 136.975C672.185 136.975 671.105 137.26 670.355 137.83C669.635 138.4 669.275 139.15 669.275 140.08C669.275 140.68 669.47 141.22 669.86 141.7C670.28 142.15 670.88 142.54 671.66 142.87C672.47 143.2 673.46 143.47 674.63 143.68C676.13 143.95 677.495 144.31 678.725 144.76C679.955 145.21 680.945 145.885 681.695 146.785C682.475 147.655 682.865 148.9 682.865 150.52C682.865 151.93 682.505 153.16 681.785 154.21C681.095 155.26 680.105 156.085 678.815 156.685C677.525 157.255 676.01 157.54 674.27 157.54ZM700.261 157V124.6H704.041V138.145C704.791 136.795 705.841 135.73 707.191 134.95C708.571 134.17 710.071 133.78 711.691 133.78C713.431 133.78 714.946 134.14 716.236 134.86C717.526 135.55 718.516 136.615 719.206 138.055C719.896 139.495 720.241 141.31 720.241 143.5V157H716.506V143.905C716.506 141.625 716.026 139.915 715.066 138.775C714.106 137.605 712.711 137.02 710.881 137.02C709.591 137.02 708.421 137.335 707.371 137.965C706.351 138.595 705.541 139.495 704.941 140.665C704.341 141.835 704.041 143.275 704.041 144.985V157H700.261ZM736.09 157.54C733.96 157.54 732.07 157.045 730.42 156.055C728.8 155.065 727.525 153.685 726.595 151.915C725.665 150.115 725.2 148.03 725.2 145.66C725.2 143.26 725.65 141.175 726.55 139.405C727.48 137.635 728.77 136.255 730.42 135.265C732.1 134.275 734.02 133.78 736.18 133.78C738.4 133.78 740.275 134.275 741.805 135.265C743.365 136.255 744.55 137.56 745.36 139.18C746.2 140.77 746.62 142.525 746.62 144.445C746.62 144.745 746.62 145.06 746.62 145.39C746.62 145.72 746.605 146.095 746.575 146.515H728.035V143.59H742.93C742.84 141.52 742.15 139.9 740.86 138.73C739.6 137.56 738.01 136.975 736.09 136.975C734.8 136.975 733.6 137.275 732.49 137.875C731.41 138.445 730.54 139.3 729.88 140.44C729.22 141.55 728.89 142.945 728.89 144.625V145.885C728.89 147.745 729.22 149.305 729.88 150.565C730.57 151.825 731.455 152.77 732.535 153.4C733.645 154.03 734.83 154.345 736.09 154.345C737.68 154.345 738.985 154 740.005 153.31C741.055 152.59 741.805 151.63 742.255 150.43H745.99C745.63 151.78 745 152.995 744.1 154.075C743.2 155.155 742.075 156.01 740.725 156.64C739.405 157.24 737.86 157.54 736.09 157.54ZM751.721 157V134.32H755.141L755.411 138.64C755.921 137.62 756.566 136.75 757.346 136.03C758.156 135.31 759.116 134.755 760.226 134.365C761.366 133.975 762.656 133.78 764.096 133.78V137.74H762.701C761.741 137.74 760.826 137.875 759.956 138.145C759.086 138.385 758.306 138.79 757.616 139.36C756.956 139.93 756.431 140.71 756.041 141.7C755.681 142.66 755.501 143.86 755.501 145.3V157H751.721ZM777.487 157.54C775.357 157.54 773.467 157.045 771.817 156.055C770.197 155.065 768.922 153.685 767.992 151.915C767.062 150.115 766.597 148.03 766.597 145.66C766.597 143.26 767.047 141.175 767.947 139.405C768.877 137.635 770.167 136.255 771.817 135.265C773.497 134.275 775.417 133.78 777.577 133.78C779.797 133.78 781.672 134.275 783.202 135.265C784.762 136.255 785.947 137.56 786.757 139.18C787.597 140.77 788.017 142.525 788.017 144.445C788.017 144.745 788.017 145.06 788.017 145.39C788.017 145.72 788.002 146.095 787.972 146.515H769.432V143.59H784.327C784.237 141.52 783.547 139.9 782.257 138.73C780.997 137.56 779.407 136.975 777.487 136.975C776.197 136.975 774.997 137.275 773.887 137.875C772.807 138.445 771.937 139.3 771.277 140.44C770.617 141.55 770.287 142.945 770.287 144.625V145.885C770.287 147.745 770.617 149.305 771.277 150.565C771.967 151.825 772.852 152.77 773.932 153.4C775.042 154.03 776.227 154.345 777.487 154.345C779.077 154.345 780.382 154 781.402 153.31C782.452 152.59 783.202 151.63 783.652 150.43H787.387C787.027 151.78 786.397 152.995 785.497 154.075C784.597 155.155 783.472 156.01 782.122 156.64C780.802 157.24 779.257 157.54 777.487 157.54ZM794.018 148.045L793.568 125.5H797.663L797.213 148.045H794.018ZM795.593 157.225C794.873 157.225 794.258 156.985 793.748 156.505C793.268 155.995 793.028 155.38 793.028 154.66C793.028 153.94 793.268 153.34 793.748 152.86C794.258 152.35 794.873 152.095 795.593 152.095C796.373 152.095 796.988 152.35 797.438 152.86C797.918 153.34 798.158 153.94 798.158 154.66C798.158 155.38 797.918 155.995 797.438 156.505C796.988 156.985 796.373 157.225 795.593 157.225Z" fill="#948D54"/>
<path d="M354.815 211L347.135 183H350.735L356.775 207L363.615 183H367.375L374.055 207.08L380.175 183H383.775L375.935 211H372.095L365.415 187.84L358.575 211H354.815ZM394.374 211.48C392.481 211.48 390.801 211.04 389.334 210.16C387.894 209.28 386.761 208.053 385.934 206.48C385.108 204.88 384.694 203.027 384.694 200.92C384.694 198.787 385.094 196.933 385.894 195.36C386.721 193.787 387.868 192.56 389.334 191.68C390.828 190.8 392.534 190.36 394.454 190.36C396.428 190.36 398.094 190.8 399.454 191.68C400.841 192.56 401.894 193.72 402.614 195.16C403.361 196.573 403.734 198.133 403.734 199.84C403.734 200.107 403.734 200.387 403.734 200.68C403.734 200.973 403.721 201.307 403.694 201.68H387.214V199.08H400.454C400.374 197.24 399.761 195.8 398.614 194.76C397.494 193.72 396.081 193.2 394.374 193.2C393.228 193.2 392.161 193.467 391.174 194C390.214 194.507 389.441 195.267 388.854 196.28C388.268 197.267 387.974 198.507 387.974 200V201.12C387.974 202.773 388.268 204.16 388.854 205.28C389.468 206.4 390.254 207.24 391.214 207.8C392.201 208.36 393.254 208.64 394.374 208.64C395.788 208.64 396.948 208.333 397.854 207.72C398.788 207.08 399.454 206.227 399.854 205.16H403.174C402.854 206.36 402.294 207.44 401.494 208.4C400.694 209.36 399.694 210.12 398.494 210.68C397.321 211.213 395.948 211.48 394.374 211.48ZM408.269 211V182.2H411.629V211H408.269ZM426.255 211.48C424.362 211.48 422.655 211.04 421.135 210.16C419.642 209.28 418.468 208.053 417.615 206.48C416.762 204.88 416.335 203.04 416.335 200.96C416.335 198.827 416.762 196.973 417.615 195.4C418.468 193.827 419.642 192.6 421.135 191.72C422.655 190.813 424.362 190.36 426.255 190.36C428.655 190.36 430.655 190.987 432.255 192.24C433.855 193.467 434.868 195.12 435.295 197.2H431.855C431.588 195.947 430.935 194.973 429.895 194.28C428.855 193.587 427.628 193.24 426.215 193.24C425.068 193.24 424.002 193.533 423.015 194.12C422.028 194.68 421.242 195.533 420.655 196.68C420.068 197.827 419.775 199.24 419.775 200.92C419.775 202.173 419.948 203.293 420.295 204.28C420.642 205.24 421.108 206.04 421.695 206.68C422.282 207.32 422.962 207.813 423.735 208.16C424.535 208.48 425.362 208.64 426.215 208.64C427.175 208.64 428.042 208.493 428.815 208.2C429.588 207.88 430.242 207.413 430.775 206.8C431.308 206.187 431.668 205.467 431.855 204.64H435.295C434.868 206.667 433.842 208.32 432.215 209.6C430.615 210.853 428.628 211.48 426.255 211.48ZM449.066 211.48C447.199 211.48 445.519 211.053 444.026 210.2C442.532 209.32 441.359 208.093 440.506 206.52C439.652 204.92 439.226 203.067 439.226 200.96C439.226 198.8 439.652 196.933 440.506 195.36C441.386 193.76 442.572 192.533 444.066 191.68C445.586 190.8 447.279 190.36 449.146 190.36C451.066 190.36 452.759 190.8 454.226 191.68C455.719 192.533 456.892 193.76 457.746 195.36C458.626 196.933 459.066 198.787 459.066 200.92C459.066 203.053 458.626 204.92 457.746 206.52C456.866 208.093 455.679 209.32 454.186 210.2C452.692 211.053 450.986 211.48 449.066 211.48ZM449.106 208.6C450.252 208.6 451.319 208.32 452.306 207.76C453.292 207.173 454.092 206.307 454.706 205.16C455.319 204.013 455.626 202.6 455.626 200.92C455.626 199.213 455.319 197.8 454.706 196.68C454.119 195.533 453.332 194.68 452.346 194.12C451.386 193.533 450.319 193.24 449.146 193.24C448.026 193.24 446.959 193.533 445.946 194.12C444.959 194.68 444.159 195.533 443.546 196.68C442.959 197.8 442.666 199.213 442.666 200.92C442.666 202.6 442.959 204.013 443.546 205.16C444.159 206.307 444.946 207.173 445.906 207.76C446.892 208.32 447.959 208.6 449.106 208.6ZM463.777 211V190.84H466.817L467.017 193.72C467.657 192.68 468.51 191.867 469.577 191.28C470.67 190.667 471.857 190.36 473.137 190.36C474.177 190.36 475.11 190.507 475.937 190.8C476.79 191.067 477.537 191.493 478.177 192.08C478.817 192.64 479.337 193.36 479.737 194.24C480.43 193.013 481.377 192.067 482.577 191.4C483.803 190.707 485.11 190.36 486.497 190.36C488.043 190.36 489.39 190.68 490.537 191.32C491.71 191.933 492.603 192.88 493.217 194.16C493.857 195.413 494.177 197.013 494.177 198.96V211H490.857V199.32C490.857 197.293 490.443 195.773 489.617 194.76C488.79 193.747 487.63 193.24 486.137 193.24C485.097 193.24 484.163 193.52 483.337 194.08C482.51 194.613 481.857 195.4 481.377 196.44C480.897 197.48 480.657 198.76 480.657 200.28V211H477.297V199.32C477.297 197.293 476.883 195.773 476.057 194.76C475.23 193.747 474.057 193.24 472.537 193.24C471.523 193.24 470.603 193.52 469.777 194.08C468.977 194.613 468.337 195.4 467.857 196.44C467.377 197.48 467.137 198.76 467.137 200.28V211H463.777ZM508.242 211.48C506.348 211.48 504.668 211.04 503.202 210.16C501.762 209.28 500.628 208.053 499.802 206.48C498.975 204.88 498.562 203.027 498.562 200.92C498.562 198.787 498.962 196.933 499.762 195.36C500.588 193.787 501.735 192.56 503.202 191.68C504.695 190.8 506.402 190.36 508.322 190.36C510.295 190.36 511.962 190.8 513.322 191.68C514.708 192.56 515.762 193.72 516.482 195.16C517.228 196.573 517.602 198.133 517.602 199.84C517.602 200.107 517.602 200.387 517.602 200.68C517.602 200.973 517.588 201.307 517.562 201.68H501.082V199.08H514.322C514.242 197.24 513.628 195.8 512.482 194.76C511.362 193.72 509.948 193.2 508.242 193.2C507.095 193.2 506.028 193.467 505.042 194C504.082 194.507 503.308 195.267 502.722 196.28C502.135 197.267 501.842 198.507 501.842 200V201.12C501.842 202.773 502.135 204.16 502.722 205.28C503.335 206.4 504.122 207.24 505.082 207.8C506.068 208.36 507.122 208.64 508.242 208.64C509.655 208.64 510.815 208.333 511.722 207.72C512.655 207.08 513.322 206.227 513.722 205.16H517.042C516.722 206.36 516.162 207.44 515.362 208.4C514.562 209.36 513.562 210.12 512.362 210.68C511.188 211.213 509.815 211.48 508.242 211.48ZM540.681 211C539.481 211 538.441 210.813 537.561 210.44C536.681 210.067 536.001 209.44 535.521 208.56C535.068 207.653 534.841 206.44 534.841 204.92V193.68H531.321V190.84H534.841L535.281 185.96H538.201V190.84H544.041V193.68H538.201V204.92C538.201 206.173 538.454 207.027 538.961 207.48C539.468 207.907 540.361 208.12 541.641 208.12H543.801V211H540.681ZM556.878 211.48C555.011 211.48 553.331 211.053 551.838 210.2C550.345 209.32 549.171 208.093 548.318 206.52C547.465 204.92 547.038 203.067 547.038 200.96C547.038 198.8 547.465 196.933 548.318 195.36C549.198 193.76 550.385 192.533 551.878 191.68C553.398 190.8 555.091 190.36 556.958 190.36C558.878 190.36 560.571 190.8 562.038 191.68C563.531 192.533 564.705 193.76 565.558 195.36C566.438 196.933 566.878 198.787 566.878 200.92C566.878 203.053 566.438 204.92 565.558 206.52C564.678 208.093 563.491 209.32 561.998 210.2C560.505 211.053 558.798 211.48 556.878 211.48ZM556.918 208.6C558.065 208.6 559.131 208.32 560.118 207.76C561.105 207.173 561.905 206.307 562.518 205.16C563.131 204.013 563.438 202.6 563.438 200.92C563.438 199.213 563.131 197.8 562.518 196.68C561.931 195.533 561.145 194.68 560.158 194.12C559.198 193.533 558.131 193.24 556.958 193.24C555.838 193.24 554.771 193.533 553.758 194.12C552.771 194.68 551.971 195.533 551.358 196.68C550.771 197.8 550.478 199.213 550.478 200.92C550.478 202.6 550.771 204.013 551.358 205.16C551.971 206.307 552.758 207.173 553.718 207.76C554.705 208.32 555.771 208.6 556.918 208.6ZM582.214 211V190.84H585.254L585.454 193.72C586.094 192.68 586.947 191.867 588.014 191.28C589.107 190.667 590.294 190.36 591.574 190.36C592.614 190.36 593.547 190.507 594.374 190.8C595.227 191.067 595.974 191.493 596.614 192.08C597.254 192.64 597.774 193.36 598.174 194.24C598.867 193.013 599.814 192.067 601.014 191.4C602.241 190.707 603.547 190.36 604.934 190.36C606.481 190.36 607.827 190.68 608.974 191.32C610.147 191.933 611.041 192.88 611.654 194.16C612.294 195.413 612.614 197.013 612.614 198.96V211H609.294V199.32C609.294 197.293 608.881 195.773 608.054 194.76C607.227 193.747 606.067 193.24 604.574 193.24C603.534 193.24 602.601 193.52 601.774 194.08C600.947 194.613 600.294 195.4 599.814 196.44C599.334 197.48 599.094 198.76 599.094 200.28V211H595.734V199.32C595.734 197.293 595.321 195.773 594.494 194.76C593.667 193.747 592.494 193.24 590.974 193.24C589.961 193.24 589.041 193.52 588.214 194.08C587.414 194.613 586.774 195.4 586.294 196.44C585.814 197.48 585.574 198.76 585.574 200.28V211H582.214ZM619.453 219.8L624.373 208.76H623.213L615.293 190.84H618.933L625.493 206.24L632.373 190.84H635.853L622.973 219.8H619.453ZM659.105 211.48C657.238 211.48 655.558 211.053 654.065 210.2C652.571 209.32 651.398 208.093 650.545 206.52C649.691 204.92 649.265 203.067 649.265 200.96C649.265 198.8 649.691 196.933 650.545 195.36C651.425 193.76 652.611 192.533 654.105 191.68C655.625 190.8 657.318 190.36 659.185 190.36C661.105 190.36 662.798 190.8 664.265 191.68C665.758 192.533 666.931 193.76 667.785 195.36C668.665 196.933 669.105 198.787 669.105 200.92C669.105 203.053 668.665 204.92 667.785 206.52C666.905 208.093 665.718 209.32 664.225 210.2C662.731 211.053 661.025 211.48 659.105 211.48ZM659.145 208.6C660.291 208.6 661.358 208.32 662.345 207.76C663.331 207.173 664.131 206.307 664.745 205.16C665.358 204.013 665.665 202.6 665.665 200.92C665.665 199.213 665.358 197.8 664.745 196.68C664.158 195.533 663.371 194.68 662.385 194.12C661.425 193.533 660.358 193.24 659.185 193.24C658.065 193.24 656.998 193.533 655.985 194.12C654.998 194.68 654.198 195.533 653.585 196.68C652.998 197.8 652.705 199.213 652.705 200.92C652.705 202.6 652.998 204.013 653.585 205.16C654.198 206.307 654.985 207.173 655.945 207.76C656.931 208.32 657.998 208.6 659.145 208.6ZM674.936 211V187.72C674.936 186.44 675.149 185.4 675.576 184.6C676.002 183.773 676.629 183.173 677.456 182.8C678.309 182.4 679.349 182.2 680.576 182.2H682.856V185.08H681.096C680.109 185.08 679.389 185.28 678.936 185.68C678.509 186.08 678.296 186.787 678.296 187.8V211H674.936ZM671.856 193.68V190.84H683.376V193.68H671.856ZM688.529 211V193.68H685.449V190.84H688.529V187.72C688.529 186.44 688.743 185.4 689.169 184.6C689.596 183.773 690.223 183.173 691.049 182.8C691.903 182.4 692.943 182.2 694.169 182.2H696.169V185.08H694.689C693.703 185.08 692.983 185.28 692.529 185.68C692.103 186.08 691.889 186.787 691.889 187.8V190.84H703.969V211H700.609V193.68H691.889V211H688.529ZM702.329 187C701.689 187 701.143 186.787 700.689 186.36C700.236 185.907 700.009 185.347 700.009 184.68C700.009 184.013 700.236 183.48 700.689 183.08C701.143 182.653 701.689 182.44 702.329 182.44C702.996 182.44 703.543 182.653 703.969 183.08C704.423 183.48 704.649 184.013 704.649 184.68C704.649 185.347 704.423 185.907 703.969 186.36C703.543 186.787 702.996 187 702.329 187ZM719.028 211.48C717.135 211.48 715.428 211.04 713.908 210.16C712.415 209.28 711.242 208.053 710.388 206.48C709.535 204.88 709.108 203.04 709.108 200.96C709.108 198.827 709.535 196.973 710.388 195.4C711.242 193.827 712.415 192.6 713.908 191.72C715.428 190.813 717.135 190.36 719.028 190.36C721.428 190.36 723.428 190.987 725.028 192.24C726.628 193.467 727.642 195.12 728.068 197.2H724.628C724.362 195.947 723.708 194.973 722.668 194.28C721.628 193.587 720.402 193.24 718.988 193.24C717.842 193.24 716.775 193.533 715.788 194.12C714.802 194.68 714.015 195.533 713.428 196.68C712.842 197.827 712.548 199.24 712.548 200.92C712.548 202.173 712.722 203.293 713.068 204.28C713.415 205.24 713.882 206.04 714.468 206.68C715.055 207.32 715.735 207.813 716.508 208.16C717.308 208.48 718.135 208.64 718.988 208.64C719.948 208.64 720.815 208.493 721.588 208.2C722.362 207.88 723.015 207.413 723.548 206.8C724.082 206.187 724.442 205.467 724.628 204.64H728.068C727.642 206.667 726.615 208.32 724.988 209.6C723.388 210.853 721.402 211.48 719.028 211.48ZM733.159 211V190.84H736.519V211H733.159ZM734.839 186.56C734.172 186.56 733.612 186.347 733.159 185.92C732.732 185.467 732.519 184.907 732.519 184.24C732.519 183.573 732.732 183.04 733.159 182.64C733.612 182.213 734.172 182 734.839 182C735.479 182 736.026 182.213 736.479 182.64C736.932 183.04 737.159 183.573 737.159 184.24C737.159 184.907 736.932 185.467 736.479 185.92C736.026 186.347 735.479 186.56 734.839 186.56ZM749.008 211.48C747.382 211.48 746.022 211.2 744.928 210.64C743.835 210.053 743.022 209.293 742.488 208.36C741.955 207.4 741.688 206.36 741.688 205.24C741.688 203.88 742.035 202.733 742.728 201.8C743.448 200.84 744.448 200.12 745.728 199.64C747.035 199.133 748.568 198.88 750.328 198.88H755.648C755.648 197.627 755.448 196.587 755.048 195.76C754.675 194.907 754.115 194.267 753.368 193.84C752.648 193.413 751.742 193.2 750.648 193.2C749.368 193.2 748.262 193.52 747.328 194.16C746.395 194.8 745.822 195.747 745.608 197H742.168C742.328 195.56 742.808 194.36 743.608 193.4C744.435 192.413 745.475 191.667 746.728 191.16C747.982 190.627 749.288 190.36 750.648 190.36C752.515 190.36 754.062 190.707 755.288 191.4C756.542 192.067 757.475 193.013 758.088 194.24C758.702 195.44 759.008 196.867 759.008 198.52V211H756.008L755.808 207.44C755.542 208 755.195 208.533 754.768 209.04C754.368 209.52 753.888 209.947 753.328 210.32C752.768 210.667 752.128 210.947 751.408 211.16C750.715 211.373 749.915 211.48 749.008 211.48ZM749.528 208.64C750.462 208.64 751.302 208.453 752.048 208.08C752.822 207.68 753.475 207.147 754.008 206.48C754.542 205.787 754.942 205.027 755.208 204.2C755.502 203.373 755.648 202.507 755.648 201.6V201.48H750.608C749.302 201.48 748.248 201.64 747.448 201.96C746.648 202.253 746.075 202.68 745.728 203.24C745.382 203.773 745.208 204.387 745.208 205.08C745.208 205.8 745.368 206.427 745.688 206.96C746.035 207.493 746.528 207.907 747.168 208.2C747.835 208.493 748.622 208.64 749.528 208.64ZM764.206 211V182.2H767.566V211H764.206ZM787.818 211L781.898 190.84H785.258L789.858 207.84H789.258L794.258 190.84H798.058L803.138 207.8L802.498 207.84L807.058 190.84H810.458L804.578 211H801.137L795.858 193.24H796.538L791.258 211H787.818ZM822.343 211.48C820.45 211.48 818.77 211.04 817.303 210.16C815.863 209.28 814.73 208.053 813.903 206.48C813.076 204.88 812.663 203.027 812.663 200.92C812.663 198.787 813.063 196.933 813.863 195.36C814.69 193.787 815.836 192.56 817.303 191.68C818.796 190.8 820.503 190.36 822.423 190.36C824.396 190.36 826.063 190.8 827.423 191.68C828.81 192.56 829.863 193.72 830.583 195.16C831.33 196.573 831.703 198.133 831.703 199.84C831.703 200.107 831.703 200.387 831.703 200.68C831.703 200.973 831.69 201.307 831.663 201.68H815.183V199.08H828.423C828.343 197.24 827.73 195.8 826.583 194.76C825.463 193.72 824.05 193.2 822.343 193.2C821.196 193.2 820.13 193.467 819.143 194C818.183 194.507 817.41 195.267 816.823 196.28C816.236 197.267 815.943 198.507 815.943 200V201.12C815.943 202.773 816.236 204.16 816.823 205.28C817.436 206.4 818.223 207.24 819.183 207.8C820.17 208.36 821.223 208.64 822.343 208.64C823.756 208.64 824.916 208.333 825.823 207.72C826.756 207.08 827.423 206.227 827.823 205.16H831.143C830.823 206.36 830.263 207.44 829.463 208.4C828.663 209.36 827.663 210.12 826.463 210.68C825.29 211.213 823.916 211.48 822.343 211.48ZM846.798 211.48C845.651 211.48 844.611 211.32 843.678 211C842.771 210.653 841.971 210.2 841.278 209.64C840.584 209.08 840.011 208.427 839.558 207.68L839.278 211H836.238V182.2H839.598V194.16C840.238 193.12 841.158 192.227 842.358 191.48C843.558 190.733 845.038 190.36 846.798 190.36C848.744 190.36 850.451 190.827 851.918 191.76C853.384 192.667 854.518 193.92 855.318 195.52C856.144 197.093 856.558 198.893 856.558 200.92C856.558 202.947 856.144 204.76 855.318 206.36C854.518 207.96 853.384 209.213 851.918 210.12C850.451 211.027 848.744 211.48 846.798 211.48ZM846.398 208.56C847.704 208.56 848.864 208.24 849.878 207.6C850.891 206.96 851.678 206.08 852.238 204.96C852.824 203.813 853.118 202.467 853.118 200.92C853.118 199.4 852.824 198.067 852.238 196.92C851.678 195.773 850.891 194.88 849.878 194.24C848.864 193.6 847.704 193.28 846.398 193.28C845.064 193.28 843.891 193.6 842.878 194.24C841.864 194.88 841.078 195.773 840.518 196.92C839.958 198.067 839.678 199.4 839.678 200.92C839.678 202.467 839.958 203.813 840.518 204.96C841.078 206.08 841.864 206.96 842.878 207.6C843.891 208.24 845.064 208.56 846.398 208.56ZM868.877 211.48C867.197 211.48 865.73 211.2 864.477 210.64C863.25 210.08 862.263 209.307 861.517 208.32C860.797 207.307 860.357 206.12 860.197 204.76H863.637C863.77 205.453 864.05 206.093 864.477 206.68C864.903 207.267 865.477 207.747 866.197 208.12C866.943 208.467 867.85 208.64 868.917 208.64C869.85 208.64 870.623 208.507 871.237 208.24C871.85 207.947 872.303 207.56 872.597 207.08C872.917 206.6 873.077 206.08 873.077 205.52C873.077 204.693 872.877 204.067 872.477 203.64C872.103 203.213 871.543 202.88 870.797 202.64C870.05 202.373 869.143 202.147 868.077 201.96C867.197 201.8 866.33 201.587 865.477 201.32C864.623 201.053 863.863 200.707 863.197 200.28C862.53 199.827 861.997 199.28 861.597 198.64C861.223 198 861.037 197.213 861.037 196.28C861.037 195.133 861.33 194.12 861.917 193.24C862.503 192.333 863.343 191.627 864.437 191.12C865.557 190.613 866.85 190.36 868.317 190.36C870.477 190.36 872.223 190.88 873.557 191.92C874.89 192.96 875.677 194.467 875.917 196.44H872.597C872.463 195.427 872.023 194.64 871.277 194.08C870.557 193.493 869.557 193.2 868.277 193.2C867.023 193.2 866.063 193.453 865.397 193.96C864.757 194.467 864.437 195.133 864.437 195.96C864.437 196.493 864.61 196.973 864.957 197.4C865.33 197.8 865.863 198.147 866.557 198.44C867.277 198.733 868.157 198.973 869.197 199.16C870.53 199.4 871.743 199.72 872.837 200.12C873.93 200.52 874.81 201.12 875.477 201.92C876.17 202.693 876.517 203.8 876.517 205.24C876.517 206.493 876.197 207.587 875.557 208.52C874.943 209.453 874.063 210.187 872.917 210.72C871.77 211.227 870.423 211.48 868.877 211.48ZM881.675 211V190.84H885.035V211H881.675ZM883.355 186.56C882.688 186.56 882.128 186.347 881.675 185.92C881.248 185.467 881.035 184.907 881.035 184.24C881.035 183.573 881.248 183.04 881.675 182.64C882.128 182.213 882.688 182 883.355 182C883.995 182 884.541 182.213 884.995 182.64C885.448 183.04 885.675 183.573 885.675 184.24C885.675 184.907 885.448 185.467 884.995 185.92C884.541 186.347 883.995 186.56 883.355 186.56ZM898.884 211C897.684 211 896.644 210.813 895.764 210.44C894.884 210.067 894.204 209.44 893.724 208.56C893.271 207.653 893.044 206.44 893.044 204.92V193.68H889.524V190.84H893.044L893.484 185.96H896.404V190.84H902.244V193.68H896.404V204.92C896.404 206.173 896.657 207.027 897.164 207.48C897.671 207.907 898.564 208.12 899.844 208.12H902.004V211H898.884ZM914.921 211.48C913.028 211.48 911.348 211.04 909.881 210.16C908.441 209.28 907.308 208.053 906.481 206.48C905.655 204.88 905.241 203.027 905.241 200.92C905.241 198.787 905.641 196.933 906.441 195.36C907.268 193.787 908.415 192.56 909.881 191.68C911.375 190.8 913.081 190.36 915.001 190.36C916.975 190.36 918.641 190.8 920.001 191.68C921.388 192.56 922.441 193.72 923.161 195.16C923.908 196.573 924.281 198.133 924.281 199.84C924.281 200.107 924.281 200.387 924.281 200.68C924.281 200.973 924.268 201.307 924.241 201.68H907.761V199.08H921.001C920.921 197.24 920.308 195.8 919.161 194.76C918.041 193.72 916.628 193.2 914.921 193.2C913.775 193.2 912.708 193.467 911.721 194C910.761 194.507 909.988 195.267 909.401 196.28C908.815 197.267 908.521 198.507 908.521 200V201.12C908.521 202.773 908.815 204.16 909.401 205.28C910.015 206.4 910.801 207.24 911.761 207.8C912.748 208.36 913.801 208.64 914.921 208.64C916.335 208.64 917.495 208.333 918.401 207.72C919.335 207.08 920.001 206.227 920.401 205.16H923.721C923.401 206.36 922.841 207.44 922.041 208.4C921.241 209.36 920.241 210.12 919.041 210.68C917.868 211.213 916.495 211.48 914.921 211.48ZM930.016 211.2C929.349 211.2 928.789 210.987 928.336 210.56C927.909 210.107 927.696 209.56 927.696 208.92C927.696 208.28 927.909 207.747 928.336 207.32C928.789 206.867 929.349 206.64 930.016 206.64C930.682 206.64 931.229 206.867 931.656 207.32C932.082 207.747 932.296 208.28 932.296 208.92C932.296 209.56 932.082 210.107 931.656 210.56C931.229 210.987 930.682 211.2 930.016 211.2ZM47.3164 263V235H64.6364V237.76H50.6764V247.52H63.4364V250.24H50.6764V260.24H64.6364V263H47.3164ZM75.5336 263L67.8936 242.84H71.4136L77.4936 259.76L83.6136 242.84H87.0536L79.4136 263H75.5336ZM98.6517 263.48C96.7584 263.48 95.0784 263.04 93.6117 262.16C92.1717 261.28 91.0384 260.053 90.2117 258.48C89.3851 256.88 88.9717 255.027 88.9717 252.92C88.9717 250.787 89.3717 248.933 90.1717 247.36C90.9984 245.787 92.1451 244.56 93.6117 243.68C95.1051 242.8 96.8117 242.36 98.7317 242.36C100.705 242.36 102.372 242.8 103.732 243.68C105.118 244.56 106.172 245.72 106.892 247.16C107.638 248.573 108.012 250.133 108.012 251.84C108.012 252.107 108.012 252.387 108.012 252.68C108.012 252.973 107.998 253.307 107.972 253.68H91.4917V251.08H104.732C104.652 249.24 104.038 247.8 102.892 246.76C101.772 245.72 100.358 245.2 98.6517 245.2C97.5051 245.2 96.4384 245.467 95.4517 246C94.4917 246.507 93.7184 247.267 93.1317 248.28C92.5451 249.267 92.2517 250.507 92.2517 252V253.12C92.2517 254.773 92.5451 256.16 93.1317 257.28C93.7451 258.4 94.5317 259.24 95.4917 259.8C96.4784 260.36 97.5317 260.64 98.6517 260.64C100.065 260.64 101.225 260.333 102.132 259.72C103.065 259.08 103.732 258.227 104.132 257.16H107.452C107.132 258.36 106.572 259.44 105.772 260.4C104.972 261.36 103.972 262.12 102.772 262.68C101.598 263.213 100.225 263.48 98.6517 263.48ZM112.546 263V242.84H115.586L115.826 246.68C116.279 245.773 116.853 245 117.546 244.36C118.266 243.72 119.119 243.227 120.106 242.88C121.119 242.533 122.266 242.36 123.546 242.36V245.88H122.306C121.453 245.88 120.639 246 119.866 246.24C119.093 246.453 118.399 246.813 117.786 247.32C117.199 247.827 116.733 248.52 116.386 249.4C116.066 250.253 115.906 251.32 115.906 252.6V263H112.546ZM129.551 271.8L134.471 260.76H133.311L125.391 242.84H129.031L135.591 258.24L142.471 242.84H145.951L133.071 271.8H129.551ZM172.442 263.48C169.829 263.48 167.536 262.88 165.562 261.68C163.589 260.453 162.056 258.76 160.962 256.6C159.869 254.44 159.322 251.92 159.322 249.04C159.322 246.187 159.869 243.667 160.962 241.48C162.082 239.293 163.656 237.587 165.682 236.36C167.736 235.133 170.149 234.52 172.922 234.52C176.069 234.52 178.696 235.28 180.802 236.8C182.909 238.293 184.256 240.387 184.842 243.08H180.962C180.589 241.4 179.709 240.067 178.322 239.08C176.936 238.093 175.136 237.6 172.922 237.6C170.869 237.6 169.069 238.067 167.522 239C166.002 239.907 164.829 241.213 164.002 242.92C163.176 244.627 162.762 246.667 162.762 249.04C162.762 251.413 163.176 253.467 164.002 255.2C164.829 256.907 165.976 258.213 167.442 259.12C168.936 260.027 170.642 260.48 172.562 260.48C175.549 260.48 177.802 259.6 179.322 257.84C180.842 256.08 181.709 253.693 181.922 250.68H173.842V248.04H185.362V263H182.282L182.002 258.4C181.336 259.493 180.562 260.427 179.682 261.2C178.829 261.947 177.816 262.52 176.642 262.92C175.469 263.293 174.069 263.48 172.442 263.48ZM190.515 263V242.84H193.555L193.795 246.68C194.248 245.773 194.822 245 195.515 244.36C196.235 243.72 197.088 243.227 198.075 242.88C199.088 242.533 200.235 242.36 201.515 242.36V245.88H200.275C199.422 245.88 198.608 246 197.835 246.24C197.062 246.453 196.368 246.813 195.755 247.32C195.168 247.827 194.702 248.52 194.355 249.4C194.035 250.253 193.875 251.32 193.875 252.6V263H190.515ZM211.88 263.48C210.253 263.48 208.893 263.2 207.8 262.64C206.706 262.053 205.893 261.293 205.36 260.36C204.826 259.4 204.56 258.36 204.56 257.24C204.56 255.88 204.906 254.733 205.6 253.8C206.32 252.84 207.32 252.12 208.6 251.64C209.906 251.133 211.44 250.88 213.2 250.88H218.52C218.52 249.627 218.32 248.587 217.92 247.76C217.546 246.907 216.986 246.267 216.24 245.84C215.52 245.413 214.613 245.2 213.52 245.2C212.24 245.2 211.133 245.52 210.2 246.16C209.266 246.8 208.693 247.747 208.48 249H205.04C205.2 247.56 205.68 246.36 206.48 245.4C207.306 244.413 208.346 243.667 209.6 243.16C210.853 242.627 212.16 242.36 213.52 242.36C215.386 242.36 216.933 242.707 218.16 243.4C219.413 244.067 220.346 245.013 220.96 246.24C221.573 247.44 221.88 248.867 221.88 250.52V263H218.88L218.68 259.44C218.413 260 218.066 260.533 217.64 261.04C217.24 261.52 216.76 261.947 216.2 262.32C215.64 262.667 215 262.947 214.28 263.16C213.586 263.373 212.786 263.48 211.88 263.48ZM212.4 260.64C213.333 260.64 214.173 260.453 214.92 260.08C215.693 259.68 216.346 259.147 216.88 258.48C217.413 257.787 217.813 257.027 218.08 256.2C218.373 255.373 218.52 254.507 218.52 253.6V253.48H213.48C212.173 253.48 211.12 253.64 210.32 253.96C209.52 254.253 208.946 254.68 208.6 255.24C208.253 255.773 208.08 256.387 208.08 257.08C208.08 257.8 208.24 258.427 208.56 258.96C208.906 259.493 209.4 259.907 210.04 260.2C210.706 260.493 211.493 260.64 212.4 260.64ZM227.077 271.8V242.84H230.117L230.397 246.12C230.824 245.48 231.371 244.88 232.037 244.32C232.704 243.733 233.504 243.267 234.437 242.92C235.371 242.547 236.437 242.36 237.637 242.36C239.611 242.36 241.317 242.827 242.757 243.76C244.224 244.693 245.357 245.96 246.157 247.56C246.984 249.133 247.397 250.933 247.397 252.96C247.397 254.987 246.984 256.8 246.157 258.4C245.357 259.973 244.224 261.213 242.757 262.12C241.291 263.027 239.571 263.48 237.597 263.48C235.971 263.48 234.531 263.147 233.277 262.48C232.051 261.813 231.104 260.88 230.437 259.68V271.8H227.077ZM237.237 260.56C238.544 260.56 239.704 260.24 240.717 259.6C241.731 258.96 242.517 258.08 243.077 256.96C243.664 255.813 243.957 254.467 243.957 252.92C243.957 251.4 243.664 250.067 243.077 248.92C242.517 247.773 241.731 246.88 240.717 246.24C239.704 245.6 238.544 245.28 237.237 245.28C235.904 245.28 234.731 245.6 233.717 246.24C232.704 246.88 231.917 247.773 231.357 248.92C230.797 250.067 230.517 251.4 230.517 252.92C230.517 254.467 230.797 255.813 231.357 256.96C231.917 258.08 232.704 258.96 233.717 259.6C234.731 260.24 235.904 260.56 237.237 260.56ZM252.116 263V234.2H255.476V246.24C256.143 245.04 257.076 244.093 258.276 243.4C259.503 242.707 260.836 242.36 262.276 242.36C263.823 242.36 265.17 242.68 266.316 243.32C267.463 243.933 268.343 244.88 268.956 246.16C269.57 247.44 269.876 249.053 269.876 251V263H266.556V251.36C266.556 249.333 266.13 247.813 265.276 246.8C264.423 245.76 263.183 245.24 261.556 245.24C260.41 245.24 259.37 245.52 258.436 246.08C257.53 246.64 256.81 247.44 256.276 248.48C255.743 249.52 255.476 250.8 255.476 252.32V263H252.116ZM275.444 263V242.84H278.804V263H275.444ZM277.124 238.56C276.458 238.56 275.898 238.347 275.444 237.92C275.018 237.467 274.804 236.907 274.804 236.24C274.804 235.573 275.018 235.04 275.444 234.64C275.898 234.213 276.458 234 277.124 234C277.764 234 278.311 234.213 278.764 234.64C279.218 235.04 279.444 235.573 279.444 236.24C279.444 236.907 279.218 237.467 278.764 237.92C278.311 238.347 277.764 238.56 277.124 238.56ZM293.814 263.48C291.92 263.48 290.214 263.04 288.694 262.16C287.2 261.28 286.027 260.053 285.174 258.48C284.32 256.88 283.894 255.04 283.894 252.96C283.894 250.827 284.32 248.973 285.174 247.4C286.027 245.827 287.2 244.6 288.694 243.72C290.214 242.813 291.92 242.36 293.814 242.36C296.214 242.36 298.214 242.987 299.814 244.24C301.414 245.467 302.427 247.12 302.854 249.2H299.414C299.147 247.947 298.494 246.973 297.454 246.28C296.414 245.587 295.187 245.24 293.774 245.24C292.627 245.24 291.56 245.533 290.574 246.12C289.587 246.68 288.8 247.533 288.214 248.68C287.627 249.827 287.334 251.24 287.334 252.92C287.334 254.173 287.507 255.293 287.854 256.28C288.2 257.24 288.667 258.04 289.254 258.68C289.84 259.32 290.52 259.813 291.294 260.16C292.094 260.48 292.92 260.64 293.774 260.64C294.734 260.64 295.6 260.493 296.374 260.2C297.147 259.88 297.8 259.413 298.334 258.8C298.867 258.187 299.227 257.467 299.414 256.64H302.854C302.427 258.667 301.4 260.32 299.774 261.6C298.174 262.853 296.187 263.48 293.814 263.48ZM322.329 263L316.409 242.84H319.769L324.369 259.84H323.769L328.769 242.84H332.569L337.649 259.8L337.009 259.84L341.569 242.84H344.969L339.089 263H335.649L330.369 245.24H331.049L325.769 263H322.329ZM354.614 263.48C352.987 263.48 351.627 263.2 350.534 262.64C349.441 262.053 348.627 261.293 348.094 260.36C347.561 259.4 347.294 258.36 347.294 257.24C347.294 255.88 347.641 254.733 348.334 253.8C349.054 252.84 350.054 252.12 351.334 251.64C352.641 251.133 354.174 250.88 355.934 250.88H361.254C361.254 249.627 361.054 248.587 360.654 247.76C360.281 246.907 359.721 246.267 358.974 245.84C358.254 245.413 357.347 245.2 356.254 245.2C354.974 245.2 353.867 245.52 352.934 246.16C352.001 246.8 351.427 247.747 351.214 249H347.774C347.934 247.56 348.414 246.36 349.214 245.4C350.041 244.413 351.081 243.667 352.334 243.16C353.587 242.627 354.894 242.36 356.254 242.36C358.121 242.36 359.667 242.707 360.894 243.4C362.147 244.067 363.081 245.013 363.694 246.24C364.307 247.44 364.614 248.867 364.614 250.52V263H361.614L361.414 259.44C361.147 260 360.801 260.533 360.374 261.04C359.974 261.52 359.494 261.947 358.934 262.32C358.374 262.667 357.734 262.947 357.014 263.16C356.321 263.373 355.521 263.48 354.614 263.48ZM355.134 260.64C356.067 260.64 356.907 260.453 357.654 260.08C358.427 259.68 359.081 259.147 359.614 258.48C360.147 257.787 360.547 257.027 360.814 256.2C361.107 255.373 361.254 254.507 361.254 253.6V253.48H356.214C354.907 253.48 353.854 253.64 353.054 253.96C352.254 254.253 351.681 254.68 351.334 255.24C350.987 255.773 350.814 256.387 350.814 257.08C350.814 257.8 350.974 258.427 351.294 258.96C351.641 259.493 352.134 259.907 352.774 260.2C353.441 260.493 354.227 260.64 355.134 260.64ZM377.412 263.48C375.732 263.48 374.265 263.2 373.012 262.64C371.785 262.08 370.798 261.307 370.052 260.32C369.332 259.307 368.892 258.12 368.732 256.76H372.172C372.305 257.453 372.585 258.093 373.012 258.68C373.438 259.267 374.012 259.747 374.732 260.12C375.478 260.467 376.385 260.64 377.452 260.64C378.385 260.64 379.158 260.507 379.772 260.24C380.385 259.947 380.838 259.56 381.132 259.08C381.452 258.6 381.612 258.08 381.612 257.52C381.612 256.693 381.412 256.067 381.012 255.64C380.638 255.213 380.078 254.88 379.332 254.64C378.585 254.373 377.678 254.147 376.612 253.96C375.732 253.8 374.865 253.587 374.012 253.32C373.158 253.053 372.398 252.707 371.732 252.28C371.065 251.827 370.532 251.28 370.132 250.64C369.758 250 369.572 249.213 369.572 248.28C369.572 247.133 369.865 246.12 370.452 245.24C371.038 244.333 371.878 243.627 372.972 243.12C374.092 242.613 375.385 242.36 376.852 242.36C379.012 242.36 380.758 242.88 382.092 243.92C383.425 244.96 384.212 246.467 384.452 248.44H381.132C380.998 247.427 380.558 246.64 379.812 246.08C379.092 245.493 378.092 245.2 376.812 245.2C375.558 245.2 374.598 245.453 373.932 245.96C373.292 246.467 372.972 247.133 372.972 247.96C372.972 248.493 373.145 248.973 373.492 249.4C373.865 249.8 374.398 250.147 375.092 250.44C375.812 250.733 376.692 250.973 377.732 251.16C379.065 251.4 380.278 251.72 381.372 252.12C382.465 252.52 383.345 253.12 384.012 253.92C384.705 254.693 385.052 255.8 385.052 257.24C385.052 258.493 384.732 259.587 384.092 260.52C383.478 261.453 382.598 262.187 381.452 262.72C380.305 263.227 378.958 263.48 377.412 263.48ZM400.515 263V242.84H403.555L403.755 245.72C404.395 244.68 405.248 243.867 406.315 243.28C407.408 242.667 408.595 242.36 409.875 242.36C410.915 242.36 411.848 242.507 412.675 242.8C413.528 243.067 414.275 243.493 414.915 244.08C415.555 244.64 416.075 245.36 416.475 246.24C417.168 245.013 418.115 244.067 419.315 243.4C420.542 242.707 421.848 242.36 423.235 242.36C424.782 242.36 426.128 242.68 427.275 243.32C428.448 243.933 429.342 244.88 429.955 246.16C430.595 247.413 430.915 249.013 430.915 250.96V263H427.595V251.32C427.595 249.293 427.182 247.773 426.355 246.76C425.528 245.747 424.368 245.24 422.875 245.24C421.835 245.24 420.902 245.52 420.075 246.08C419.248 246.613 418.595 247.4 418.115 248.44C417.635 249.48 417.395 250.76 417.395 252.28V263H414.035V251.32C414.035 249.293 413.622 247.773 412.795 246.76C411.968 245.747 410.795 245.24 409.275 245.24C408.262 245.24 407.342 245.52 406.515 246.08C405.715 246.613 405.075 247.4 404.595 248.44C404.115 249.48 403.875 250.76 403.875 252.28V263H400.515ZM442.7 263.48C441.073 263.48 439.713 263.2 438.62 262.64C437.527 262.053 436.713 261.293 436.18 260.36C435.647 259.4 435.38 258.36 435.38 257.24C435.38 255.88 435.727 254.733 436.42 253.8C437.14 252.84 438.14 252.12 439.42 251.64C440.727 251.133 442.26 250.88 444.02 250.88H449.34C449.34 249.627 449.14 248.587 448.74 247.76C448.367 246.907 447.807 246.267 447.06 245.84C446.34 245.413 445.433 245.2 444.34 245.2C443.06 245.2 441.953 245.52 441.02 246.16C440.087 246.8 439.513 247.747 439.3 249H435.86C436.02 247.56 436.5 246.36 437.3 245.4C438.127 244.413 439.167 243.667 440.42 243.16C441.673 242.627 442.98 242.36 444.34 242.36C446.207 242.36 447.753 242.707 448.98 243.4C450.233 244.067 451.167 245.013 451.78 246.24C452.393 247.44 452.7 248.867 452.7 250.52V263H449.7L449.5 259.44C449.233 260 448.887 260.533 448.46 261.04C448.06 261.52 447.58 261.947 447.02 262.32C446.46 262.667 445.82 262.947 445.1 263.16C444.407 263.373 443.607 263.48 442.7 263.48ZM443.22 260.64C444.153 260.64 444.993 260.453 445.74 260.08C446.513 259.68 447.167 259.147 447.7 258.48C448.233 257.787 448.633 257.027 448.9 256.2C449.193 255.373 449.34 254.507 449.34 253.6V253.48H444.3C442.993 253.48 441.94 253.64 441.14 253.96C440.34 254.253 439.767 254.68 439.42 255.24C439.073 255.773 438.9 256.387 438.9 257.08C438.9 257.8 439.06 258.427 439.38 258.96C439.727 259.493 440.22 259.907 440.86 260.2C441.527 260.493 442.313 260.64 443.22 260.64ZM466.778 263.48C464.831 263.48 463.124 263.027 461.658 262.12C460.191 261.187 459.058 259.92 458.258 258.32C457.458 256.72 457.058 254.907 457.058 252.88C457.058 250.853 457.458 249.053 458.258 247.48C459.058 245.88 460.191 244.627 461.658 243.72C463.151 242.813 464.871 242.36 466.818 242.36C468.471 242.36 469.911 242.693 471.138 243.36C472.391 244.027 473.351 244.96 474.018 246.16V234.2H477.378V263H474.338L474.058 259.68C473.631 260.347 473.084 260.973 472.418 261.56C471.751 262.12 470.951 262.587 470.018 262.96C469.084 263.307 468.004 263.48 466.778 263.48ZM467.178 260.56C468.511 260.56 469.684 260.24 470.698 259.6C471.711 258.96 472.498 258.08 473.058 256.96C473.618 255.813 473.898 254.467 473.898 252.92C473.898 251.4 473.618 250.067 473.058 248.92C472.498 247.773 471.711 246.88 470.698 246.24C469.684 245.6 468.511 245.28 467.178 245.28C465.871 245.28 464.711 245.6 463.698 246.24C462.684 246.88 461.898 247.773 461.338 248.92C460.778 250.067 460.498 251.4 460.498 252.92C460.498 254.467 460.778 255.813 461.338 256.96C461.898 258.08 462.684 258.96 463.698 259.6C464.711 260.24 465.871 260.56 467.178 260.56ZM491.816 263.48C489.922 263.48 488.242 263.04 486.776 262.16C485.336 261.28 484.202 260.053 483.376 258.48C482.549 256.88 482.136 255.027 482.136 252.92C482.136 250.787 482.536 248.933 483.336 247.36C484.162 245.787 485.309 244.56 486.776 243.68C488.269 242.8 489.976 242.36 491.896 242.36C493.869 242.36 495.536 242.8 496.896 243.68C498.282 244.56 499.336 245.72 500.056 247.16C500.802 248.573 501.176 250.133 501.176 251.84C501.176 252.107 501.176 252.387 501.176 252.68C501.176 252.973 501.162 253.307 501.136 253.68H484.656V251.08H497.896C497.816 249.24 497.202 247.8 496.056 246.76C494.936 245.72 493.522 245.2 491.816 245.2C490.669 245.2 489.602 245.467 488.616 246C487.656 246.507 486.882 247.267 486.296 248.28C485.709 249.267 485.416 250.507 485.416 252V253.12C485.416 254.773 485.709 256.16 486.296 257.28C486.909 258.4 487.696 259.24 488.656 259.8C489.642 260.36 490.696 260.64 491.816 260.64C493.229 260.64 494.389 260.333 495.296 259.72C496.229 259.08 496.896 258.227 497.296 257.16H500.616C500.296 258.36 499.736 259.44 498.936 260.4C498.136 261.36 497.136 262.12 495.936 262.68C494.762 263.213 493.389 263.48 491.816 263.48ZM523.655 263.48C522.108 263.48 520.748 263.173 519.575 262.56C518.428 261.947 517.535 261 516.895 259.72C516.282 258.44 515.975 256.84 515.975 254.92V242.84H519.335V254.56C519.335 256.56 519.775 258.067 520.655 259.08C521.535 260.093 522.775 260.6 524.375 260.6C525.495 260.6 526.508 260.333 527.415 259.8C528.322 259.24 529.028 258.453 529.535 257.44C530.068 256.4 530.335 255.133 530.335 253.64V242.84H533.695V263H530.655L530.455 259.48C529.842 260.733 528.935 261.72 527.735 262.44C526.535 263.133 525.175 263.48 523.655 263.48ZM546.865 263.48C545.185 263.48 543.718 263.2 542.465 262.64C541.238 262.08 540.252 261.307 539.505 260.32C538.785 259.307 538.345 258.12 538.185 256.76H541.625C541.758 257.453 542.038 258.093 542.465 258.68C542.892 259.267 543.465 259.747 544.185 260.12C544.932 260.467 545.838 260.64 546.905 260.64C547.838 260.64 548.612 260.507 549.225 260.24C549.838 259.947 550.292 259.56 550.585 259.08C550.905 258.6 551.065 258.08 551.065 257.52C551.065 256.693 550.865 256.067 550.465 255.64C550.092 255.213 549.532 254.88 548.785 254.64C548.038 254.373 547.132 254.147 546.065 253.96C545.185 253.8 544.318 253.587 543.465 253.32C542.612 253.053 541.852 252.707 541.185 252.28C540.518 251.827 539.985 251.28 539.585 250.64C539.212 250 539.025 249.213 539.025 248.28C539.025 247.133 539.318 246.12 539.905 245.24C540.492 244.333 541.332 243.627 542.425 243.12C543.545 242.613 544.838 242.36 546.305 242.36C548.465 242.36 550.212 242.88 551.545 243.92C552.878 244.96 553.665 246.467 553.905 248.44H550.585C550.452 247.427 550.012 246.64 549.265 246.08C548.545 245.493 547.545 245.2 546.265 245.2C545.012 245.2 544.052 245.453 543.385 245.96C542.745 246.467 542.425 247.133 542.425 247.96C542.425 248.493 542.598 248.973 542.945 249.4C543.318 249.8 543.852 250.147 544.545 250.44C545.265 250.733 546.145 250.973 547.185 251.16C548.518 251.4 549.732 251.72 550.825 252.12C551.918 252.52 552.798 253.12 553.465 253.92C554.158 254.693 554.505 255.8 554.505 257.24C554.505 258.493 554.185 259.587 553.545 260.52C552.932 261.453 552.052 262.187 550.905 262.72C549.758 263.227 548.412 263.48 546.865 263.48ZM559.663 263V242.84H563.023V263H559.663ZM561.343 238.56C560.676 238.56 560.116 238.347 559.663 237.92C559.236 237.467 559.023 236.907 559.023 236.24C559.023 235.573 559.236 235.04 559.663 234.64C560.116 234.213 560.676 234 561.343 234C561.983 234 562.53 234.213 562.983 234.64C563.436 235.04 563.663 235.573 563.663 236.24C563.663 236.907 563.436 237.467 562.983 237.92C562.53 238.347 561.983 238.56 561.343 238.56ZM568.952 263V242.84H571.992L572.152 246.36C572.792 245.107 573.699 244.133 574.872 243.44C576.072 242.72 577.432 242.36 578.952 242.36C580.526 242.36 581.886 242.68 583.032 243.32C584.179 243.933 585.072 244.88 585.712 246.16C586.352 247.413 586.672 249.013 586.672 250.96V263H583.312V251.32C583.312 249.293 582.859 247.773 581.952 246.76C581.072 245.747 579.819 245.24 578.192 245.24C577.072 245.24 576.072 245.52 575.192 246.08C574.312 246.613 573.606 247.4 573.072 248.44C572.566 249.453 572.312 250.72 572.312 252.24V263H568.952ZM599.881 272.28C598.068 272.28 596.454 272.04 595.041 271.56C593.654 271.107 592.574 270.4 591.801 269.44C591.028 268.48 590.641 267.293 590.641 265.88C590.641 265.267 590.761 264.613 591.001 263.92C591.268 263.227 591.708 262.547 592.321 261.88C592.961 261.213 593.854 260.613 595.001 260.08L597.321 261.44C595.908 262.027 594.988 262.693 594.561 263.44C594.134 264.213 593.921 264.92 593.921 265.56C593.921 266.44 594.174 267.173 594.681 267.76C595.188 268.347 595.894 268.787 596.801 269.08C597.708 269.373 598.734 269.52 599.881 269.52C601.028 269.52 602.014 269.36 602.841 269.04C603.668 268.72 604.308 268.267 604.761 267.68C605.214 267.093 605.441 266.4 605.441 265.6C605.441 264.667 605.094 263.88 604.401 263.24C603.708 262.627 602.388 262.267 600.441 262.16C598.868 262.053 597.548 261.907 596.481 261.72C595.414 261.533 594.534 261.32 593.841 261.08C593.148 260.813 592.561 260.52 592.081 260.2C591.628 259.88 591.214 259.547 590.841 259.2V258.28L594.721 254.44L597.641 255.48L593.641 259.08L594.161 257.68C594.454 257.893 594.734 258.093 595.001 258.28C595.268 258.467 595.628 258.627 596.081 258.76C596.534 258.893 597.161 259.013 597.961 259.12C598.788 259.227 599.868 259.333 601.201 259.44C603.041 259.573 604.508 259.893 605.601 260.4C606.721 260.907 607.521 261.587 608.001 262.44C608.508 263.293 608.761 264.307 608.761 265.48C608.761 266.627 608.441 267.707 607.801 268.72C607.188 269.76 606.228 270.613 604.921 271.28C603.614 271.947 601.934 272.28 599.881 272.28ZM599.841 256.68C598.161 256.68 596.721 256.36 595.521 255.72C594.348 255.08 593.454 254.227 592.841 253.16C592.228 252.067 591.921 250.853 591.921 249.52C591.921 248.187 592.228 246.987 592.841 245.92C593.481 244.853 594.388 244 595.561 243.36C596.734 242.693 598.161 242.36 599.841 242.36C601.521 242.36 602.948 242.693 604.121 243.36C605.294 244 606.188 244.853 606.801 245.92C607.414 246.987 607.721 248.187 607.721 249.52C607.721 250.853 607.414 252.067 606.801 253.16C606.188 254.227 605.294 255.08 604.121 255.72C602.948 256.36 601.521 256.68 599.841 256.68ZM599.841 253.92C601.281 253.92 602.414 253.547 603.241 252.8C604.068 252.053 604.481 250.96 604.481 249.52C604.481 248.107 604.068 247.027 603.241 246.28C602.414 245.533 601.281 245.16 599.841 245.16C598.428 245.16 597.281 245.533 596.401 246.28C595.548 247.027 595.121 248.107 595.121 249.52C595.121 250.96 595.548 252.053 596.401 252.8C597.254 253.547 598.401 253.92 599.841 253.92ZM603.121 245.68L602.121 242.84H610.361V245.36L603.121 245.68ZM625.051 263V235H642.091V237.76H628.411V247.6H640.051V250.32H628.411V263H625.051ZM646.577 263V242.84H649.937V263H646.577ZM648.257 238.56C647.59 238.56 647.03 238.347 646.577 237.92C646.15 237.467 645.937 236.907 645.937 236.24C645.937 235.573 646.15 235.04 646.577 234.64C647.03 234.213 647.59 234 648.257 234C648.897 234 649.444 234.213 649.897 234.64C650.35 235.04 650.577 235.573 650.577 236.24C650.577 236.907 650.35 237.467 649.897 237.92C649.444 238.347 648.897 238.56 648.257 238.56ZM663.826 272.28C662.013 272.28 660.4 272.04 658.986 271.56C657.6 271.107 656.52 270.4 655.746 269.44C654.973 268.48 654.586 267.293 654.586 265.88C654.586 265.267 654.706 264.613 654.946 263.92C655.213 263.227 655.653 262.547 656.266 261.88C656.906 261.213 657.8 260.613 658.946 260.08L661.266 261.44C659.853 262.027 658.933 262.693 658.506 263.44C658.08 264.213 657.866 264.92 657.866 265.56C657.866 266.44 658.12 267.173 658.626 267.76C659.133 268.347 659.84 268.787 660.746 269.08C661.653 269.373 662.68 269.52 663.826 269.52C664.973 269.52 665.96 269.36 666.786 269.04C667.613 268.72 668.253 268.267 668.706 267.68C669.16 267.093 669.386 266.4 669.386 265.6C669.386 264.667 669.04 263.88 668.346 263.24C667.653 262.627 666.333 262.267 664.386 262.16C662.813 262.053 661.493 261.907 660.426 261.72C659.36 261.533 658.48 261.32 657.786 261.08C657.093 260.813 656.506 260.52 656.026 260.2C655.573 259.88 655.16 259.547 654.786 259.2V258.28L658.666 254.44L661.586 255.48L657.586 259.08L658.106 257.68C658.4 257.893 658.68 258.093 658.946 258.28C659.213 258.467 659.573 258.627 660.026 258.76C660.48 258.893 661.106 259.013 661.906 259.12C662.733 259.227 663.813 259.333 665.146 259.44C666.986 259.573 668.453 259.893 669.546 260.4C670.666 260.907 671.466 261.587 671.946 262.44C672.453 263.293 672.706 264.307 672.706 265.48C672.706 266.627 672.386 267.707 671.746 268.72C671.133 269.76 670.173 270.613 668.866 271.28C667.56 271.947 665.88 272.28 663.826 272.28ZM663.786 256.68C662.106 256.68 660.666 256.36 659.466 255.72C658.293 255.08 657.4 254.227 656.786 253.16C656.173 252.067 655.866 250.853 655.866 249.52C655.866 248.187 656.173 246.987 656.786 245.92C657.426 244.853 658.333 244 659.506 243.36C660.68 242.693 662.106 242.36 663.786 242.36C665.466 242.36 666.893 242.693 668.066 243.36C669.24 244 670.133 244.853 670.746 245.92C671.36 246.987 671.666 248.187 671.666 249.52C671.666 250.853 671.36 252.067 670.746 253.16C670.133 254.227 669.24 255.08 668.066 255.72C666.893 256.36 665.466 256.68 663.786 256.68ZM663.786 253.92C665.226 253.92 666.36 253.547 667.186 252.8C668.013 252.053 668.426 250.96 668.426 249.52C668.426 248.107 668.013 247.027 667.186 246.28C666.36 245.533 665.226 245.16 663.786 245.16C662.373 245.16 661.226 245.533 660.346 246.28C659.493 247.027 659.066 248.107 659.066 249.52C659.066 250.96 659.493 252.053 660.346 252.8C661.2 253.547 662.346 253.92 663.786 253.92ZM667.066 245.68L666.066 242.84H674.306V245.36L667.066 245.68ZM678.171 263V242.84H681.211L681.411 245.72C682.051 244.68 682.904 243.867 683.971 243.28C685.064 242.667 686.251 242.36 687.531 242.36C688.571 242.36 689.504 242.507 690.331 242.8C691.184 243.067 691.931 243.493 692.571 244.08C693.211 244.64 693.731 245.36 694.131 246.24C694.824 245.013 695.771 244.067 696.971 243.4C698.198 242.707 699.504 242.36 700.891 242.36C702.438 242.36 703.784 242.68 704.931 243.32C706.104 243.933 706.998 244.88 707.611 246.16C708.251 247.413 708.571 249.013 708.571 250.96V263H705.251V251.32C705.251 249.293 704.838 247.773 704.011 246.76C703.184 245.747 702.024 245.24 700.531 245.24C699.491 245.24 698.558 245.52 697.731 246.08C696.904 246.613 696.251 247.4 695.771 248.44C695.291 249.48 695.051 250.76 695.051 252.28V263H691.691V251.32C691.691 249.293 691.278 247.773 690.451 246.76C689.624 245.747 688.451 245.24 686.931 245.24C685.918 245.24 684.998 245.52 684.171 246.08C683.371 246.613 682.731 247.4 682.251 248.44C681.771 249.48 681.531 250.76 681.531 252.28V263H678.171ZM720.356 263.48C718.729 263.48 717.369 263.2 716.276 262.64C715.183 262.053 714.369 261.293 713.836 260.36C713.303 259.4 713.036 258.36 713.036 257.24C713.036 255.88 713.383 254.733 714.076 253.8C714.796 252.84 715.796 252.12 717.076 251.64C718.383 251.133 719.916 250.88 721.676 250.88H726.996C726.996 249.627 726.796 248.587 726.396 247.76C726.023 246.907 725.463 246.267 724.716 245.84C723.996 245.413 723.089 245.2 721.996 245.2C720.716 245.2 719.609 245.52 718.676 246.16C717.743 246.8 717.169 247.747 716.956 249H713.516C713.676 247.56 714.156 246.36 714.956 245.4C715.783 244.413 716.823 243.667 718.076 243.16C719.329 242.627 720.636 242.36 721.996 242.36C723.863 242.36 725.409 242.707 726.636 243.4C727.889 244.067 728.823 245.013 729.436 246.24C730.049 247.44 730.356 248.867 730.356 250.52V263H727.356L727.156 259.44C726.889 260 726.543 260.533 726.116 261.04C725.716 261.52 725.236 261.947 724.676 262.32C724.116 262.667 723.476 262.947 722.756 263.16C722.063 263.373 721.263 263.48 720.356 263.48ZM720.876 260.64C721.809 260.64 722.649 260.453 723.396 260.08C724.169 259.68 724.823 259.147 725.356 258.48C725.889 257.787 726.289 257.027 726.556 256.2C726.849 255.373 726.996 254.507 726.996 253.6V253.48H721.956C720.649 253.48 719.596 253.64 718.796 253.96C717.996 254.253 717.423 254.68 717.076 255.24C716.729 255.773 716.556 256.387 716.556 257.08C716.556 257.8 716.716 258.427 717.036 258.96C717.383 259.493 717.876 259.907 718.516 260.2C719.183 260.493 719.969 260.64 720.876 260.64ZM752.739 263.48C751.112 263.48 749.752 263.2 748.659 262.64C747.566 262.053 746.752 261.293 746.219 260.36C745.686 259.4 745.419 258.36 745.419 257.24C745.419 255.88 745.766 254.733 746.459 253.8C747.179 252.84 748.179 252.12 749.459 251.64C750.766 251.133 752.299 250.88 754.059 250.88H759.379C759.379 249.627 759.179 248.587 758.779 247.76C758.406 246.907 757.846 246.267 757.099 245.84C756.379 245.413 755.472 245.2 754.379 245.2C753.099 245.2 751.992 245.52 751.059 246.16C750.126 246.8 749.552 247.747 749.339 249H745.899C746.059 247.56 746.539 246.36 747.339 245.4C748.166 244.413 749.206 243.667 750.459 243.16C751.712 242.627 753.019 242.36 754.379 242.36C756.246 242.36 757.792 242.707 759.019 243.4C760.272 244.067 761.206 245.013 761.819 246.24C762.432 247.44 762.739 248.867 762.739 250.52V263H759.739L759.539 259.44C759.272 260 758.926 260.533 758.499 261.04C758.099 261.52 757.619 261.947 757.059 262.32C756.499 262.667 755.859 262.947 755.139 263.16C754.446 263.373 753.646 263.48 752.739 263.48ZM753.259 260.64C754.192 260.64 755.032 260.453 755.779 260.08C756.552 259.68 757.206 259.147 757.739 258.48C758.272 257.787 758.672 257.027 758.939 256.2C759.232 255.373 759.379 254.507 759.379 253.6V253.48H754.339C753.032 253.48 751.979 253.64 751.179 253.96C750.379 254.253 749.806 254.68 749.459 255.24C749.112 255.773 748.939 256.387 748.939 257.08C748.939 257.8 749.099 258.427 749.419 258.96C749.766 259.493 750.259 259.907 750.899 260.2C751.566 260.493 752.352 260.64 753.259 260.64ZM767.937 263V242.84H770.977L771.137 246.36C771.777 245.107 772.683 244.133 773.857 243.44C775.057 242.72 776.417 242.36 777.937 242.36C779.51 242.36 780.87 242.68 782.017 243.32C783.163 243.933 784.057 244.88 784.697 246.16C785.337 247.413 785.657 249.013 785.657 250.96V263H782.297V251.32C782.297 249.293 781.843 247.773 780.937 246.76C780.057 245.747 778.803 245.24 777.177 245.24C776.057 245.24 775.057 245.52 774.177 246.08C773.297 246.613 772.59 247.4 772.057 248.44C771.55 249.453 771.297 250.72 771.297 252.24V263H767.937ZM799.785 263.48C797.839 263.48 796.132 263.027 794.665 262.12C793.199 261.187 792.065 259.92 791.265 258.32C790.465 256.72 790.065 254.907 790.065 252.88C790.065 250.853 790.465 249.053 791.265 247.48C792.065 245.88 793.199 244.627 794.665 243.72C796.159 242.813 797.879 242.36 799.825 242.36C801.479 242.36 802.919 242.693 804.145 243.36C805.399 244.027 806.359 244.96 807.025 246.16V234.2H810.385V263H807.345L807.065 259.68C806.639 260.347 806.092 260.973 805.425 261.56C804.759 262.12 803.959 262.587 803.025 262.96C802.092 263.307 801.012 263.48 799.785 263.48ZM800.185 260.56C801.519 260.56 802.692 260.24 803.705 259.6C804.719 258.96 805.505 258.08 806.065 256.96C806.625 255.813 806.905 254.467 806.905 252.92C806.905 251.4 806.625 250.067 806.065 248.92C805.505 247.773 804.719 246.88 803.705 246.24C802.692 245.6 801.519 245.28 800.185 245.28C798.879 245.28 797.719 245.6 796.705 246.24C795.692 246.88 794.905 247.773 794.345 248.92C793.785 250.067 793.505 251.4 793.505 252.92C793.505 254.467 793.785 255.813 794.345 256.96C794.905 258.08 795.692 258.96 796.705 259.6C797.719 260.24 798.879 260.56 800.185 260.56ZM835.449 263.48C833.555 263.48 831.875 263.04 830.409 262.16C828.969 261.28 827.835 260.053 827.009 258.48C826.182 256.88 825.769 255.027 825.769 252.92C825.769 250.787 826.169 248.933 826.969 247.36C827.795 245.787 828.942 244.56 830.409 243.68C831.902 242.8 833.609 242.36 835.529 242.36C837.502 242.36 839.169 242.8 840.529 243.68C841.915 244.56 842.969 245.72 843.689 247.16C844.435 248.573 844.809 250.133 844.809 251.84C844.809 252.107 844.809 252.387 844.809 252.68C844.809 252.973 844.795 253.307 844.769 253.68H828.289V251.08H841.529C841.449 249.24 840.835 247.8 839.689 246.76C838.569 245.72 837.155 245.2 835.449 245.2C834.302 245.2 833.235 245.467 832.249 246C831.289 246.507 830.515 247.267 829.929 248.28C829.342 249.267 829.049 250.507 829.049 252V253.12C829.049 254.773 829.342 256.16 829.929 257.28C830.542 258.4 831.329 259.24 832.289 259.8C833.275 260.36 834.329 260.64 835.449 260.64C836.862 260.64 838.022 260.333 838.929 259.72C839.862 259.08 840.529 258.227 840.929 257.16H844.249C843.929 258.36 843.369 259.44 842.569 260.4C841.769 261.36 840.769 262.12 839.569 262.68C838.395 263.213 837.022 263.48 835.449 263.48ZM854.362 263L846.722 242.84H850.242L856.322 259.76L862.442 242.84H865.882L858.242 263H854.362ZM877.48 263.48C875.587 263.48 873.907 263.04 872.44 262.16C871 261.28 869.867 260.053 869.04 258.48C868.213 256.88 867.8 255.027 867.8 252.92C867.8 250.787 868.2 248.933 869 247.36C869.827 245.787 870.973 244.56 872.44 243.68C873.933 242.8 875.64 242.36 877.56 242.36C879.533 242.36 881.2 242.8 882.56 243.68C883.947 244.56 885 245.72 885.72 247.16C886.467 248.573 886.84 250.133 886.84 251.84C886.84 252.107 886.84 252.387 886.84 252.68C886.84 252.973 886.827 253.307 886.8 253.68H870.32V251.08H883.56C883.48 249.24 882.867 247.8 881.72 246.76C880.6 245.72 879.187 245.2 877.48 245.2C876.333 245.2 875.267 245.467 874.28 246C873.32 246.507 872.547 247.267 871.96 248.28C871.373 249.267 871.08 250.507 871.08 252V253.12C871.08 254.773 871.373 256.16 871.96 257.28C872.573 258.4 873.36 259.24 874.32 259.8C875.307 260.36 876.36 260.64 877.48 260.64C878.893 260.64 880.053 260.333 880.96 259.72C881.893 259.08 882.56 258.227 882.96 257.16H886.28C885.96 258.36 885.4 259.44 884.6 260.4C883.8 261.36 882.8 262.12 881.6 262.68C880.427 263.213 879.053 263.48 877.48 263.48ZM891.374 263V242.84H894.414L894.654 246.68C895.108 245.773 895.681 245 896.374 244.36C897.094 243.72 897.948 243.227 898.934 242.88C899.948 242.533 901.094 242.36 902.374 242.36V245.88H901.134C900.281 245.88 899.468 246 898.694 246.24C897.921 246.453 897.228 246.813 896.614 247.32C896.028 247.827 895.561 248.52 895.214 249.4C894.894 250.253 894.734 251.32 894.734 252.6V263H891.374ZM908.379 271.8L913.299 260.76H912.139L904.219 242.84H907.859L914.419 258.24L921.299 242.84H924.779L911.899 271.8H908.379ZM939.03 263V234.2H942.39V263H939.03ZM948.257 263V242.84H951.617V263H948.257ZM949.937 238.56C949.27 238.56 948.71 238.347 948.257 237.92C947.83 237.467 947.617 236.907 947.617 236.24C947.617 235.573 947.83 235.04 948.257 234.64C948.71 234.213 949.27 234 949.937 234C950.577 234 951.123 234.213 951.577 234.64C952.03 235.04 952.257 235.573 952.257 236.24C952.257 236.907 952.03 237.467 951.577 237.92C951.123 238.347 950.577 238.56 949.937 238.56ZM957.546 263V242.84H960.586L960.746 246.36C961.386 245.107 962.293 244.133 963.466 243.44C964.666 242.72 966.026 242.36 967.546 242.36C969.119 242.36 970.479 242.68 971.626 243.32C972.773 243.933 973.666 244.88 974.306 246.16C974.946 247.413 975.266 249.013 975.266 250.96V263H971.906V251.32C971.906 249.293 971.453 247.773 970.546 246.76C969.666 245.747 968.413 245.24 966.786 245.24C965.666 245.24 964.666 245.52 963.786 246.08C962.906 246.613 962.199 247.4 961.666 248.44C961.159 249.453 960.906 250.72 960.906 252.24V263H957.546ZM989.355 263.48C987.462 263.48 985.782 263.04 984.315 262.16C982.875 261.28 981.742 260.053 980.915 258.48C980.088 256.88 979.675 255.027 979.675 252.92C979.675 250.787 980.075 248.933 980.875 247.36C981.702 245.787 982.848 244.56 984.315 243.68C985.808 242.8 987.515 242.36 989.435 242.36C991.408 242.36 993.075 242.8 994.435 243.68C995.822 244.56 996.875 245.72 997.595 247.16C998.342 248.573 998.715 250.133 998.715 251.84C998.715 252.107 998.715 252.387 998.715 252.68C998.715 252.973 998.702 253.307 998.675 253.68H982.195V251.08H995.435C995.355 249.24 994.742 247.8 993.595 246.76C992.475 245.72 991.062 245.2 989.355 245.2C988.208 245.2 987.142 245.467 986.155 246C985.195 246.507 984.422 247.267 983.835 248.28C983.248 249.267 982.955 250.507 982.955 252V253.12C982.955 254.773 983.248 256.16 983.835 257.28C984.448 258.4 985.235 259.24 986.195 259.8C987.182 260.36 988.235 260.64 989.355 260.64C990.768 260.64 991.928 260.333 992.835 259.72C993.768 259.08 994.435 258.227 994.835 257.16H998.155C997.835 258.36 997.275 259.44 996.475 260.4C995.675 261.36 994.675 262.12 993.475 262.68C992.302 263.213 990.928 263.48 989.355 263.48ZM1022.87 263.48C1021.01 263.48 1019.33 263.053 1017.83 262.2C1016.34 261.32 1015.17 260.093 1014.31 258.52C1013.46 256.92 1013.03 255.067 1013.03 252.96C1013.03 250.8 1013.46 248.933 1014.31 247.36C1015.19 245.76 1016.38 244.533 1017.87 243.68C1019.39 242.8 1021.09 242.36 1022.95 242.36C1024.87 242.36 1026.57 242.8 1028.03 243.68C1029.53 244.533 1030.7 245.76 1031.55 247.36C1032.43 248.933 1032.87 250.787 1032.87 252.92C1032.87 255.053 1032.43 256.92 1031.55 258.52C1030.67 260.093 1029.49 261.32 1027.99 262.2C1026.5 263.053 1024.79 263.48 1022.87 263.48ZM1022.91 260.6C1024.06 260.6 1025.13 260.32 1026.11 259.76C1027.1 259.173 1027.9 258.307 1028.51 257.16C1029.13 256.013 1029.43 254.6 1029.43 252.92C1029.43 251.213 1029.13 249.8 1028.51 248.68C1027.93 247.533 1027.14 246.68 1026.15 246.12C1025.19 245.533 1024.13 245.24 1022.95 245.24C1021.83 245.24 1020.77 245.533 1019.75 246.12C1018.77 246.68 1017.97 247.533 1017.35 248.68C1016.77 249.8 1016.47 251.213 1016.47 252.92C1016.47 254.6 1016.77 256.013 1017.35 257.16C1017.97 258.307 1018.75 259.173 1019.71 259.76C1020.7 260.32 1021.77 260.6 1022.91 260.6ZM1038.71 263V239.72C1038.71 238.44 1038.92 237.4 1039.35 236.6C1039.77 235.773 1040.4 235.173 1041.23 234.8C1042.08 234.4 1043.12 234.2 1044.35 234.2H1046.63V237.08H1044.87C1043.88 237.08 1043.16 237.28 1042.71 237.68C1042.28 238.08 1042.07 238.787 1042.07 239.8V263H1038.71ZM1035.63 245.68V242.84H1047.15V245.68H1035.63ZM1070.88 263.48C1068.99 263.48 1067.28 263.04 1065.76 262.16C1064.27 261.28 1063.1 260.053 1062.24 258.48C1061.39 256.88 1060.96 255.04 1060.96 252.96C1060.96 250.827 1061.39 248.973 1062.24 247.4C1063.1 245.827 1064.27 244.6 1065.76 243.72C1067.28 242.813 1068.99 242.36 1070.88 242.36C1073.28 242.36 1075.28 242.987 1076.88 244.24C1078.48 245.467 1079.5 247.12 1079.92 249.2H1076.48C1076.22 247.947 1075.56 246.973 1074.52 246.28C1073.48 245.587 1072.26 245.24 1070.84 245.24C1069.7 245.24 1068.63 245.533 1067.64 246.12C1066.66 246.68 1065.87 247.533 1065.28 248.68C1064.7 249.827 1064.4 251.24 1064.4 252.92C1064.4 254.173 1064.58 255.293 1064.92 256.28C1065.27 257.24 1065.74 258.04 1066.32 258.68C1066.91 259.32 1067.59 259.813 1068.36 260.16C1069.16 260.48 1069.99 260.64 1070.84 260.64C1071.8 260.64 1072.67 260.493 1073.44 260.2C1074.22 259.88 1074.87 259.413 1075.4 258.8C1075.94 258.187 1076.3 257.467 1076.48 256.64H1079.92C1079.5 258.667 1078.47 260.32 1076.84 261.6C1075.24 262.853 1073.26 263.48 1070.88 263.48ZM1093.69 263.48C1091.83 263.48 1090.15 263.053 1088.65 262.2C1087.16 261.32 1085.99 260.093 1085.13 258.52C1084.28 256.92 1083.85 255.067 1083.85 252.96C1083.85 250.8 1084.28 248.933 1085.13 247.36C1086.01 245.76 1087.2 244.533 1088.69 243.68C1090.21 242.8 1091.91 242.36 1093.77 242.36C1095.69 242.36 1097.39 242.8 1098.85 243.68C1100.35 244.533 1101.52 245.76 1102.37 247.36C1103.25 248.933 1103.69 250.787 1103.69 252.92C1103.69 255.053 1103.25 256.92 1102.37 258.52C1101.49 260.093 1100.31 261.32 1098.81 262.2C1097.32 263.053 1095.61 263.48 1093.69 263.48ZM1093.73 260.6C1094.88 260.6 1095.95 260.32 1096.93 259.76C1097.92 259.173 1098.72 258.307 1099.33 257.16C1099.95 256.013 1100.25 254.6 1100.25 252.92C1100.25 251.213 1099.95 249.8 1099.33 248.68C1098.75 247.533 1097.96 246.68 1096.97 246.12C1096.01 245.533 1094.95 245.24 1093.77 245.24C1092.65 245.24 1091.59 245.533 1090.57 246.12C1089.59 246.68 1088.79 247.533 1088.17 248.68C1087.59 249.8 1087.29 251.213 1087.29 252.92C1087.29 254.6 1087.59 256.013 1088.17 257.16C1088.79 258.307 1089.57 259.173 1090.53 259.76C1091.52 260.32 1092.59 260.6 1093.73 260.6ZM1117.29 263.48C1115.34 263.48 1113.63 263.027 1112.17 262.12C1110.7 261.187 1109.57 259.92 1108.77 258.32C1107.97 256.72 1107.57 254.907 1107.57 252.88C1107.57 250.853 1107.97 249.053 1108.77 247.48C1109.57 245.88 1110.7 244.627 1112.17 243.72C1113.66 242.813 1115.38 242.36 1117.33 242.36C1118.98 242.36 1120.42 242.693 1121.65 243.36C1122.9 244.027 1123.86 244.96 1124.53 246.16V234.2H1127.89V263H1124.85L1124.57 259.68C1124.14 260.347 1123.59 260.973 1122.93 261.56C1122.26 262.12 1121.46 262.587 1120.53 262.96C1119.59 263.307 1118.51 263.48 1117.29 263.48ZM1117.69 260.56C1119.02 260.56 1120.19 260.24 1121.21 259.6C1122.22 258.96 1123.01 258.08 1123.57 256.96C1124.13 255.813 1124.41 254.467 1124.41 252.92C1124.41 251.4 1124.13 250.067 1123.57 248.92C1123.01 247.773 1122.22 246.88 1121.21 246.24C1120.19 245.6 1119.02 245.28 1117.69 245.28C1116.38 245.28 1115.22 245.6 1114.21 246.24C1113.19 246.88 1112.41 247.773 1111.85 248.92C1111.29 250.067 1111.01 251.4 1111.01 252.92C1111.01 254.467 1111.29 255.813 1111.85 256.96C1112.41 258.08 1113.19 258.96 1114.21 259.6C1115.22 260.24 1116.38 260.56 1117.69 260.56ZM1142.32 263.48C1140.43 263.48 1138.75 263.04 1137.28 262.16C1135.84 261.28 1134.71 260.053 1133.88 258.48C1133.06 256.88 1132.64 255.027 1132.64 252.92C1132.64 250.787 1133.04 248.933 1133.84 247.36C1134.67 245.787 1135.82 244.56 1137.28 243.68C1138.78 242.8 1140.48 242.36 1142.4 242.36C1144.38 242.36 1146.04 242.8 1147.4 243.68C1148.79 244.56 1149.84 245.72 1150.56 247.16C1151.31 248.573 1151.68 250.133 1151.68 251.84C1151.68 252.107 1151.68 252.387 1151.68 252.68C1151.68 252.973 1151.67 253.307 1151.64 253.68H1135.16V251.08H1148.4C1148.32 249.24 1147.71 247.8 1146.56 246.76C1145.44 245.72 1144.03 245.2 1142.32 245.2C1141.18 245.2 1140.11 245.467 1139.12 246C1138.16 246.507 1137.39 247.267 1136.8 248.28C1136.22 249.267 1135.92 250.507 1135.92 252V253.12C1135.92 254.773 1136.22 256.16 1136.8 257.28C1137.42 258.4 1138.2 259.24 1139.16 259.8C1140.15 260.36 1141.2 260.64 1142.32 260.64C1143.74 260.64 1144.9 260.333 1145.8 259.72C1146.74 259.08 1147.4 258.227 1147.8 257.16H1151.12C1150.8 258.36 1150.24 259.44 1149.44 260.4C1148.64 261.36 1147.64 262.12 1146.44 262.68C1145.27 263.213 1143.9 263.48 1142.32 263.48ZM1170.92 263L1165 242.84H1168.36L1172.96 259.84H1172.36L1177.36 242.84H1181.16L1186.24 259.8L1185.6 259.84L1190.16 242.84H1193.56L1187.68 263H1184.24L1178.96 245.24H1179.64L1174.36 263H1170.92ZM1203.21 263.48C1201.58 263.48 1200.22 263.2 1199.13 262.64C1198.03 262.053 1197.22 261.293 1196.69 260.36C1196.15 259.4 1195.89 258.36 1195.89 257.24C1195.89 255.88 1196.23 254.733 1196.93 253.8C1197.65 252.84 1198.65 252.12 1199.93 251.64C1201.23 251.133 1202.77 250.88 1204.53 250.88H1209.85C1209.85 249.627 1209.65 248.587 1209.25 247.76C1208.87 246.907 1208.31 246.267 1207.57 245.84C1206.85 245.413 1205.94 245.2 1204.85 245.2C1203.57 245.2 1202.46 245.52 1201.53 246.16C1200.59 246.8 1200.02 247.747 1199.81 249H1196.37C1196.53 247.56 1197.01 246.36 1197.81 245.4C1198.63 244.413 1199.67 243.667 1200.93 243.16C1202.18 242.627 1203.49 242.36 1204.85 242.36C1206.71 242.36 1208.26 242.707 1209.49 243.4C1210.74 244.067 1211.67 245.013 1212.29 246.24C1212.9 247.44 1213.21 248.867 1213.21 250.52V263H1210.21L1210.01 259.44C1209.74 260 1209.39 260.533 1208.97 261.04C1208.57 261.52 1208.09 261.947 1207.53 262.32C1206.97 262.667 1206.33 262.947 1205.61 263.16C1204.91 263.373 1204.11 263.48 1203.21 263.48ZM1203.73 260.64C1204.66 260.64 1205.5 260.453 1206.25 260.08C1207.02 259.68 1207.67 259.147 1208.21 258.48C1208.74 257.787 1209.14 257.027 1209.41 256.2C1209.7 255.373 1209.85 254.507 1209.85 253.6V253.48H1204.81C1203.5 253.48 1202.45 253.64 1201.65 253.96C1200.85 254.253 1200.27 254.68 1199.93 255.24C1199.58 255.773 1199.41 256.387 1199.41 257.08C1199.41 257.8 1199.57 258.427 1199.89 258.96C1200.23 259.493 1200.73 259.907 1201.37 260.2C1202.03 260.493 1202.82 260.64 1203.73 260.64ZM1226.01 263.48C1224.33 263.48 1222.86 263.2 1221.61 262.64C1220.38 262.08 1219.39 261.307 1218.65 260.32C1217.93 259.307 1217.49 258.12 1217.33 256.76H1220.77C1220.9 257.453 1221.18 258.093 1221.61 258.68C1222.03 259.267 1222.61 259.747 1223.33 260.12C1224.07 260.467 1224.98 260.64 1226.05 260.64C1226.98 260.64 1227.75 260.507 1228.37 260.24C1228.98 259.947 1229.43 259.56 1229.73 259.08C1230.05 258.6 1230.21 258.08 1230.21 257.52C1230.21 256.693 1230.01 256.067 1229.61 255.64C1229.23 255.213 1228.67 254.88 1227.93 254.64C1227.18 254.373 1226.27 254.147 1225.21 253.96C1224.33 253.8 1223.46 253.587 1222.61 253.32C1221.75 253.053 1220.99 252.707 1220.33 252.28C1219.66 251.827 1219.13 251.28 1218.73 250.64C1218.35 250 1218.17 249.213 1218.17 248.28C1218.17 247.133 1218.46 246.12 1219.05 245.24C1219.63 244.333 1220.47 243.627 1221.57 243.12C1222.69 242.613 1223.98 242.36 1225.45 242.36C1227.61 242.36 1229.35 242.88 1230.69 243.92C1232.02 244.96 1232.81 246.467 1233.05 248.44H1229.73C1229.59 247.427 1229.15 246.64 1228.41 246.08C1227.69 245.493 1226.69 245.2 1225.41 245.2C1224.15 245.2 1223.19 245.453 1222.53 245.96C1221.89 246.467 1221.57 247.133 1221.57 247.96C1221.57 248.493 1221.74 248.973 1222.09 249.4C1222.46 249.8 1222.99 250.147 1223.69 250.44C1224.41 250.733 1225.29 250.973 1226.33 251.16C1227.66 251.4 1228.87 251.72 1229.97 252.12C1231.06 252.52 1231.94 253.12 1232.61 253.92C1233.3 254.693 1233.65 255.8 1233.65 257.24C1233.65 258.493 1233.33 259.587 1232.69 260.52C1232.07 261.453 1231.19 262.187 1230.05 262.72C1228.9 263.227 1227.55 263.48 1226.01 263.48ZM514.575 315L508.655 294.84H512.015L516.615 311.84H516.015L521.015 294.84H524.815L529.895 311.8L529.255 311.84L533.815 294.84H537.215L531.335 315H527.895L522.615 297.24H523.295L518.015 315H514.575ZM541.003 315V294.84H544.043L544.283 298.68C544.736 297.773 545.31 297 546.003 296.36C546.723 295.72 547.576 295.227 548.563 294.88C549.576 294.533 550.723 294.36 552.003 294.36V297.88H550.763C549.91 297.88 549.096 298 548.323 298.24C547.55 298.453 546.856 298.813 546.243 299.32C545.656 299.827 545.19 300.52 544.843 301.4C544.523 302.253 544.363 303.32 544.363 304.6V315H541.003ZM556.128 315V294.84H559.488V315H556.128ZM557.808 290.56C557.141 290.56 556.581 290.347 556.128 289.92C555.701 289.467 555.488 288.907 555.488 288.24C555.488 287.573 555.701 287.04 556.128 286.64C556.581 286.213 557.141 286 557.808 286C558.448 286 558.994 286.213 559.448 286.64C559.901 287.04 560.128 287.573 560.128 288.24C560.128 288.907 559.901 289.467 559.448 289.92C558.994 290.347 558.448 290.56 557.808 290.56ZM573.337 315C572.137 315 571.097 314.813 570.217 314.44C569.337 314.067 568.657 313.44 568.177 312.56C567.724 311.653 567.497 310.44 567.497 308.92V297.68H563.977V294.84H567.497L567.937 289.96H570.857V294.84H576.697V297.68H570.857V308.92C570.857 310.173 571.111 311.027 571.617 311.48C572.124 311.907 573.017 312.12 574.297 312.12H576.457V315H573.337ZM589.001 315C587.801 315 586.761 314.813 585.881 314.44C585.001 314.067 584.321 313.44 583.841 312.56C583.388 311.653 583.161 310.44 583.161 308.92V297.68H579.641V294.84H583.161L583.601 289.96H586.521V294.84H592.361V297.68H586.521V308.92C586.521 310.173 586.775 311.027 587.281 311.48C587.788 311.907 588.681 312.12 589.961 312.12H592.121V315H589.001ZM605.038 315.48C603.145 315.48 601.465 315.04 599.998 314.16C598.558 313.28 597.425 312.053 596.598 310.48C595.772 308.88 595.358 307.027 595.358 304.92C595.358 302.787 595.758 300.933 596.558 299.36C597.385 297.787 598.532 296.56 599.998 295.68C601.492 294.8 603.198 294.36 605.118 294.36C607.092 294.36 608.758 294.8 610.118 295.68C611.505 296.56 612.558 297.72 613.278 299.16C614.025 300.573 614.398 302.133 614.398 303.84C614.398 304.107 614.398 304.387 614.398 304.68C614.398 304.973 614.385 305.307 614.358 305.68H597.878V303.08H611.118C611.038 301.24 610.425 299.8 609.278 298.76C608.158 297.72 606.745 297.2 605.038 297.2C603.892 297.2 602.825 297.467 601.838 298C600.878 298.507 600.105 299.267 599.518 300.28C598.932 301.267 598.638 302.507 598.638 304V305.12C598.638 306.773 598.932 308.16 599.518 309.28C600.132 310.4 600.918 311.24 601.878 311.8C602.865 312.36 603.918 312.64 605.038 312.64C606.452 312.64 607.612 312.333 608.518 311.72C609.452 311.08 610.118 310.227 610.518 309.16H613.838C613.518 310.36 612.958 311.44 612.158 312.4C611.358 313.36 610.358 314.12 609.158 314.68C607.985 315.213 606.612 315.48 605.038 315.48ZM618.933 315V294.84H621.973L622.133 298.36C622.773 297.107 623.679 296.133 624.853 295.44C626.053 294.72 627.413 294.36 628.933 294.36C630.506 294.36 631.866 294.68 633.013 295.32C634.159 295.933 635.053 296.88 635.693 298.16C636.333 299.413 636.653 301.013 636.653 302.96V315H633.293V303.32C633.293 301.293 632.839 299.773 631.933 298.76C631.053 297.747 629.799 297.24 628.173 297.24C627.053 297.24 626.053 297.52 625.173 298.08C624.293 298.613 623.586 299.4 623.053 300.44C622.546 301.453 622.293 302.72 622.293 304.24V315H618.933ZM663.087 315.48C661.94 315.48 660.9 315.32 659.967 315C659.06 314.653 658.26 314.2 657.567 313.64C656.873 313.08 656.3 312.427 655.847 311.68L655.567 315H652.527V286.2H655.887V298.16C656.527 297.12 657.447 296.227 658.647 295.48C659.847 294.733 661.327 294.36 663.087 294.36C665.033 294.36 666.74 294.827 668.207 295.76C669.673 296.667 670.807 297.92 671.607 299.52C672.433 301.093 672.847 302.893 672.847 304.92C672.847 306.947 672.433 308.76 671.607 310.36C670.807 311.96 669.673 313.213 668.207 314.12C666.74 315.027 665.033 315.48 663.087 315.48ZM662.687 312.56C663.993 312.56 665.153 312.24 666.167 311.6C667.18 310.96 667.967 310.08 668.527 308.96C669.113 307.813 669.407 306.467 669.407 304.92C669.407 303.4 669.113 302.067 668.527 300.92C667.967 299.773 667.18 298.88 666.167 298.24C665.153 297.6 663.993 297.28 662.687 297.28C661.353 297.28 660.18 297.6 659.167 298.24C658.153 298.88 657.367 299.773 656.807 300.92C656.247 302.067 655.967 303.4 655.967 304.92C655.967 306.467 656.247 307.813 656.807 308.96C657.367 310.08 658.153 310.96 659.167 311.6C660.18 312.24 661.353 312.56 662.687 312.56ZM678.164 323.8L683.084 312.76H681.924L674.004 294.84H677.644L684.204 310.24L691.084 294.84H694.564L681.684 323.8H678.164ZM708.816 315V294.84H711.856L712.056 297.72C712.696 296.68 713.549 295.867 714.616 295.28C715.709 294.667 716.896 294.36 718.176 294.36C719.216 294.36 720.149 294.507 720.976 294.8C721.829 295.067 722.576 295.493 723.216 296.08C723.856 296.64 724.376 297.36 724.776 298.24C725.469 297.013 726.416 296.067 727.616 295.4C728.842 294.707 730.149 294.36 731.536 294.36C733.082 294.36 734.429 294.68 735.576 295.32C736.749 295.933 737.642 296.88 738.256 298.16C738.896 299.413 739.216 301.013 739.216 302.96V315H735.896V303.32C735.896 301.293 735.482 299.773 734.656 298.76C733.829 297.747 732.669 297.24 731.176 297.24C730.136 297.24 729.202 297.52 728.376 298.08C727.549 298.613 726.896 299.4 726.416 300.44C725.936 301.48 725.696 302.76 725.696 304.28V315H722.336V303.32C722.336 301.293 721.922 299.773 721.096 298.76C720.269 297.747 719.096 297.24 717.576 297.24C716.562 297.24 715.642 297.52 714.816 298.08C714.016 298.613 713.376 299.4 712.896 300.44C712.416 301.48 712.176 302.76 712.176 304.28V315H708.816ZM753.281 315.48C751.387 315.48 749.707 315.04 748.241 314.16C746.801 313.28 745.667 312.053 744.841 310.48C744.014 308.88 743.601 307.027 743.601 304.92C743.601 302.787 744.001 300.933 744.801 299.36C745.627 297.787 746.774 296.56 748.241 295.68C749.734 294.8 751.441 294.36 753.361 294.36C755.334 294.36 757.001 294.8 758.361 295.68C759.747 296.56 760.801 297.72 761.521 299.16C762.267 300.573 762.641 302.133 762.641 303.84C762.641 304.107 762.641 304.387 762.641 304.68C762.641 304.973 762.627 305.307 762.601 305.68H746.121V303.08H759.361C759.281 301.24 758.667 299.8 757.521 298.76C756.401 297.72 754.987 297.2 753.281 297.2C752.134 297.2 751.067 297.467 750.081 298C749.121 298.507 748.347 299.267 747.761 300.28C747.174 301.267 746.881 302.507 746.881 304V305.12C746.881 306.773 747.174 308.16 747.761 309.28C748.374 310.4 749.161 311.24 750.121 311.8C751.107 312.36 752.161 312.64 753.281 312.64C754.694 312.64 755.854 312.333 756.761 311.72C757.694 311.08 758.361 310.227 758.761 309.16H762.081C761.761 310.36 761.201 311.44 760.401 312.4C759.601 313.36 758.601 314.12 757.401 314.68C756.227 315.213 754.854 315.48 753.281 315.48ZM768.375 315.2C767.708 315.2 767.148 314.987 766.695 314.56C766.268 314.107 766.055 313.56 766.055 312.92C766.055 312.28 766.268 311.747 766.695 311.32C767.148 310.867 767.708 310.64 768.375 310.64C769.042 310.64 769.588 310.867 770.015 311.32C770.442 311.747 770.655 312.28 770.655 312.92C770.655 313.56 770.442 314.107 770.015 314.56C769.588 314.987 769.042 315.2 768.375 315.2Z" fill="#948D54"/>
</g>
<defs>
<clipPath id="clip0_24_2">
<rect width="1280" height="350" fill="white"/>
</clipPath>
</defs>
</svg>
